<mxfile host="Electron" agent="Mozilla/5.0 (Windows NT 10.0; Win64; x64) AppleWebKit/537.36 (KHTML, like Gecko) draw.io/26.0.4 Chrome/128.0.6613.186 Electron/32.2.5 Safari/537.36" version="26.0.4">
  <diagram name="Page-1" id="e56a1550-8fbb-45ad-956c-1786394a9013">
    <mxGraphModel dx="2680" dy="2034" grid="0" gridSize="10" guides="1" tooltips="1" connect="1" arrows="1" fold="1" page="0" pageScale="1" pageWidth="1100" pageHeight="850" background="none" math="0" shadow="0">
      <root>
        <mxCell id="0" />
        <mxCell id="1" parent="0" />
        <mxCell id="-RAdWuRQX7kpM0FOr2N4-1" value="user" style="shape=table;startSize=30;container=1;collapsible=1;childLayout=tableLayout;fixedRows=1;rowLines=0;fontStyle=1;align=center;resizeLast=1;fontSize=20;whiteSpace=wrap;strokeWidth=2;" parent="1" vertex="1">
          <mxGeometry x="468" y="-113" width="180" height="270" as="geometry" />
        </mxCell>
        <mxCell id="-RAdWuRQX7kpM0FOr2N4-2" value="" style="shape=tableRow;horizontal=0;startSize=0;swimlaneHead=0;swimlaneBody=0;fillColor=none;collapsible=0;dropTarget=0;points=[[0,0.5],[1,0.5]];portConstraint=eastwest;top=0;left=0;right=0;bottom=1;fontSize=20;fontStyle=1;whiteSpace=wrap;strokeWidth=2;" parent="-RAdWuRQX7kpM0FOr2N4-1" vertex="1">
          <mxGeometry y="30" width="180" height="30" as="geometry" />
        </mxCell>
        <mxCell id="-RAdWuRQX7kpM0FOr2N4-3" value="PK" style="shape=partialRectangle;connectable=0;fillColor=none;top=0;left=0;bottom=0;right=0;fontStyle=1;overflow=hidden;whiteSpace=wrap;fontSize=20;strokeWidth=2;" parent="-RAdWuRQX7kpM0FOr2N4-2" vertex="1">
          <mxGeometry width="30" height="30" as="geometry">
            <mxRectangle width="30" height="30" as="alternateBounds" />
          </mxGeometry>
        </mxCell>
        <mxCell id="-RAdWuRQX7kpM0FOr2N4-4" value="user_id" style="shape=partialRectangle;connectable=0;fillColor=none;top=0;left=0;bottom=0;right=0;align=left;spacingLeft=6;fontStyle=1;overflow=hidden;whiteSpace=wrap;fontSize=20;strokeWidth=2;" parent="-RAdWuRQX7kpM0FOr2N4-2" vertex="1">
          <mxGeometry x="30" width="150" height="30" as="geometry">
            <mxRectangle width="150" height="30" as="alternateBounds" />
          </mxGeometry>
        </mxCell>
        <mxCell id="-RAdWuRQX7kpM0FOr2N4-5" value="" style="shape=tableRow;horizontal=0;startSize=0;swimlaneHead=0;swimlaneBody=0;fillColor=none;collapsible=0;dropTarget=0;points=[[0,0.5],[1,0.5]];portConstraint=eastwest;top=0;left=0;right=0;bottom=0;fontSize=20;fontStyle=1;whiteSpace=wrap;strokeWidth=2;" parent="-RAdWuRQX7kpM0FOr2N4-1" vertex="1">
          <mxGeometry y="60" width="180" height="30" as="geometry" />
        </mxCell>
        <mxCell id="-RAdWuRQX7kpM0FOr2N4-6" value="" style="shape=partialRectangle;connectable=0;fillColor=none;top=0;left=0;bottom=0;right=0;editable=1;overflow=hidden;whiteSpace=wrap;fontSize=20;fontStyle=1;strokeWidth=2;" parent="-RAdWuRQX7kpM0FOr2N4-5" vertex="1">
          <mxGeometry width="30" height="30" as="geometry">
            <mxRectangle width="30" height="30" as="alternateBounds" />
          </mxGeometry>
        </mxCell>
        <mxCell id="-RAdWuRQX7kpM0FOr2N4-7" value="name" style="shape=partialRectangle;connectable=0;fillColor=none;top=0;left=0;bottom=0;right=0;align=left;spacingLeft=6;overflow=hidden;whiteSpace=wrap;fontSize=20;fontStyle=1;strokeWidth=2;" parent="-RAdWuRQX7kpM0FOr2N4-5" vertex="1">
          <mxGeometry x="30" width="150" height="30" as="geometry">
            <mxRectangle width="150" height="30" as="alternateBounds" />
          </mxGeometry>
        </mxCell>
        <mxCell id="-RAdWuRQX7kpM0FOr2N4-8" value="" style="shape=tableRow;horizontal=0;startSize=0;swimlaneHead=0;swimlaneBody=0;fillColor=none;collapsible=0;dropTarget=0;points=[[0,0.5],[1,0.5]];portConstraint=eastwest;top=0;left=0;right=0;bottom=0;fontSize=20;fontStyle=1;whiteSpace=wrap;strokeWidth=2;" parent="-RAdWuRQX7kpM0FOr2N4-1" vertex="1">
          <mxGeometry y="90" width="180" height="30" as="geometry" />
        </mxCell>
        <mxCell id="-RAdWuRQX7kpM0FOr2N4-9" value="" style="shape=partialRectangle;connectable=0;fillColor=none;top=0;left=0;bottom=0;right=0;editable=1;overflow=hidden;whiteSpace=wrap;fontSize=20;fontStyle=1;strokeWidth=2;" parent="-RAdWuRQX7kpM0FOr2N4-8" vertex="1">
          <mxGeometry width="30" height="30" as="geometry">
            <mxRectangle width="30" height="30" as="alternateBounds" />
          </mxGeometry>
        </mxCell>
        <mxCell id="-RAdWuRQX7kpM0FOr2N4-10" value="email" style="shape=partialRectangle;connectable=0;fillColor=none;top=0;left=0;bottom=0;right=0;align=left;spacingLeft=6;overflow=hidden;whiteSpace=wrap;fontSize=20;fontStyle=1;strokeWidth=2;" parent="-RAdWuRQX7kpM0FOr2N4-8" vertex="1">
          <mxGeometry x="30" width="150" height="30" as="geometry">
            <mxRectangle width="150" height="30" as="alternateBounds" />
          </mxGeometry>
        </mxCell>
        <mxCell id="-RAdWuRQX7kpM0FOr2N4-11" value="" style="shape=tableRow;horizontal=0;startSize=0;swimlaneHead=0;swimlaneBody=0;fillColor=none;collapsible=0;dropTarget=0;points=[[0,0.5],[1,0.5]];portConstraint=eastwest;top=0;left=0;right=0;bottom=0;fontSize=20;fontStyle=1;whiteSpace=wrap;strokeWidth=2;" parent="-RAdWuRQX7kpM0FOr2N4-1" vertex="1">
          <mxGeometry y="120" width="180" height="30" as="geometry" />
        </mxCell>
        <mxCell id="-RAdWuRQX7kpM0FOr2N4-12" value="" style="shape=partialRectangle;connectable=0;fillColor=none;top=0;left=0;bottom=0;right=0;editable=1;overflow=hidden;whiteSpace=wrap;fontSize=20;fontStyle=1;strokeWidth=2;" parent="-RAdWuRQX7kpM0FOr2N4-11" vertex="1">
          <mxGeometry width="30" height="30" as="geometry">
            <mxRectangle width="30" height="30" as="alternateBounds" />
          </mxGeometry>
        </mxCell>
        <mxCell id="-RAdWuRQX7kpM0FOr2N4-13" value="password" style="shape=partialRectangle;connectable=0;fillColor=none;top=0;left=0;bottom=0;right=0;align=left;spacingLeft=6;overflow=hidden;whiteSpace=wrap;fontSize=20;fontStyle=1;strokeWidth=2;" parent="-RAdWuRQX7kpM0FOr2N4-11" vertex="1">
          <mxGeometry x="30" width="150" height="30" as="geometry">
            <mxRectangle width="150" height="30" as="alternateBounds" />
          </mxGeometry>
        </mxCell>
        <mxCell id="-RAdWuRQX7kpM0FOr2N4-17" style="shape=tableRow;horizontal=0;startSize=0;swimlaneHead=0;swimlaneBody=0;fillColor=none;collapsible=0;dropTarget=0;points=[[0,0.5],[1,0.5]];portConstraint=eastwest;top=0;left=0;right=0;bottom=0;fontSize=20;fontStyle=1;whiteSpace=wrap;strokeWidth=2;" parent="-RAdWuRQX7kpM0FOr2N4-1" vertex="1">
          <mxGeometry y="150" width="180" height="30" as="geometry" />
        </mxCell>
        <mxCell id="-RAdWuRQX7kpM0FOr2N4-18" style="shape=partialRectangle;connectable=0;fillColor=none;top=0;left=0;bottom=0;right=0;editable=1;overflow=hidden;whiteSpace=wrap;fontSize=20;fontStyle=1;strokeWidth=2;" parent="-RAdWuRQX7kpM0FOr2N4-17" vertex="1">
          <mxGeometry width="30" height="30" as="geometry">
            <mxRectangle width="30" height="30" as="alternateBounds" />
          </mxGeometry>
        </mxCell>
        <mxCell id="-RAdWuRQX7kpM0FOr2N4-19" value="role" style="shape=partialRectangle;connectable=0;fillColor=none;top=0;left=0;bottom=0;right=0;align=left;spacingLeft=6;overflow=hidden;whiteSpace=wrap;fontSize=20;fontStyle=1;strokeWidth=2;" parent="-RAdWuRQX7kpM0FOr2N4-17" vertex="1">
          <mxGeometry x="30" width="150" height="30" as="geometry">
            <mxRectangle width="150" height="30" as="alternateBounds" />
          </mxGeometry>
        </mxCell>
        <mxCell id="-RAdWuRQX7kpM0FOr2N4-14" style="shape=tableRow;horizontal=0;startSize=0;swimlaneHead=0;swimlaneBody=0;fillColor=none;collapsible=0;dropTarget=0;points=[[0,0.5],[1,0.5]];portConstraint=eastwest;top=0;left=0;right=0;bottom=0;fontSize=20;fontStyle=1;whiteSpace=wrap;strokeWidth=2;" parent="-RAdWuRQX7kpM0FOr2N4-1" vertex="1">
          <mxGeometry y="180" width="180" height="30" as="geometry" />
        </mxCell>
        <mxCell id="-RAdWuRQX7kpM0FOr2N4-15" style="shape=partialRectangle;connectable=0;fillColor=none;top=0;left=0;bottom=0;right=0;editable=1;overflow=hidden;whiteSpace=wrap;fontSize=20;fontStyle=1;strokeWidth=2;" parent="-RAdWuRQX7kpM0FOr2N4-14" vertex="1">
          <mxGeometry width="30" height="30" as="geometry">
            <mxRectangle width="30" height="30" as="alternateBounds" />
          </mxGeometry>
        </mxCell>
        <mxCell id="-RAdWuRQX7kpM0FOr2N4-16" value="phone" style="shape=partialRectangle;connectable=0;fillColor=none;top=0;left=0;bottom=0;right=0;align=left;spacingLeft=6;overflow=hidden;whiteSpace=wrap;fontSize=20;fontStyle=1;strokeWidth=2;" parent="-RAdWuRQX7kpM0FOr2N4-14" vertex="1">
          <mxGeometry x="30" width="150" height="30" as="geometry">
            <mxRectangle width="150" height="30" as="alternateBounds" />
          </mxGeometry>
        </mxCell>
        <mxCell id="-RAdWuRQX7kpM0FOr2N4-20" style="shape=tableRow;horizontal=0;startSize=0;swimlaneHead=0;swimlaneBody=0;fillColor=none;collapsible=0;dropTarget=0;points=[[0,0.5],[1,0.5]];portConstraint=eastwest;top=0;left=0;right=0;bottom=0;fontSize=20;fontStyle=1;whiteSpace=wrap;strokeWidth=2;" parent="-RAdWuRQX7kpM0FOr2N4-1" vertex="1">
          <mxGeometry y="210" width="180" height="30" as="geometry" />
        </mxCell>
        <mxCell id="-RAdWuRQX7kpM0FOr2N4-21" style="shape=partialRectangle;connectable=0;fillColor=none;top=0;left=0;bottom=0;right=0;editable=1;overflow=hidden;whiteSpace=wrap;fontSize=20;fontStyle=1;strokeWidth=2;" parent="-RAdWuRQX7kpM0FOr2N4-20" vertex="1">
          <mxGeometry width="30" height="30" as="geometry">
            <mxRectangle width="30" height="30" as="alternateBounds" />
          </mxGeometry>
        </mxCell>
        <mxCell id="-RAdWuRQX7kpM0FOr2N4-22" value="address" style="shape=partialRectangle;connectable=0;fillColor=none;top=0;left=0;bottom=0;right=0;align=left;spacingLeft=6;overflow=hidden;whiteSpace=wrap;fontSize=20;fontStyle=1;strokeWidth=2;" parent="-RAdWuRQX7kpM0FOr2N4-20" vertex="1">
          <mxGeometry x="30" width="150" height="30" as="geometry">
            <mxRectangle width="150" height="30" as="alternateBounds" />
          </mxGeometry>
        </mxCell>
        <mxCell id="-RAdWuRQX7kpM0FOr2N4-23" style="shape=tableRow;horizontal=0;startSize=0;swimlaneHead=0;swimlaneBody=0;fillColor=none;collapsible=0;dropTarget=0;points=[[0,0.5],[1,0.5]];portConstraint=eastwest;top=0;left=0;right=0;bottom=0;fontSize=20;fontStyle=1;whiteSpace=wrap;strokeWidth=2;" parent="-RAdWuRQX7kpM0FOr2N4-1" vertex="1">
          <mxGeometry y="240" width="180" height="30" as="geometry" />
        </mxCell>
        <mxCell id="-RAdWuRQX7kpM0FOr2N4-24" style="shape=partialRectangle;connectable=0;fillColor=none;top=0;left=0;bottom=0;right=0;editable=1;overflow=hidden;whiteSpace=wrap;fontSize=20;fontStyle=1;strokeWidth=2;" parent="-RAdWuRQX7kpM0FOr2N4-23" vertex="1">
          <mxGeometry width="30" height="30" as="geometry">
            <mxRectangle width="30" height="30" as="alternateBounds" />
          </mxGeometry>
        </mxCell>
        <mxCell id="-RAdWuRQX7kpM0FOr2N4-25" style="shape=partialRectangle;connectable=0;fillColor=none;top=0;left=0;bottom=0;right=0;align=left;spacingLeft=6;overflow=hidden;whiteSpace=wrap;fontSize=20;fontStyle=1;strokeWidth=2;" parent="-RAdWuRQX7kpM0FOr2N4-23" vertex="1">
          <mxGeometry x="30" width="150" height="30" as="geometry">
            <mxRectangle width="150" height="30" as="alternateBounds" />
          </mxGeometry>
        </mxCell>
        <mxCell id="Ffluy86TxCfnXTcbzehv-18" style="edgeStyle=orthogonalEdgeStyle;rounded=1;orthogonalLoop=1;jettySize=auto;html=1;strokeWidth=2;endArrow=block;endFill=0;fontSize=20;fontStyle=1;curved=0;" edge="1" parent="1" source="-RAdWuRQX7kpM0FOr2N4-26">
          <mxGeometry relative="1" as="geometry">
            <mxPoint x="558" y="157" as="targetPoint" />
            <Array as="points">
              <mxPoint x="-33" y="224" />
              <mxPoint x="558" y="224" />
            </Array>
          </mxGeometry>
        </mxCell>
        <mxCell id="Ffluy86TxCfnXTcbzehv-29" style="edgeStyle=orthogonalEdgeStyle;rounded=1;orthogonalLoop=1;jettySize=auto;html=1;entryX=0;entryY=0.5;entryDx=0;entryDy=0;strokeWidth=2;endArrow=none;endFill=0;curved=0;" edge="1" parent="1" target="Ffluy86TxCfnXTcbzehv-26">
          <mxGeometry relative="1" as="geometry">
            <mxPoint x="102" y="420" as="sourcePoint" />
            <Array as="points">
              <mxPoint x="116" y="420" />
              <mxPoint x="116" y="691" />
            </Array>
          </mxGeometry>
        </mxCell>
        <mxCell id="Ffluy86TxCfnXTcbzehv-53" style="edgeStyle=orthogonalEdgeStyle;rounded=1;orthogonalLoop=1;jettySize=auto;html=1;entryX=0.5;entryY=0;entryDx=0;entryDy=0;endArrow=none;endFill=0;strokeWidth=2;curved=0;" edge="1" parent="1" source="-RAdWuRQX7kpM0FOr2N4-26" target="Ffluy86TxCfnXTcbzehv-50">
          <mxGeometry relative="1" as="geometry">
            <Array as="points">
              <mxPoint x="81" y="735" />
            </Array>
          </mxGeometry>
        </mxCell>
        <mxCell id="Ffluy86TxCfnXTcbzehv-67" style="edgeStyle=orthogonalEdgeStyle;rounded=1;orthogonalLoop=1;jettySize=auto;html=1;entryX=0;entryY=0.5;entryDx=0;entryDy=0;strokeWidth=2;endArrow=none;endFill=0;curved=0;" edge="1" parent="1" source="-RAdWuRQX7kpM0FOr2N4-26" target="Ffluy86TxCfnXTcbzehv-65">
          <mxGeometry relative="1" as="geometry">
            <Array as="points">
              <mxPoint x="22" y="1681" />
            </Array>
          </mxGeometry>
        </mxCell>
        <mxCell id="Ffluy86TxCfnXTcbzehv-70" style="edgeStyle=orthogonalEdgeStyle;rounded=1;orthogonalLoop=1;jettySize=auto;html=1;entryX=0;entryY=0.5;entryDx=0;entryDy=0;strokeWidth=2;endArrow=none;endFill=0;curved=0;" edge="1" parent="1" source="-RAdWuRQX7kpM0FOr2N4-26" target="Ffluy86TxCfnXTcbzehv-69">
          <mxGeometry relative="1" as="geometry">
            <Array as="points">
              <mxPoint x="-30" y="1795" />
            </Array>
          </mxGeometry>
        </mxCell>
        <mxCell id="Ffluy86TxCfnXTcbzehv-126" style="edgeStyle=orthogonalEdgeStyle;rounded=1;orthogonalLoop=1;jettySize=auto;html=1;entryX=0;entryY=0.5;entryDx=0;entryDy=0;strokeWidth=2;endArrow=none;endFill=0;curved=0;" edge="1" parent="1" source="-RAdWuRQX7kpM0FOr2N4-26" target="Ffluy86TxCfnXTcbzehv-101">
          <mxGeometry relative="1" as="geometry">
            <Array as="points">
              <mxPoint x="-84" y="1905" />
              <mxPoint x="-40" y="1905" />
            </Array>
          </mxGeometry>
        </mxCell>
        <mxCell id="Ffluy86TxCfnXTcbzehv-138" style="edgeStyle=orthogonalEdgeStyle;rounded=1;orthogonalLoop=1;jettySize=auto;html=1;entryX=0;entryY=0.5;entryDx=0;entryDy=0;strokeWidth=2;endArrow=none;endFill=0;curved=0;" edge="1" parent="1" source="-RAdWuRQX7kpM0FOr2N4-26" target="Ffluy86TxCfnXTcbzehv-136">
          <mxGeometry relative="1" as="geometry">
            <Array as="points">
              <mxPoint x="-132" y="2160" />
            </Array>
          </mxGeometry>
        </mxCell>
        <mxCell id="Ffluy86TxCfnXTcbzehv-144" style="edgeStyle=orthogonalEdgeStyle;rounded=1;orthogonalLoop=1;jettySize=auto;html=1;entryX=0;entryY=0.5;entryDx=0;entryDy=0;strokeWidth=2;endArrow=none;endFill=0;curved=0;" edge="1" parent="1" source="-RAdWuRQX7kpM0FOr2N4-26" target="Ffluy86TxCfnXTcbzehv-143">
          <mxGeometry relative="1" as="geometry">
            <Array as="points">
              <mxPoint x="-165" y="2335" />
            </Array>
          </mxGeometry>
        </mxCell>
        <mxCell id="-RAdWuRQX7kpM0FOr2N4-26" value="representative" style="shape=table;startSize=30;container=1;collapsible=1;childLayout=tableLayout;fixedRows=1;rowLines=0;fontStyle=1;align=center;resizeLast=1;fontSize=20;whiteSpace=wrap;strokeWidth=2;" parent="1" vertex="1">
          <mxGeometry x="-168" y="270" width="286" height="150" as="geometry" />
        </mxCell>
        <mxCell id="-RAdWuRQX7kpM0FOr2N4-27" value="" style="shape=tableRow;horizontal=0;startSize=0;swimlaneHead=0;swimlaneBody=0;fillColor=none;collapsible=0;dropTarget=0;points=[[0,0.5],[1,0.5]];portConstraint=eastwest;top=0;left=0;right=0;bottom=1;fontSize=20;fontStyle=1;whiteSpace=wrap;strokeWidth=2;" parent="-RAdWuRQX7kpM0FOr2N4-26" vertex="1">
          <mxGeometry y="30" width="286" height="30" as="geometry" />
        </mxCell>
        <mxCell id="-RAdWuRQX7kpM0FOr2N4-28" value="PK" style="shape=partialRectangle;connectable=0;fillColor=none;top=0;left=0;bottom=0;right=0;fontStyle=1;overflow=hidden;whiteSpace=wrap;fontSize=20;strokeWidth=2;" parent="-RAdWuRQX7kpM0FOr2N4-27" vertex="1">
          <mxGeometry width="30" height="30" as="geometry">
            <mxRectangle width="30" height="30" as="alternateBounds" />
          </mxGeometry>
        </mxCell>
        <mxCell id="-RAdWuRQX7kpM0FOr2N4-29" value="representative_id" style="shape=partialRectangle;connectable=0;fillColor=none;top=0;left=0;bottom=0;right=0;align=left;spacingLeft=6;fontStyle=1;overflow=hidden;whiteSpace=wrap;fontSize=20;strokeWidth=2;" parent="-RAdWuRQX7kpM0FOr2N4-27" vertex="1">
          <mxGeometry x="30" width="256" height="30" as="geometry">
            <mxRectangle width="256" height="30" as="alternateBounds" />
          </mxGeometry>
        </mxCell>
        <mxCell id="-RAdWuRQX7kpM0FOr2N4-33" value="" style="shape=tableRow;horizontal=0;startSize=0;swimlaneHead=0;swimlaneBody=0;fillColor=none;collapsible=0;dropTarget=0;points=[[0,0.5],[1,0.5]];portConstraint=eastwest;top=0;left=0;right=0;bottom=0;fontSize=20;fontStyle=1;whiteSpace=wrap;strokeWidth=2;" parent="-RAdWuRQX7kpM0FOr2N4-26" vertex="1">
          <mxGeometry y="60" width="286" height="30" as="geometry" />
        </mxCell>
        <mxCell id="-RAdWuRQX7kpM0FOr2N4-34" value="FK" style="shape=partialRectangle;connectable=0;fillColor=none;top=0;left=0;bottom=0;right=0;editable=1;overflow=hidden;whiteSpace=wrap;fontSize=20;fontStyle=1;strokeWidth=2;" parent="-RAdWuRQX7kpM0FOr2N4-33" vertex="1">
          <mxGeometry width="30" height="30" as="geometry">
            <mxRectangle width="30" height="30" as="alternateBounds" />
          </mxGeometry>
        </mxCell>
        <mxCell id="-RAdWuRQX7kpM0FOr2N4-35" value="constituency_id" style="shape=partialRectangle;connectable=0;fillColor=none;top=0;left=0;bottom=0;right=0;align=left;spacingLeft=6;overflow=hidden;whiteSpace=wrap;fontSize=20;fontStyle=1;strokeWidth=2;" parent="-RAdWuRQX7kpM0FOr2N4-33" vertex="1">
          <mxGeometry x="30" width="256" height="30" as="geometry">
            <mxRectangle width="256" height="30" as="alternateBounds" />
          </mxGeometry>
        </mxCell>
        <mxCell id="-RAdWuRQX7kpM0FOr2N4-36" value="" style="shape=tableRow;horizontal=0;startSize=0;swimlaneHead=0;swimlaneBody=0;fillColor=none;collapsible=0;dropTarget=0;points=[[0,0.5],[1,0.5]];portConstraint=eastwest;top=0;left=0;right=0;bottom=0;fontSize=20;fontStyle=1;whiteSpace=wrap;strokeWidth=2;" parent="-RAdWuRQX7kpM0FOr2N4-26" vertex="1">
          <mxGeometry y="90" width="286" height="30" as="geometry" />
        </mxCell>
        <mxCell id="-RAdWuRQX7kpM0FOr2N4-37" value="" style="shape=partialRectangle;connectable=0;fillColor=none;top=0;left=0;bottom=0;right=0;editable=1;overflow=hidden;whiteSpace=wrap;fontSize=20;fontStyle=1;strokeWidth=2;" parent="-RAdWuRQX7kpM0FOr2N4-36" vertex="1">
          <mxGeometry width="30" height="30" as="geometry">
            <mxRectangle width="30" height="30" as="alternateBounds" />
          </mxGeometry>
        </mxCell>
        <mxCell id="-RAdWuRQX7kpM0FOr2N4-38" value="" style="shape=partialRectangle;connectable=0;fillColor=none;top=0;left=0;bottom=0;right=0;align=left;spacingLeft=6;overflow=hidden;whiteSpace=wrap;fontSize=20;fontStyle=1;strokeWidth=2;" parent="-RAdWuRQX7kpM0FOr2N4-36" vertex="1">
          <mxGeometry x="30" width="256" height="30" as="geometry">
            <mxRectangle width="256" height="30" as="alternateBounds" />
          </mxGeometry>
        </mxCell>
        <mxCell id="-RAdWuRQX7kpM0FOr2N4-39" style="shape=tableRow;horizontal=0;startSize=0;swimlaneHead=0;swimlaneBody=0;fillColor=none;collapsible=0;dropTarget=0;points=[[0,0.5],[1,0.5]];portConstraint=eastwest;top=0;left=0;right=0;bottom=0;fontSize=20;fontStyle=1;whiteSpace=wrap;strokeWidth=2;" parent="-RAdWuRQX7kpM0FOr2N4-26" vertex="1">
          <mxGeometry y="120" width="286" height="30" as="geometry" />
        </mxCell>
        <mxCell id="-RAdWuRQX7kpM0FOr2N4-40" style="shape=partialRectangle;connectable=0;fillColor=none;top=0;left=0;bottom=0;right=0;editable=1;overflow=hidden;whiteSpace=wrap;fontSize=20;fontStyle=1;strokeWidth=2;" parent="-RAdWuRQX7kpM0FOr2N4-39" vertex="1">
          <mxGeometry width="30" height="30" as="geometry">
            <mxRectangle width="30" height="30" as="alternateBounds" />
          </mxGeometry>
        </mxCell>
        <mxCell id="-RAdWuRQX7kpM0FOr2N4-41" value="" style="shape=partialRectangle;connectable=0;fillColor=none;top=0;left=0;bottom=0;right=0;align=left;spacingLeft=6;overflow=hidden;whiteSpace=wrap;fontSize=20;fontStyle=1;strokeWidth=2;" parent="-RAdWuRQX7kpM0FOr2N4-39" vertex="1">
          <mxGeometry x="30" width="256" height="30" as="geometry">
            <mxRectangle width="256" height="30" as="alternateBounds" />
          </mxGeometry>
        </mxCell>
        <mxCell id="Ffluy86TxCfnXTcbzehv-16" style="edgeStyle=orthogonalEdgeStyle;rounded=1;orthogonalLoop=1;jettySize=auto;html=1;entryX=0.5;entryY=1;entryDx=0;entryDy=0;endArrow=block;endFill=0;strokeWidth=2;fontSize=20;fontStyle=1;curved=0;" edge="1" parent="1" source="-RAdWuRQX7kpM0FOr2N4-64" target="-RAdWuRQX7kpM0FOr2N4-1">
          <mxGeometry relative="1" as="geometry">
            <Array as="points">
              <mxPoint x="558" y="185" />
              <mxPoint x="558" y="185" />
            </Array>
          </mxGeometry>
        </mxCell>
        <mxCell id="Ffluy86TxCfnXTcbzehv-21" style="edgeStyle=orthogonalEdgeStyle;rounded=1;orthogonalLoop=1;jettySize=auto;html=1;strokeWidth=2;endArrow=block;endFill=0;fontSize=20;fontStyle=1;curved=0;" edge="1" parent="1" source="-RAdWuRQX7kpM0FOr2N4-51">
          <mxGeometry relative="1" as="geometry">
            <mxPoint x="558" y="157" as="targetPoint" />
            <Array as="points">
              <mxPoint x="1531" y="224" />
              <mxPoint x="558" y="224" />
            </Array>
          </mxGeometry>
        </mxCell>
        <mxCell id="Ffluy86TxCfnXTcbzehv-34" style="edgeStyle=orthogonalEdgeStyle;rounded=1;orthogonalLoop=1;jettySize=auto;html=1;entryX=1;entryY=0.5;entryDx=0;entryDy=0;strokeWidth=2;endArrow=none;endFill=0;curved=0;" edge="1" parent="1" source="-RAdWuRQX7kpM0FOr2N4-51" target="Ffluy86TxCfnXTcbzehv-31">
          <mxGeometry relative="1" as="geometry">
            <Array as="points">
              <mxPoint x="1263" y="660" />
            </Array>
          </mxGeometry>
        </mxCell>
        <mxCell id="Ffluy86TxCfnXTcbzehv-44" style="edgeStyle=orthogonalEdgeStyle;rounded=1;orthogonalLoop=1;jettySize=auto;html=1;entryX=1;entryY=0.5;entryDx=0;entryDy=0;strokeWidth=2;endArrow=none;endFill=0;curved=0;" edge="1" parent="1" source="-RAdWuRQX7kpM0FOr2N4-51" target="Ffluy86TxCfnXTcbzehv-43">
          <mxGeometry relative="1" as="geometry">
            <Array as="points">
              <mxPoint x="1349" y="1074" />
            </Array>
          </mxGeometry>
        </mxCell>
        <mxCell id="Ffluy86TxCfnXTcbzehv-60" style="edgeStyle=orthogonalEdgeStyle;rounded=1;orthogonalLoop=1;jettySize=auto;html=1;entryX=1;entryY=0.5;entryDx=0;entryDy=0;strokeWidth=2;endArrow=none;endFill=0;curved=0;" edge="1" parent="1" source="-RAdWuRQX7kpM0FOr2N4-51" target="Ffluy86TxCfnXTcbzehv-58">
          <mxGeometry relative="1" as="geometry">
            <Array as="points">
              <mxPoint x="1449" y="1501" />
            </Array>
          </mxGeometry>
        </mxCell>
        <mxCell id="Ffluy86TxCfnXTcbzehv-64" style="edgeStyle=orthogonalEdgeStyle;rounded=1;orthogonalLoop=1;jettySize=auto;html=1;entryX=1;entryY=0.5;entryDx=0;entryDy=0;strokeWidth=2;endArrow=none;endFill=0;curved=0;" edge="1" parent="1" source="-RAdWuRQX7kpM0FOr2N4-51" target="Ffluy86TxCfnXTcbzehv-61">
          <mxGeometry relative="1" as="geometry">
            <Array as="points">
              <mxPoint x="1496" y="1671" />
            </Array>
          </mxGeometry>
        </mxCell>
        <mxCell id="Ffluy86TxCfnXTcbzehv-72" style="edgeStyle=orthogonalEdgeStyle;rounded=1;orthogonalLoop=1;jettySize=auto;html=1;entryX=1;entryY=0.5;entryDx=0;entryDy=0;strokeWidth=2;endArrow=none;endFill=0;curved=0;" edge="1" parent="1" source="-RAdWuRQX7kpM0FOr2N4-51" target="Ffluy86TxCfnXTcbzehv-68">
          <mxGeometry relative="1" as="geometry">
            <Array as="points">
              <mxPoint x="1536" y="1796" />
            </Array>
          </mxGeometry>
        </mxCell>
        <mxCell id="Ffluy86TxCfnXTcbzehv-100" style="edgeStyle=orthogonalEdgeStyle;rounded=1;orthogonalLoop=1;jettySize=auto;html=1;entryX=1;entryY=0.5;entryDx=0;entryDy=0;strokeWidth=2;endArrow=none;endFill=0;curved=0;" edge="1" parent="1" source="-RAdWuRQX7kpM0FOr2N4-51" target="Ffluy86TxCfnXTcbzehv-97">
          <mxGeometry relative="1" as="geometry">
            <Array as="points">
              <mxPoint x="1403" y="1259" />
            </Array>
          </mxGeometry>
        </mxCell>
        <mxCell id="Ffluy86TxCfnXTcbzehv-130" style="edgeStyle=orthogonalEdgeStyle;rounded=1;orthogonalLoop=1;jettySize=auto;html=1;entryX=1;entryY=0.5;entryDx=0;entryDy=0;strokeWidth=2;endArrow=none;endFill=0;curved=0;" edge="1" parent="1" source="-RAdWuRQX7kpM0FOr2N4-51" target="Ffluy86TxCfnXTcbzehv-102">
          <mxGeometry relative="1" as="geometry">
            <Array as="points">
              <mxPoint x="1587" y="1933" />
            </Array>
          </mxGeometry>
        </mxCell>
        <mxCell id="Ffluy86TxCfnXTcbzehv-134" style="edgeStyle=orthogonalEdgeStyle;rounded=1;orthogonalLoop=1;jettySize=auto;html=1;entryX=1;entryY=0.5;entryDx=0;entryDy=0;strokeWidth=2;endArrow=none;endFill=0;curved=0;" edge="1" parent="1" source="-RAdWuRQX7kpM0FOr2N4-51" target="Ffluy86TxCfnXTcbzehv-131">
          <mxGeometry relative="1" as="geometry">
            <Array as="points">
              <mxPoint x="1650" y="2082" />
            </Array>
          </mxGeometry>
        </mxCell>
        <mxCell id="Ffluy86TxCfnXTcbzehv-141" style="edgeStyle=orthogonalEdgeStyle;rounded=1;orthogonalLoop=1;jettySize=auto;html=1;entryX=1;entryY=0.5;entryDx=0;entryDy=0;strokeWidth=2;endArrow=none;endFill=0;curved=0;" edge="1" parent="1" source="-RAdWuRQX7kpM0FOr2N4-51" target="Ffluy86TxCfnXTcbzehv-139">
          <mxGeometry relative="1" as="geometry">
            <Array as="points">
              <mxPoint x="1708" y="2190" />
              <mxPoint x="1440" y="2190" />
            </Array>
          </mxGeometry>
        </mxCell>
        <mxCell id="Ffluy86TxCfnXTcbzehv-148" style="edgeStyle=orthogonalEdgeStyle;rounded=1;orthogonalLoop=1;jettySize=auto;html=1;entryX=1;entryY=0.5;entryDx=0;entryDy=0;strokeWidth=2;endArrow=none;endFill=0;curved=0;" edge="1" parent="1" source="-RAdWuRQX7kpM0FOr2N4-51" target="Ffluy86TxCfnXTcbzehv-146">
          <mxGeometry relative="1" as="geometry">
            <Array as="points">
              <mxPoint x="1771" y="2334" />
            </Array>
          </mxGeometry>
        </mxCell>
        <mxCell id="-RAdWuRQX7kpM0FOr2N4-51" value="constituent" style="shape=table;startSize=30;container=1;collapsible=1;childLayout=tableLayout;fixedRows=1;rowLines=0;fontStyle=1;align=center;resizeLast=1;fontSize=20;whiteSpace=wrap;strokeWidth=2;" parent="1" vertex="1">
          <mxGeometry x="1257" y="266" width="524" height="180" as="geometry" />
        </mxCell>
        <mxCell id="-RAdWuRQX7kpM0FOr2N4-52" value="" style="shape=tableRow;horizontal=0;startSize=0;swimlaneHead=0;swimlaneBody=0;fillColor=none;collapsible=0;dropTarget=0;points=[[0,0.5],[1,0.5]];portConstraint=eastwest;top=0;left=0;right=0;bottom=1;fontSize=20;fontStyle=1;whiteSpace=wrap;strokeWidth=2;" parent="-RAdWuRQX7kpM0FOr2N4-51" vertex="1">
          <mxGeometry y="30" width="524" height="30" as="geometry" />
        </mxCell>
        <mxCell id="-RAdWuRQX7kpM0FOr2N4-53" value="PK" style="shape=partialRectangle;connectable=0;fillColor=none;top=0;left=0;bottom=0;right=0;fontStyle=1;overflow=hidden;whiteSpace=wrap;fontSize=20;strokeWidth=2;" parent="-RAdWuRQX7kpM0FOr2N4-52" vertex="1">
          <mxGeometry width="30" height="30" as="geometry">
            <mxRectangle width="30" height="30" as="alternateBounds" />
          </mxGeometry>
        </mxCell>
        <mxCell id="-RAdWuRQX7kpM0FOr2N4-54" value=" " style="shape=partialRectangle;connectable=0;fillColor=none;top=0;left=0;bottom=0;right=0;align=left;spacingLeft=6;fontStyle=1;overflow=hidden;whiteSpace=wrap;fontSize=20;strokeWidth=2;" parent="-RAdWuRQX7kpM0FOr2N4-52" vertex="1">
          <mxGeometry x="30" width="494" height="30" as="geometry">
            <mxRectangle width="494" height="30" as="alternateBounds" />
          </mxGeometry>
        </mxCell>
        <mxCell id="-RAdWuRQX7kpM0FOr2N4-55" value="" style="shape=tableRow;horizontal=0;startSize=0;swimlaneHead=0;swimlaneBody=0;fillColor=none;collapsible=0;dropTarget=0;points=[[0,0.5],[1,0.5]];portConstraint=eastwest;top=0;left=0;right=0;bottom=0;fontSize=20;fontStyle=1;whiteSpace=wrap;strokeWidth=2;" parent="-RAdWuRQX7kpM0FOr2N4-51" vertex="1">
          <mxGeometry y="60" width="524" height="30" as="geometry" />
        </mxCell>
        <mxCell id="-RAdWuRQX7kpM0FOr2N4-56" value="FK" style="shape=partialRectangle;connectable=0;fillColor=none;top=0;left=0;bottom=0;right=0;editable=1;overflow=hidden;whiteSpace=wrap;fontSize=20;fontStyle=1;strokeWidth=2;" parent="-RAdWuRQX7kpM0FOr2N4-55" vertex="1">
          <mxGeometry width="30" height="30" as="geometry">
            <mxRectangle width="30" height="30" as="alternateBounds" />
          </mxGeometry>
        </mxCell>
        <mxCell id="-RAdWuRQX7kpM0FOr2N4-57" value="constituency_id" style="shape=partialRectangle;connectable=0;fillColor=none;top=0;left=0;bottom=0;right=0;align=left;spacingLeft=6;overflow=hidden;whiteSpace=wrap;fontSize=20;fontStyle=1;strokeWidth=2;" parent="-RAdWuRQX7kpM0FOr2N4-55" vertex="1">
          <mxGeometry x="30" width="494" height="30" as="geometry">
            <mxRectangle width="494" height="30" as="alternateBounds" />
          </mxGeometry>
        </mxCell>
        <mxCell id="-RAdWuRQX7kpM0FOr2N4-58" value="" style="shape=tableRow;horizontal=0;startSize=0;swimlaneHead=0;swimlaneBody=0;fillColor=none;collapsible=0;dropTarget=0;points=[[0,0.5],[1,0.5]];portConstraint=eastwest;top=0;left=0;right=0;bottom=0;fontSize=20;fontStyle=1;whiteSpace=wrap;strokeWidth=2;" parent="-RAdWuRQX7kpM0FOr2N4-51" vertex="1">
          <mxGeometry y="90" width="524" height="30" as="geometry" />
        </mxCell>
        <mxCell id="-RAdWuRQX7kpM0FOr2N4-59" value="" style="shape=partialRectangle;connectable=0;fillColor=none;top=0;left=0;bottom=0;right=0;editable=1;overflow=hidden;whiteSpace=wrap;fontSize=20;fontStyle=1;strokeWidth=2;" parent="-RAdWuRQX7kpM0FOr2N4-58" vertex="1">
          <mxGeometry width="30" height="30" as="geometry">
            <mxRectangle width="30" height="30" as="alternateBounds" />
          </mxGeometry>
        </mxCell>
        <mxCell id="-RAdWuRQX7kpM0FOr2N4-60" value="age" style="shape=partialRectangle;connectable=0;fillColor=none;top=0;left=0;bottom=0;right=0;align=left;spacingLeft=6;overflow=hidden;whiteSpace=wrap;fontSize=20;fontStyle=1;strokeWidth=2;" parent="-RAdWuRQX7kpM0FOr2N4-58" vertex="1">
          <mxGeometry x="30" width="494" height="30" as="geometry">
            <mxRectangle width="494" height="30" as="alternateBounds" />
          </mxGeometry>
        </mxCell>
        <mxCell id="-RAdWuRQX7kpM0FOr2N4-61" style="shape=tableRow;horizontal=0;startSize=0;swimlaneHead=0;swimlaneBody=0;fillColor=none;collapsible=0;dropTarget=0;points=[[0,0.5],[1,0.5]];portConstraint=eastwest;top=0;left=0;right=0;bottom=0;fontSize=20;fontStyle=1;whiteSpace=wrap;strokeWidth=2;" parent="-RAdWuRQX7kpM0FOr2N4-51" vertex="1">
          <mxGeometry y="120" width="524" height="30" as="geometry" />
        </mxCell>
        <mxCell id="-RAdWuRQX7kpM0FOr2N4-62" style="shape=partialRectangle;connectable=0;fillColor=none;top=0;left=0;bottom=0;right=0;editable=1;overflow=hidden;whiteSpace=wrap;fontSize=20;fontStyle=1;strokeWidth=2;" parent="-RAdWuRQX7kpM0FOr2N4-61" vertex="1">
          <mxGeometry width="30" height="30" as="geometry">
            <mxRectangle width="30" height="30" as="alternateBounds" />
          </mxGeometry>
        </mxCell>
        <mxCell id="-RAdWuRQX7kpM0FOr2N4-63" value="gender" style="shape=partialRectangle;connectable=0;fillColor=none;top=0;left=0;bottom=0;right=0;align=left;spacingLeft=6;overflow=hidden;whiteSpace=wrap;fontSize=20;fontStyle=1;strokeWidth=2;" parent="-RAdWuRQX7kpM0FOr2N4-61" vertex="1">
          <mxGeometry x="30" width="494" height="30" as="geometry">
            <mxRectangle width="494" height="30" as="alternateBounds" />
          </mxGeometry>
        </mxCell>
        <mxCell id="-RAdWuRQX7kpM0FOr2N4-109" style="shape=tableRow;horizontal=0;startSize=0;swimlaneHead=0;swimlaneBody=0;fillColor=none;collapsible=0;dropTarget=0;points=[[0,0.5],[1,0.5]];portConstraint=eastwest;top=0;left=0;right=0;bottom=0;fontSize=20;fontStyle=1;whiteSpace=wrap;strokeWidth=2;" parent="-RAdWuRQX7kpM0FOr2N4-51" vertex="1">
          <mxGeometry y="150" width="524" height="30" as="geometry" />
        </mxCell>
        <mxCell id="-RAdWuRQX7kpM0FOr2N4-110" style="shape=partialRectangle;connectable=0;fillColor=none;top=0;left=0;bottom=0;right=0;editable=1;overflow=hidden;whiteSpace=wrap;fontSize=20;fontStyle=1;strokeWidth=2;" parent="-RAdWuRQX7kpM0FOr2N4-109" vertex="1">
          <mxGeometry width="30" height="30" as="geometry">
            <mxRectangle width="30" height="30" as="alternateBounds" />
          </mxGeometry>
        </mxCell>
        <mxCell id="-RAdWuRQX7kpM0FOr2N4-111" style="shape=partialRectangle;connectable=0;fillColor=none;top=0;left=0;bottom=0;right=0;align=left;spacingLeft=6;overflow=hidden;whiteSpace=wrap;fontSize=20;fontStyle=1;strokeWidth=2;" parent="-RAdWuRQX7kpM0FOr2N4-109" vertex="1">
          <mxGeometry x="30" width="494" height="30" as="geometry">
            <mxRectangle width="494" height="30" as="alternateBounds" />
          </mxGeometry>
        </mxCell>
        <mxCell id="Ffluy86TxCfnXTcbzehv-22" style="edgeStyle=orthogonalEdgeStyle;rounded=1;orthogonalLoop=1;jettySize=auto;html=1;entryX=0;entryY=0.5;entryDx=0;entryDy=0;endArrow=none;endFill=0;strokeWidth=2;fontSize=20;fontStyle=1;curved=0;" edge="1" parent="1" source="-RAdWuRQX7kpM0FOr2N4-64" target="Ffluy86TxCfnXTcbzehv-17">
          <mxGeometry relative="1" as="geometry" />
        </mxCell>
        <mxCell id="-RAdWuRQX7kpM0FOr2N4-64" value="department_complaint_handler" style="shape=table;startSize=30;container=1;collapsible=1;childLayout=tableLayout;fixedRows=1;rowLines=0;fontStyle=1;align=center;resizeLast=1;fontSize=20;whiteSpace=wrap;strokeWidth=2;" parent="1" vertex="1">
          <mxGeometry x="380" y="266" width="356" height="120" as="geometry" />
        </mxCell>
        <mxCell id="-RAdWuRQX7kpM0FOr2N4-65" value="" style="shape=tableRow;horizontal=0;startSize=0;swimlaneHead=0;swimlaneBody=0;fillColor=none;collapsible=0;dropTarget=0;points=[[0,0.5],[1,0.5]];portConstraint=eastwest;top=0;left=0;right=0;bottom=1;fontSize=20;fontStyle=1;whiteSpace=wrap;strokeWidth=2;" parent="-RAdWuRQX7kpM0FOr2N4-64" vertex="1">
          <mxGeometry y="30" width="356" height="30" as="geometry" />
        </mxCell>
        <mxCell id="-RAdWuRQX7kpM0FOr2N4-66" value="PK" style="shape=partialRectangle;connectable=0;fillColor=none;top=0;left=0;bottom=0;right=0;fontStyle=1;overflow=hidden;whiteSpace=wrap;fontSize=20;strokeWidth=2;" parent="-RAdWuRQX7kpM0FOr2N4-65" vertex="1">
          <mxGeometry width="30" height="30" as="geometry">
            <mxRectangle width="30" height="30" as="alternateBounds" />
          </mxGeometry>
        </mxCell>
        <mxCell id="-RAdWuRQX7kpM0FOr2N4-67" value="handler _id" style="shape=partialRectangle;connectable=0;fillColor=none;top=0;left=0;bottom=0;right=0;align=left;spacingLeft=6;fontStyle=1;overflow=hidden;whiteSpace=wrap;fontSize=20;strokeWidth=2;" parent="-RAdWuRQX7kpM0FOr2N4-65" vertex="1">
          <mxGeometry x="30" width="326" height="30" as="geometry">
            <mxRectangle width="326" height="30" as="alternateBounds" />
          </mxGeometry>
        </mxCell>
        <mxCell id="-RAdWuRQX7kpM0FOr2N4-71" value="" style="shape=tableRow;horizontal=0;startSize=0;swimlaneHead=0;swimlaneBody=0;fillColor=none;collapsible=0;dropTarget=0;points=[[0,0.5],[1,0.5]];portConstraint=eastwest;top=0;left=0;right=0;bottom=0;fontSize=20;fontStyle=1;whiteSpace=wrap;strokeWidth=2;" parent="-RAdWuRQX7kpM0FOr2N4-64" vertex="1">
          <mxGeometry y="60" width="356" height="30" as="geometry" />
        </mxCell>
        <mxCell id="-RAdWuRQX7kpM0FOr2N4-72" value="FK" style="shape=partialRectangle;connectable=0;fillColor=none;top=0;left=0;bottom=0;right=0;editable=1;overflow=hidden;whiteSpace=wrap;fontSize=20;fontStyle=1;strokeWidth=2;" parent="-RAdWuRQX7kpM0FOr2N4-71" vertex="1">
          <mxGeometry width="30" height="30" as="geometry">
            <mxRectangle width="30" height="30" as="alternateBounds" />
          </mxGeometry>
        </mxCell>
        <mxCell id="-RAdWuRQX7kpM0FOr2N4-73" value="department_id" style="shape=partialRectangle;connectable=0;fillColor=none;top=0;left=0;bottom=0;right=0;align=left;spacingLeft=6;overflow=hidden;whiteSpace=wrap;fontSize=20;fontStyle=1;strokeWidth=2;" parent="-RAdWuRQX7kpM0FOr2N4-71" vertex="1">
          <mxGeometry x="30" width="326" height="30" as="geometry">
            <mxRectangle width="326" height="30" as="alternateBounds" />
          </mxGeometry>
        </mxCell>
        <mxCell id="-RAdWuRQX7kpM0FOr2N4-74" style="shape=tableRow;horizontal=0;startSize=0;swimlaneHead=0;swimlaneBody=0;fillColor=none;collapsible=0;dropTarget=0;points=[[0,0.5],[1,0.5]];portConstraint=eastwest;top=0;left=0;right=0;bottom=0;fontSize=20;fontStyle=1;whiteSpace=wrap;strokeWidth=2;" parent="-RAdWuRQX7kpM0FOr2N4-64" vertex="1">
          <mxGeometry y="90" width="356" height="30" as="geometry" />
        </mxCell>
        <mxCell id="-RAdWuRQX7kpM0FOr2N4-75" style="shape=partialRectangle;connectable=0;fillColor=none;top=0;left=0;bottom=0;right=0;editable=1;overflow=hidden;whiteSpace=wrap;fontSize=20;fontStyle=1;strokeWidth=2;" parent="-RAdWuRQX7kpM0FOr2N4-74" vertex="1">
          <mxGeometry width="30" height="30" as="geometry">
            <mxRectangle width="30" height="30" as="alternateBounds" />
          </mxGeometry>
        </mxCell>
        <mxCell id="-RAdWuRQX7kpM0FOr2N4-76" value="" style="shape=partialRectangle;connectable=0;fillColor=none;top=0;left=0;bottom=0;right=0;align=left;spacingLeft=6;overflow=hidden;whiteSpace=wrap;fontSize=20;fontStyle=1;strokeWidth=2;" parent="-RAdWuRQX7kpM0FOr2N4-74" vertex="1">
          <mxGeometry x="30" width="326" height="30" as="geometry">
            <mxRectangle width="326" height="30" as="alternateBounds" />
          </mxGeometry>
        </mxCell>
        <mxCell id="Ffluy86TxCfnXTcbzehv-55" style="edgeStyle=orthogonalEdgeStyle;rounded=1;orthogonalLoop=1;jettySize=auto;html=1;entryX=0;entryY=0.5;entryDx=0;entryDy=0;endArrow=none;endFill=0;strokeWidth=2;curved=0;" edge="1" parent="1" source="-RAdWuRQX7kpM0FOr2N4-77" target="Ffluy86TxCfnXTcbzehv-54">
          <mxGeometry relative="1" as="geometry" />
        </mxCell>
        <mxCell id="-RAdWuRQX7kpM0FOr2N4-77" value="event_calendar" style="shape=table;startSize=30;container=1;collapsible=1;childLayout=tableLayout;fixedRows=1;rowLines=0;fontStyle=1;align=center;resizeLast=1;fontSize=20;whiteSpace=wrap;strokeWidth=2;" parent="1" vertex="1">
          <mxGeometry x="170" y="1395" width="252" height="150" as="geometry" />
        </mxCell>
        <mxCell id="-RAdWuRQX7kpM0FOr2N4-78" value="" style="shape=tableRow;horizontal=0;startSize=0;swimlaneHead=0;swimlaneBody=0;fillColor=none;collapsible=0;dropTarget=0;points=[[0,0.5],[1,0.5]];portConstraint=eastwest;top=0;left=0;right=0;bottom=1;fontSize=20;fontStyle=1;whiteSpace=wrap;strokeWidth=2;" parent="-RAdWuRQX7kpM0FOr2N4-77" vertex="1">
          <mxGeometry y="30" width="252" height="30" as="geometry" />
        </mxCell>
        <mxCell id="-RAdWuRQX7kpM0FOr2N4-79" value="PK" style="shape=partialRectangle;connectable=0;fillColor=none;top=0;left=0;bottom=0;right=0;fontStyle=1;overflow=hidden;whiteSpace=wrap;fontSize=20;strokeWidth=2;" parent="-RAdWuRQX7kpM0FOr2N4-78" vertex="1">
          <mxGeometry width="30" height="30" as="geometry">
            <mxRectangle width="30" height="30" as="alternateBounds" />
          </mxGeometry>
        </mxCell>
        <mxCell id="-RAdWuRQX7kpM0FOr2N4-80" value="calendar_id" style="shape=partialRectangle;connectable=0;fillColor=none;top=0;left=0;bottom=0;right=0;align=left;spacingLeft=6;fontStyle=1;overflow=hidden;whiteSpace=wrap;fontSize=20;strokeWidth=2;" parent="-RAdWuRQX7kpM0FOr2N4-78" vertex="1">
          <mxGeometry x="30" width="222" height="30" as="geometry">
            <mxRectangle width="222" height="30" as="alternateBounds" />
          </mxGeometry>
        </mxCell>
        <mxCell id="-RAdWuRQX7kpM0FOr2N4-81" value="" style="shape=tableRow;horizontal=0;startSize=0;swimlaneHead=0;swimlaneBody=0;fillColor=none;collapsible=0;dropTarget=0;points=[[0,0.5],[1,0.5]];portConstraint=eastwest;top=0;left=0;right=0;bottom=0;fontSize=20;fontStyle=1;whiteSpace=wrap;strokeWidth=2;" parent="-RAdWuRQX7kpM0FOr2N4-77" vertex="1">
          <mxGeometry y="60" width="252" height="30" as="geometry" />
        </mxCell>
        <mxCell id="-RAdWuRQX7kpM0FOr2N4-82" value="FK" style="shape=partialRectangle;connectable=0;fillColor=none;top=0;left=0;bottom=0;right=0;editable=1;overflow=hidden;whiteSpace=wrap;fontSize=20;fontStyle=1;strokeWidth=2;" parent="-RAdWuRQX7kpM0FOr2N4-81" vertex="1">
          <mxGeometry width="30" height="30" as="geometry">
            <mxRectangle width="30" height="30" as="alternateBounds" />
          </mxGeometry>
        </mxCell>
        <mxCell id="-RAdWuRQX7kpM0FOr2N4-83" value="event_id" style="shape=partialRectangle;connectable=0;fillColor=none;top=0;left=0;bottom=0;right=0;align=left;spacingLeft=6;overflow=hidden;whiteSpace=wrap;fontSize=20;fontStyle=1;strokeWidth=2;" parent="-RAdWuRQX7kpM0FOr2N4-81" vertex="1">
          <mxGeometry x="30" width="222" height="30" as="geometry">
            <mxRectangle width="222" height="30" as="alternateBounds" />
          </mxGeometry>
        </mxCell>
        <mxCell id="-RAdWuRQX7kpM0FOr2N4-84" value="" style="shape=tableRow;horizontal=0;startSize=0;swimlaneHead=0;swimlaneBody=0;fillColor=none;collapsible=0;dropTarget=0;points=[[0,0.5],[1,0.5]];portConstraint=eastwest;top=0;left=0;right=0;bottom=0;fontSize=20;fontStyle=1;whiteSpace=wrap;strokeWidth=2;" parent="-RAdWuRQX7kpM0FOr2N4-77" vertex="1">
          <mxGeometry y="90" width="252" height="30" as="geometry" />
        </mxCell>
        <mxCell id="-RAdWuRQX7kpM0FOr2N4-85" value="FK" style="shape=partialRectangle;connectable=0;fillColor=none;top=0;left=0;bottom=0;right=0;editable=1;overflow=hidden;whiteSpace=wrap;fontSize=20;fontStyle=1;strokeWidth=2;" parent="-RAdWuRQX7kpM0FOr2N4-84" vertex="1">
          <mxGeometry width="30" height="30" as="geometry">
            <mxRectangle width="30" height="30" as="alternateBounds" />
          </mxGeometry>
        </mxCell>
        <mxCell id="-RAdWuRQX7kpM0FOr2N4-86" value="representative_id" style="shape=partialRectangle;connectable=0;fillColor=none;top=0;left=0;bottom=0;right=0;align=left;spacingLeft=6;overflow=hidden;whiteSpace=wrap;fontSize=20;fontStyle=1;strokeWidth=2;" parent="-RAdWuRQX7kpM0FOr2N4-84" vertex="1">
          <mxGeometry x="30" width="222" height="30" as="geometry">
            <mxRectangle width="222" height="30" as="alternateBounds" />
          </mxGeometry>
        </mxCell>
        <mxCell id="-RAdWuRQX7kpM0FOr2N4-87" style="shape=tableRow;horizontal=0;startSize=0;swimlaneHead=0;swimlaneBody=0;fillColor=none;collapsible=0;dropTarget=0;points=[[0,0.5],[1,0.5]];portConstraint=eastwest;top=0;left=0;right=0;bottom=0;fontSize=20;fontStyle=1;whiteSpace=wrap;strokeWidth=2;" parent="-RAdWuRQX7kpM0FOr2N4-77" vertex="1">
          <mxGeometry y="120" width="252" height="30" as="geometry" />
        </mxCell>
        <mxCell id="-RAdWuRQX7kpM0FOr2N4-88" style="shape=partialRectangle;connectable=0;fillColor=none;top=0;left=0;bottom=0;right=0;editable=1;overflow=hidden;whiteSpace=wrap;fontSize=20;fontStyle=1;strokeWidth=2;" parent="-RAdWuRQX7kpM0FOr2N4-87" vertex="1">
          <mxGeometry width="30" height="30" as="geometry">
            <mxRectangle width="30" height="30" as="alternateBounds" />
          </mxGeometry>
        </mxCell>
        <mxCell id="-RAdWuRQX7kpM0FOr2N4-89" value="" style="shape=partialRectangle;connectable=0;fillColor=none;top=0;left=0;bottom=0;right=0;align=left;spacingLeft=6;overflow=hidden;whiteSpace=wrap;fontSize=20;fontStyle=1;strokeWidth=2;" parent="-RAdWuRQX7kpM0FOr2N4-87" vertex="1">
          <mxGeometry x="30" width="222" height="30" as="geometry">
            <mxRectangle width="222" height="30" as="alternateBounds" />
          </mxGeometry>
        </mxCell>
        <mxCell id="-RAdWuRQX7kpM0FOr2N4-90" value="virtual_meetup" style="shape=table;startSize=30;container=1;collapsible=1;childLayout=tableLayout;fixedRows=1;rowLines=0;fontStyle=1;align=center;resizeLast=1;fontSize=20;whiteSpace=wrap;strokeWidth=2;" parent="1" vertex="1">
          <mxGeometry x="853" y="1720" width="252" height="180" as="geometry" />
        </mxCell>
        <mxCell id="-RAdWuRQX7kpM0FOr2N4-91" value="" style="shape=tableRow;horizontal=0;startSize=0;swimlaneHead=0;swimlaneBody=0;fillColor=none;collapsible=0;dropTarget=0;points=[[0,0.5],[1,0.5]];portConstraint=eastwest;top=0;left=0;right=0;bottom=1;fontSize=20;fontStyle=1;whiteSpace=wrap;strokeWidth=2;" parent="-RAdWuRQX7kpM0FOr2N4-90" vertex="1">
          <mxGeometry y="30" width="252" height="30" as="geometry" />
        </mxCell>
        <mxCell id="-RAdWuRQX7kpM0FOr2N4-92" value="PK" style="shape=partialRectangle;connectable=0;fillColor=none;top=0;left=0;bottom=0;right=0;fontStyle=1;overflow=hidden;whiteSpace=wrap;fontSize=20;strokeWidth=2;" parent="-RAdWuRQX7kpM0FOr2N4-91" vertex="1">
          <mxGeometry width="30" height="30" as="geometry">
            <mxRectangle width="30" height="30" as="alternateBounds" />
          </mxGeometry>
        </mxCell>
        <mxCell id="-RAdWuRQX7kpM0FOr2N4-93" value="meetup_id" style="shape=partialRectangle;connectable=0;fillColor=none;top=0;left=0;bottom=0;right=0;align=left;spacingLeft=6;fontStyle=1;overflow=hidden;whiteSpace=wrap;fontSize=20;strokeWidth=2;" parent="-RAdWuRQX7kpM0FOr2N4-91" vertex="1">
          <mxGeometry x="30" width="222" height="30" as="geometry">
            <mxRectangle width="222" height="30" as="alternateBounds" />
          </mxGeometry>
        </mxCell>
        <mxCell id="-RAdWuRQX7kpM0FOr2N4-94" value="" style="shape=tableRow;horizontal=0;startSize=0;swimlaneHead=0;swimlaneBody=0;fillColor=none;collapsible=0;dropTarget=0;points=[[0,0.5],[1,0.5]];portConstraint=eastwest;top=0;left=0;right=0;bottom=0;fontSize=20;fontStyle=1;whiteSpace=wrap;strokeWidth=2;" parent="-RAdWuRQX7kpM0FOr2N4-90" vertex="1">
          <mxGeometry y="60" width="252" height="30" as="geometry" />
        </mxCell>
        <mxCell id="-RAdWuRQX7kpM0FOr2N4-95" value="FK" style="shape=partialRectangle;connectable=0;fillColor=none;top=0;left=0;bottom=0;right=0;editable=1;overflow=hidden;whiteSpace=wrap;fontSize=20;fontStyle=1;strokeWidth=2;" parent="-RAdWuRQX7kpM0FOr2N4-94" vertex="1">
          <mxGeometry width="30" height="30" as="geometry">
            <mxRectangle width="30" height="30" as="alternateBounds" />
          </mxGeometry>
        </mxCell>
        <mxCell id="-RAdWuRQX7kpM0FOr2N4-96" value="representative_id" style="shape=partialRectangle;connectable=0;fillColor=none;top=0;left=0;bottom=0;right=0;align=left;spacingLeft=6;overflow=hidden;whiteSpace=wrap;fontSize=20;fontStyle=1;strokeWidth=2;" parent="-RAdWuRQX7kpM0FOr2N4-94" vertex="1">
          <mxGeometry x="30" width="222" height="30" as="geometry">
            <mxRectangle width="222" height="30" as="alternateBounds" />
          </mxGeometry>
        </mxCell>
        <mxCell id="-RAdWuRQX7kpM0FOr2N4-97" value="" style="shape=tableRow;horizontal=0;startSize=0;swimlaneHead=0;swimlaneBody=0;fillColor=none;collapsible=0;dropTarget=0;points=[[0,0.5],[1,0.5]];portConstraint=eastwest;top=0;left=0;right=0;bottom=0;fontSize=20;fontStyle=1;whiteSpace=wrap;strokeWidth=2;" parent="-RAdWuRQX7kpM0FOr2N4-90" vertex="1">
          <mxGeometry y="90" width="252" height="30" as="geometry" />
        </mxCell>
        <mxCell id="-RAdWuRQX7kpM0FOr2N4-98" value="" style="shape=partialRectangle;connectable=0;fillColor=none;top=0;left=0;bottom=0;right=0;editable=1;overflow=hidden;whiteSpace=wrap;fontSize=20;fontStyle=1;strokeWidth=2;" parent="-RAdWuRQX7kpM0FOr2N4-97" vertex="1">
          <mxGeometry width="30" height="30" as="geometry">
            <mxRectangle width="30" height="30" as="alternateBounds" />
          </mxGeometry>
        </mxCell>
        <mxCell id="-RAdWuRQX7kpM0FOr2N4-99" value="start_time" style="shape=partialRectangle;connectable=0;fillColor=none;top=0;left=0;bottom=0;right=0;align=left;spacingLeft=6;overflow=hidden;whiteSpace=wrap;fontSize=20;fontStyle=1;strokeWidth=2;" parent="-RAdWuRQX7kpM0FOr2N4-97" vertex="1">
          <mxGeometry x="30" width="222" height="30" as="geometry">
            <mxRectangle width="222" height="30" as="alternateBounds" />
          </mxGeometry>
        </mxCell>
        <mxCell id="-RAdWuRQX7kpM0FOr2N4-103" style="shape=tableRow;horizontal=0;startSize=0;swimlaneHead=0;swimlaneBody=0;fillColor=none;collapsible=0;dropTarget=0;points=[[0,0.5],[1,0.5]];portConstraint=eastwest;top=0;left=0;right=0;bottom=0;fontSize=20;fontStyle=1;whiteSpace=wrap;strokeWidth=2;" parent="-RAdWuRQX7kpM0FOr2N4-90" vertex="1">
          <mxGeometry y="120" width="252" height="30" as="geometry" />
        </mxCell>
        <mxCell id="-RAdWuRQX7kpM0FOr2N4-104" style="shape=partialRectangle;connectable=0;fillColor=none;top=0;left=0;bottom=0;right=0;editable=1;overflow=hidden;whiteSpace=wrap;fontSize=20;fontStyle=1;strokeWidth=2;" parent="-RAdWuRQX7kpM0FOr2N4-103" vertex="1">
          <mxGeometry width="30" height="30" as="geometry">
            <mxRectangle width="30" height="30" as="alternateBounds" />
          </mxGeometry>
        </mxCell>
        <mxCell id="-RAdWuRQX7kpM0FOr2N4-105" value="end_time" style="shape=partialRectangle;connectable=0;fillColor=none;top=0;left=0;bottom=0;right=0;align=left;spacingLeft=6;overflow=hidden;whiteSpace=wrap;fontSize=20;fontStyle=1;strokeWidth=2;" parent="-RAdWuRQX7kpM0FOr2N4-103" vertex="1">
          <mxGeometry x="30" width="222" height="30" as="geometry">
            <mxRectangle width="222" height="30" as="alternateBounds" />
          </mxGeometry>
        </mxCell>
        <mxCell id="-RAdWuRQX7kpM0FOr2N4-100" style="shape=tableRow;horizontal=0;startSize=0;swimlaneHead=0;swimlaneBody=0;fillColor=none;collapsible=0;dropTarget=0;points=[[0,0.5],[1,0.5]];portConstraint=eastwest;top=0;left=0;right=0;bottom=0;fontSize=20;fontStyle=1;whiteSpace=wrap;strokeWidth=2;" parent="-RAdWuRQX7kpM0FOr2N4-90" vertex="1">
          <mxGeometry y="150" width="252" height="30" as="geometry" />
        </mxCell>
        <mxCell id="-RAdWuRQX7kpM0FOr2N4-101" style="shape=partialRectangle;connectable=0;fillColor=none;top=0;left=0;bottom=0;right=0;editable=1;overflow=hidden;whiteSpace=wrap;fontSize=20;fontStyle=1;strokeWidth=2;" parent="-RAdWuRQX7kpM0FOr2N4-100" vertex="1">
          <mxGeometry width="30" height="30" as="geometry">
            <mxRectangle width="30" height="30" as="alternateBounds" />
          </mxGeometry>
        </mxCell>
        <mxCell id="-RAdWuRQX7kpM0FOr2N4-102" value="meeting_link" style="shape=partialRectangle;connectable=0;fillColor=none;top=0;left=0;bottom=0;right=0;align=left;spacingLeft=6;overflow=hidden;whiteSpace=wrap;fontSize=20;fontStyle=1;strokeWidth=2;" parent="-RAdWuRQX7kpM0FOr2N4-100" vertex="1">
          <mxGeometry x="30" width="222" height="30" as="geometry">
            <mxRectangle width="222" height="30" as="alternateBounds" />
          </mxGeometry>
        </mxCell>
        <mxCell id="Ffluy86TxCfnXTcbzehv-124" style="edgeStyle=orthogonalEdgeStyle;rounded=1;orthogonalLoop=1;jettySize=auto;html=1;entryX=0;entryY=0.5;entryDx=0;entryDy=0;strokeWidth=2;endArrow=none;endFill=0;exitX=1;exitY=0.5;exitDx=0;exitDy=0;curved=0;" edge="1" parent="1" source="-RAdWuRQX7kpM0FOr2N4-125" target="Ffluy86TxCfnXTcbzehv-123">
          <mxGeometry relative="1" as="geometry">
            <mxPoint x="521" y="2001" as="sourcePoint" />
            <Array as="points">
              <mxPoint x="627" y="2053" />
              <mxPoint x="627" y="2053" />
            </Array>
          </mxGeometry>
        </mxCell>
        <mxCell id="-RAdWuRQX7kpM0FOr2N4-112" value="survey" style="shape=table;startSize=30;container=1;collapsible=1;childLayout=tableLayout;fixedRows=1;rowLines=0;fontStyle=1;align=center;resizeLast=1;fontSize=20;whiteSpace=wrap;strokeWidth=2;" parent="1" vertex="1">
          <mxGeometry x="164" y="1858" width="252" height="210" as="geometry" />
        </mxCell>
        <mxCell id="-RAdWuRQX7kpM0FOr2N4-113" value="" style="shape=tableRow;horizontal=0;startSize=0;swimlaneHead=0;swimlaneBody=0;fillColor=none;collapsible=0;dropTarget=0;points=[[0,0.5],[1,0.5]];portConstraint=eastwest;top=0;left=0;right=0;bottom=1;fontSize=20;fontStyle=1;whiteSpace=wrap;strokeWidth=2;" parent="-RAdWuRQX7kpM0FOr2N4-112" vertex="1">
          <mxGeometry y="30" width="252" height="30" as="geometry" />
        </mxCell>
        <mxCell id="-RAdWuRQX7kpM0FOr2N4-114" value="PK" style="shape=partialRectangle;connectable=0;fillColor=none;top=0;left=0;bottom=0;right=0;fontStyle=1;overflow=hidden;whiteSpace=wrap;fontSize=20;strokeWidth=2;" parent="-RAdWuRQX7kpM0FOr2N4-113" vertex="1">
          <mxGeometry width="30" height="30" as="geometry">
            <mxRectangle width="30" height="30" as="alternateBounds" />
          </mxGeometry>
        </mxCell>
        <mxCell id="-RAdWuRQX7kpM0FOr2N4-115" value="survey_id" style="shape=partialRectangle;connectable=0;fillColor=none;top=0;left=0;bottom=0;right=0;align=left;spacingLeft=6;fontStyle=1;overflow=hidden;whiteSpace=wrap;fontSize=20;strokeWidth=2;" parent="-RAdWuRQX7kpM0FOr2N4-113" vertex="1">
          <mxGeometry x="30" width="222" height="30" as="geometry">
            <mxRectangle width="222" height="30" as="alternateBounds" />
          </mxGeometry>
        </mxCell>
        <mxCell id="-RAdWuRQX7kpM0FOr2N4-128" style="shape=tableRow;horizontal=0;startSize=0;swimlaneHead=0;swimlaneBody=0;fillColor=none;collapsible=0;dropTarget=0;points=[[0,0.5],[1,0.5]];portConstraint=eastwest;top=0;left=0;right=0;bottom=0;fontSize=20;fontStyle=1;whiteSpace=wrap;strokeWidth=2;" parent="-RAdWuRQX7kpM0FOr2N4-112" vertex="1">
          <mxGeometry y="60" width="252" height="30" as="geometry" />
        </mxCell>
        <mxCell id="-RAdWuRQX7kpM0FOr2N4-129" value="FK" style="shape=partialRectangle;connectable=0;fillColor=none;top=0;left=0;bottom=0;right=0;editable=1;overflow=hidden;whiteSpace=wrap;fontSize=20;fontStyle=1;strokeWidth=2;" parent="-RAdWuRQX7kpM0FOr2N4-128" vertex="1">
          <mxGeometry width="30" height="30" as="geometry">
            <mxRectangle width="30" height="30" as="alternateBounds" />
          </mxGeometry>
        </mxCell>
        <mxCell id="-RAdWuRQX7kpM0FOr2N4-130" value="representative_id" style="shape=partialRectangle;connectable=0;fillColor=none;top=0;left=0;bottom=0;right=0;align=left;spacingLeft=6;overflow=hidden;whiteSpace=wrap;fontSize=20;fontStyle=1;strokeWidth=2;" parent="-RAdWuRQX7kpM0FOr2N4-128" vertex="1">
          <mxGeometry x="30" width="222" height="30" as="geometry">
            <mxRectangle width="222" height="30" as="alternateBounds" />
          </mxGeometry>
        </mxCell>
        <mxCell id="-RAdWuRQX7kpM0FOr2N4-116" value="" style="shape=tableRow;horizontal=0;startSize=0;swimlaneHead=0;swimlaneBody=0;fillColor=none;collapsible=0;dropTarget=0;points=[[0,0.5],[1,0.5]];portConstraint=eastwest;top=0;left=0;right=0;bottom=0;fontSize=20;fontStyle=1;whiteSpace=wrap;strokeWidth=2;" parent="-RAdWuRQX7kpM0FOr2N4-112" vertex="1">
          <mxGeometry y="90" width="252" height="30" as="geometry" />
        </mxCell>
        <mxCell id="-RAdWuRQX7kpM0FOr2N4-117" value="" style="shape=partialRectangle;connectable=0;fillColor=none;top=0;left=0;bottom=0;right=0;editable=1;overflow=hidden;whiteSpace=wrap;fontSize=20;fontStyle=1;strokeWidth=2;" parent="-RAdWuRQX7kpM0FOr2N4-116" vertex="1">
          <mxGeometry width="30" height="30" as="geometry">
            <mxRectangle width="30" height="30" as="alternateBounds" />
          </mxGeometry>
        </mxCell>
        <mxCell id="-RAdWuRQX7kpM0FOr2N4-118" value="title" style="shape=partialRectangle;connectable=0;fillColor=none;top=0;left=0;bottom=0;right=0;align=left;spacingLeft=6;overflow=hidden;whiteSpace=wrap;fontSize=20;fontStyle=1;strokeWidth=2;" parent="-RAdWuRQX7kpM0FOr2N4-116" vertex="1">
          <mxGeometry x="30" width="222" height="30" as="geometry">
            <mxRectangle width="222" height="30" as="alternateBounds" />
          </mxGeometry>
        </mxCell>
        <mxCell id="-RAdWuRQX7kpM0FOr2N4-119" value="" style="shape=tableRow;horizontal=0;startSize=0;swimlaneHead=0;swimlaneBody=0;fillColor=none;collapsible=0;dropTarget=0;points=[[0,0.5],[1,0.5]];portConstraint=eastwest;top=0;left=0;right=0;bottom=0;fontSize=20;fontStyle=1;whiteSpace=wrap;strokeWidth=2;" parent="-RAdWuRQX7kpM0FOr2N4-112" vertex="1">
          <mxGeometry y="120" width="252" height="30" as="geometry" />
        </mxCell>
        <mxCell id="-RAdWuRQX7kpM0FOr2N4-120" value="" style="shape=partialRectangle;connectable=0;fillColor=none;top=0;left=0;bottom=0;right=0;editable=1;overflow=hidden;whiteSpace=wrap;fontSize=20;fontStyle=1;strokeWidth=2;" parent="-RAdWuRQX7kpM0FOr2N4-119" vertex="1">
          <mxGeometry width="30" height="30" as="geometry">
            <mxRectangle width="30" height="30" as="alternateBounds" />
          </mxGeometry>
        </mxCell>
        <mxCell id="-RAdWuRQX7kpM0FOr2N4-121" value="description" style="shape=partialRectangle;connectable=0;fillColor=none;top=0;left=0;bottom=0;right=0;align=left;spacingLeft=6;overflow=hidden;whiteSpace=wrap;fontSize=20;fontStyle=1;strokeWidth=2;" parent="-RAdWuRQX7kpM0FOr2N4-119" vertex="1">
          <mxGeometry x="30" width="222" height="30" as="geometry">
            <mxRectangle width="222" height="30" as="alternateBounds" />
          </mxGeometry>
        </mxCell>
        <mxCell id="-RAdWuRQX7kpM0FOr2N4-122" style="shape=tableRow;horizontal=0;startSize=0;swimlaneHead=0;swimlaneBody=0;fillColor=none;collapsible=0;dropTarget=0;points=[[0,0.5],[1,0.5]];portConstraint=eastwest;top=0;left=0;right=0;bottom=0;fontSize=20;fontStyle=1;whiteSpace=wrap;strokeWidth=2;" parent="-RAdWuRQX7kpM0FOr2N4-112" vertex="1">
          <mxGeometry y="150" width="252" height="30" as="geometry" />
        </mxCell>
        <mxCell id="-RAdWuRQX7kpM0FOr2N4-123" style="shape=partialRectangle;connectable=0;fillColor=none;top=0;left=0;bottom=0;right=0;editable=1;overflow=hidden;whiteSpace=wrap;fontSize=20;fontStyle=1;strokeWidth=2;" parent="-RAdWuRQX7kpM0FOr2N4-122" vertex="1">
          <mxGeometry width="30" height="30" as="geometry">
            <mxRectangle width="30" height="30" as="alternateBounds" />
          </mxGeometry>
        </mxCell>
        <mxCell id="-RAdWuRQX7kpM0FOr2N4-124" value="creation_date" style="shape=partialRectangle;connectable=0;fillColor=none;top=0;left=0;bottom=0;right=0;align=left;spacingLeft=6;overflow=hidden;whiteSpace=wrap;fontSize=20;fontStyle=1;strokeWidth=2;" parent="-RAdWuRQX7kpM0FOr2N4-122" vertex="1">
          <mxGeometry x="30" width="222" height="30" as="geometry">
            <mxRectangle width="222" height="30" as="alternateBounds" />
          </mxGeometry>
        </mxCell>
        <mxCell id="-RAdWuRQX7kpM0FOr2N4-125" style="shape=tableRow;horizontal=0;startSize=0;swimlaneHead=0;swimlaneBody=0;fillColor=none;collapsible=0;dropTarget=0;points=[[0,0.5],[1,0.5]];portConstraint=eastwest;top=0;left=0;right=0;bottom=0;fontSize=20;fontStyle=1;whiteSpace=wrap;strokeWidth=2;" parent="-RAdWuRQX7kpM0FOr2N4-112" vertex="1">
          <mxGeometry y="180" width="252" height="30" as="geometry" />
        </mxCell>
        <mxCell id="-RAdWuRQX7kpM0FOr2N4-126" style="shape=partialRectangle;connectable=0;fillColor=none;top=0;left=0;bottom=0;right=0;editable=1;overflow=hidden;whiteSpace=wrap;fontSize=20;fontStyle=1;strokeWidth=2;" parent="-RAdWuRQX7kpM0FOr2N4-125" vertex="1">
          <mxGeometry width="30" height="30" as="geometry">
            <mxRectangle width="30" height="30" as="alternateBounds" />
          </mxGeometry>
        </mxCell>
        <mxCell id="-RAdWuRQX7kpM0FOr2N4-127" value="" style="shape=partialRectangle;connectable=0;fillColor=none;top=0;left=0;bottom=0;right=0;align=left;spacingLeft=6;overflow=hidden;whiteSpace=wrap;fontSize=20;fontStyle=1;strokeWidth=2;" parent="-RAdWuRQX7kpM0FOr2N4-125" vertex="1">
          <mxGeometry x="30" width="222" height="30" as="geometry">
            <mxRectangle width="222" height="30" as="alternateBounds" />
          </mxGeometry>
        </mxCell>
        <mxCell id="-RAdWuRQX7kpM0FOr2N4-150" value="awareness_campaign" style="shape=table;startSize=30;container=1;collapsible=1;childLayout=tableLayout;fixedRows=1;rowLines=0;fontStyle=1;align=center;resizeLast=1;fontSize=20;whiteSpace=wrap;strokeWidth=2;" parent="1" vertex="1">
          <mxGeometry x="199" y="2115" width="252" height="180" as="geometry" />
        </mxCell>
        <mxCell id="-RAdWuRQX7kpM0FOr2N4-151" value="" style="shape=tableRow;horizontal=0;startSize=0;swimlaneHead=0;swimlaneBody=0;fillColor=none;collapsible=0;dropTarget=0;points=[[0,0.5],[1,0.5]];portConstraint=eastwest;top=0;left=0;right=0;bottom=1;fontSize=20;fontStyle=1;whiteSpace=wrap;strokeWidth=2;" parent="-RAdWuRQX7kpM0FOr2N4-150" vertex="1">
          <mxGeometry y="30" width="252" height="30" as="geometry" />
        </mxCell>
        <mxCell id="-RAdWuRQX7kpM0FOr2N4-152" value="PK" style="shape=partialRectangle;connectable=0;fillColor=none;top=0;left=0;bottom=0;right=0;fontStyle=1;overflow=hidden;whiteSpace=wrap;fontSize=20;strokeWidth=2;" parent="-RAdWuRQX7kpM0FOr2N4-151" vertex="1">
          <mxGeometry width="30" height="30" as="geometry">
            <mxRectangle width="30" height="30" as="alternateBounds" />
          </mxGeometry>
        </mxCell>
        <mxCell id="-RAdWuRQX7kpM0FOr2N4-153" value="campaign_id" style="shape=partialRectangle;connectable=0;fillColor=none;top=0;left=0;bottom=0;right=0;align=left;spacingLeft=6;fontStyle=1;overflow=hidden;whiteSpace=wrap;fontSize=20;strokeWidth=2;" parent="-RAdWuRQX7kpM0FOr2N4-151" vertex="1">
          <mxGeometry x="30" width="222" height="30" as="geometry">
            <mxRectangle width="222" height="30" as="alternateBounds" />
          </mxGeometry>
        </mxCell>
        <mxCell id="-RAdWuRQX7kpM0FOr2N4-154" style="shape=tableRow;horizontal=0;startSize=0;swimlaneHead=0;swimlaneBody=0;fillColor=none;collapsible=0;dropTarget=0;points=[[0,0.5],[1,0.5]];portConstraint=eastwest;top=0;left=0;right=0;bottom=0;fontSize=20;fontStyle=1;whiteSpace=wrap;strokeWidth=2;" parent="-RAdWuRQX7kpM0FOr2N4-150" vertex="1">
          <mxGeometry y="60" width="252" height="30" as="geometry" />
        </mxCell>
        <mxCell id="-RAdWuRQX7kpM0FOr2N4-155" value="FK" style="shape=partialRectangle;connectable=0;fillColor=none;top=0;left=0;bottom=0;right=0;editable=1;overflow=hidden;whiteSpace=wrap;fontSize=20;fontStyle=1;strokeWidth=2;" parent="-RAdWuRQX7kpM0FOr2N4-154" vertex="1">
          <mxGeometry width="30" height="30" as="geometry">
            <mxRectangle width="30" height="30" as="alternateBounds" />
          </mxGeometry>
        </mxCell>
        <mxCell id="-RAdWuRQX7kpM0FOr2N4-156" value="representative_id" style="shape=partialRectangle;connectable=0;fillColor=none;top=0;left=0;bottom=0;right=0;align=left;spacingLeft=6;overflow=hidden;whiteSpace=wrap;fontSize=20;fontStyle=1;strokeWidth=2;" parent="-RAdWuRQX7kpM0FOr2N4-154" vertex="1">
          <mxGeometry x="30" width="222" height="30" as="geometry">
            <mxRectangle width="222" height="30" as="alternateBounds" />
          </mxGeometry>
        </mxCell>
        <mxCell id="-RAdWuRQX7kpM0FOr2N4-157" value="" style="shape=tableRow;horizontal=0;startSize=0;swimlaneHead=0;swimlaneBody=0;fillColor=none;collapsible=0;dropTarget=0;points=[[0,0.5],[1,0.5]];portConstraint=eastwest;top=0;left=0;right=0;bottom=0;fontSize=20;fontStyle=1;whiteSpace=wrap;strokeWidth=2;" parent="-RAdWuRQX7kpM0FOr2N4-150" vertex="1">
          <mxGeometry y="90" width="252" height="30" as="geometry" />
        </mxCell>
        <mxCell id="-RAdWuRQX7kpM0FOr2N4-158" value="" style="shape=partialRectangle;connectable=0;fillColor=none;top=0;left=0;bottom=0;right=0;editable=1;overflow=hidden;whiteSpace=wrap;fontSize=20;fontStyle=1;strokeWidth=2;" parent="-RAdWuRQX7kpM0FOr2N4-157" vertex="1">
          <mxGeometry width="30" height="30" as="geometry">
            <mxRectangle width="30" height="30" as="alternateBounds" />
          </mxGeometry>
        </mxCell>
        <mxCell id="-RAdWuRQX7kpM0FOr2N4-159" value="title" style="shape=partialRectangle;connectable=0;fillColor=none;top=0;left=0;bottom=0;right=0;align=left;spacingLeft=6;overflow=hidden;whiteSpace=wrap;fontSize=20;fontStyle=1;strokeWidth=2;" parent="-RAdWuRQX7kpM0FOr2N4-157" vertex="1">
          <mxGeometry x="30" width="222" height="30" as="geometry">
            <mxRectangle width="222" height="30" as="alternateBounds" />
          </mxGeometry>
        </mxCell>
        <mxCell id="-RAdWuRQX7kpM0FOr2N4-160" value="" style="shape=tableRow;horizontal=0;startSize=0;swimlaneHead=0;swimlaneBody=0;fillColor=none;collapsible=0;dropTarget=0;points=[[0,0.5],[1,0.5]];portConstraint=eastwest;top=0;left=0;right=0;bottom=0;fontSize=20;fontStyle=1;whiteSpace=wrap;strokeWidth=2;" parent="-RAdWuRQX7kpM0FOr2N4-150" vertex="1">
          <mxGeometry y="120" width="252" height="30" as="geometry" />
        </mxCell>
        <mxCell id="-RAdWuRQX7kpM0FOr2N4-161" value="" style="shape=partialRectangle;connectable=0;fillColor=none;top=0;left=0;bottom=0;right=0;editable=1;overflow=hidden;whiteSpace=wrap;fontSize=20;fontStyle=1;strokeWidth=2;" parent="-RAdWuRQX7kpM0FOr2N4-160" vertex="1">
          <mxGeometry width="30" height="30" as="geometry">
            <mxRectangle width="30" height="30" as="alternateBounds" />
          </mxGeometry>
        </mxCell>
        <mxCell id="-RAdWuRQX7kpM0FOr2N4-162" value="description" style="shape=partialRectangle;connectable=0;fillColor=none;top=0;left=0;bottom=0;right=0;align=left;spacingLeft=6;overflow=hidden;whiteSpace=wrap;fontSize=20;fontStyle=1;strokeWidth=2;" parent="-RAdWuRQX7kpM0FOr2N4-160" vertex="1">
          <mxGeometry x="30" width="222" height="30" as="geometry">
            <mxRectangle width="222" height="30" as="alternateBounds" />
          </mxGeometry>
        </mxCell>
        <mxCell id="-RAdWuRQX7kpM0FOr2N4-169" style="shape=tableRow;horizontal=0;startSize=0;swimlaneHead=0;swimlaneBody=0;fillColor=none;collapsible=0;dropTarget=0;points=[[0,0.5],[1,0.5]];portConstraint=eastwest;top=0;left=0;right=0;bottom=0;fontSize=20;fontStyle=1;whiteSpace=wrap;strokeWidth=2;" parent="-RAdWuRQX7kpM0FOr2N4-150" vertex="1">
          <mxGeometry y="150" width="252" height="30" as="geometry" />
        </mxCell>
        <mxCell id="-RAdWuRQX7kpM0FOr2N4-170" style="shape=partialRectangle;connectable=0;fillColor=none;top=0;left=0;bottom=0;right=0;editable=1;overflow=hidden;whiteSpace=wrap;fontSize=20;fontStyle=1;strokeWidth=2;" parent="-RAdWuRQX7kpM0FOr2N4-169" vertex="1">
          <mxGeometry width="30" height="30" as="geometry">
            <mxRectangle width="30" height="30" as="alternateBounds" />
          </mxGeometry>
        </mxCell>
        <mxCell id="-RAdWuRQX7kpM0FOr2N4-171" style="shape=partialRectangle;connectable=0;fillColor=none;top=0;left=0;bottom=0;right=0;align=left;spacingLeft=6;overflow=hidden;whiteSpace=wrap;fontSize=20;fontStyle=1;strokeWidth=2;" parent="-RAdWuRQX7kpM0FOr2N4-169" vertex="1">
          <mxGeometry x="30" width="222" height="30" as="geometry">
            <mxRectangle width="222" height="30" as="alternateBounds" />
          </mxGeometry>
        </mxCell>
        <mxCell id="Ffluy86TxCfnXTcbzehv-96" style="edgeStyle=orthogonalEdgeStyle;rounded=1;orthogonalLoop=1;jettySize=auto;html=1;strokeWidth=2;endArrow=none;endFill=0;curved=0;" edge="1" parent="1" source="-RAdWuRQX7kpM0FOr2N4-191" target="Ffluy86TxCfnXTcbzehv-94">
          <mxGeometry relative="1" as="geometry">
            <Array as="points">
              <mxPoint x="408" y="906" />
              <mxPoint x="408" y="906" />
            </Array>
          </mxGeometry>
        </mxCell>
        <mxCell id="-RAdWuRQX7kpM0FOr2N4-191" value="complaint" style="shape=table;startSize=30;container=1;collapsible=1;childLayout=tableLayout;fixedRows=1;rowLines=0;fontStyle=1;align=center;resizeLast=1;fontSize=20;whiteSpace=wrap;strokeWidth=2;" parent="1" vertex="1">
          <mxGeometry x="376" y="585" width="252" height="300" as="geometry" />
        </mxCell>
        <mxCell id="-RAdWuRQX7kpM0FOr2N4-192" value="" style="shape=tableRow;horizontal=0;startSize=0;swimlaneHead=0;swimlaneBody=0;fillColor=none;collapsible=0;dropTarget=0;points=[[0,0.5],[1,0.5]];portConstraint=eastwest;top=0;left=0;right=0;bottom=1;fontSize=20;fontStyle=1;whiteSpace=wrap;strokeWidth=2;" parent="-RAdWuRQX7kpM0FOr2N4-191" vertex="1">
          <mxGeometry y="30" width="252" height="30" as="geometry" />
        </mxCell>
        <mxCell id="-RAdWuRQX7kpM0FOr2N4-193" value="PK" style="shape=partialRectangle;connectable=0;fillColor=none;top=0;left=0;bottom=0;right=0;fontStyle=1;overflow=hidden;whiteSpace=wrap;fontSize=20;strokeWidth=2;" parent="-RAdWuRQX7kpM0FOr2N4-192" vertex="1">
          <mxGeometry width="30" height="30" as="geometry">
            <mxRectangle width="30" height="30" as="alternateBounds" />
          </mxGeometry>
        </mxCell>
        <mxCell id="-RAdWuRQX7kpM0FOr2N4-194" value="complaint_ id" style="shape=partialRectangle;connectable=0;fillColor=none;top=0;left=0;bottom=0;right=0;align=left;spacingLeft=6;fontStyle=1;overflow=hidden;whiteSpace=wrap;fontSize=20;strokeWidth=2;" parent="-RAdWuRQX7kpM0FOr2N4-192" vertex="1">
          <mxGeometry x="30" width="222" height="30" as="geometry">
            <mxRectangle width="222" height="30" as="alternateBounds" />
          </mxGeometry>
        </mxCell>
        <mxCell id="-RAdWuRQX7kpM0FOr2N4-195" style="shape=tableRow;horizontal=0;startSize=0;swimlaneHead=0;swimlaneBody=0;fillColor=none;collapsible=0;dropTarget=0;points=[[0,0.5],[1,0.5]];portConstraint=eastwest;top=0;left=0;right=0;bottom=0;fontSize=20;fontStyle=1;whiteSpace=wrap;strokeWidth=2;" parent="-RAdWuRQX7kpM0FOr2N4-191" vertex="1">
          <mxGeometry y="60" width="252" height="30" as="geometry" />
        </mxCell>
        <mxCell id="-RAdWuRQX7kpM0FOr2N4-196" value="FK" style="shape=partialRectangle;connectable=0;fillColor=none;top=0;left=0;bottom=0;right=0;editable=1;overflow=hidden;whiteSpace=wrap;fontSize=20;fontStyle=1;strokeWidth=2;" parent="-RAdWuRQX7kpM0FOr2N4-195" vertex="1">
          <mxGeometry width="30" height="30" as="geometry">
            <mxRectangle width="30" height="30" as="alternateBounds" />
          </mxGeometry>
        </mxCell>
        <mxCell id="-RAdWuRQX7kpM0FOr2N4-197" value="constituent_id" style="shape=partialRectangle;connectable=0;fillColor=none;top=0;left=0;bottom=0;right=0;align=left;spacingLeft=6;overflow=hidden;whiteSpace=wrap;fontSize=20;fontStyle=1;strokeWidth=2;" parent="-RAdWuRQX7kpM0FOr2N4-195" vertex="1">
          <mxGeometry x="30" width="222" height="30" as="geometry">
            <mxRectangle width="222" height="30" as="alternateBounds" />
          </mxGeometry>
        </mxCell>
        <mxCell id="-RAdWuRQX7kpM0FOr2N4-198" value="" style="shape=tableRow;horizontal=0;startSize=0;swimlaneHead=0;swimlaneBody=0;fillColor=none;collapsible=0;dropTarget=0;points=[[0,0.5],[1,0.5]];portConstraint=eastwest;top=0;left=0;right=0;bottom=0;fontSize=20;fontStyle=1;whiteSpace=wrap;strokeWidth=2;" parent="-RAdWuRQX7kpM0FOr2N4-191" vertex="1">
          <mxGeometry y="90" width="252" height="30" as="geometry" />
        </mxCell>
        <mxCell id="-RAdWuRQX7kpM0FOr2N4-199" value="FK" style="shape=partialRectangle;connectable=0;fillColor=none;top=0;left=0;bottom=0;right=0;editable=1;overflow=hidden;whiteSpace=wrap;fontSize=20;fontStyle=1;strokeWidth=2;" parent="-RAdWuRQX7kpM0FOr2N4-198" vertex="1">
          <mxGeometry width="30" height="30" as="geometry">
            <mxRectangle width="30" height="30" as="alternateBounds" />
          </mxGeometry>
        </mxCell>
        <mxCell id="-RAdWuRQX7kpM0FOr2N4-200" value="representative_id" style="shape=partialRectangle;connectable=0;fillColor=none;top=0;left=0;bottom=0;right=0;align=left;spacingLeft=6;overflow=hidden;whiteSpace=wrap;fontSize=20;fontStyle=1;strokeWidth=2;" parent="-RAdWuRQX7kpM0FOr2N4-198" vertex="1">
          <mxGeometry x="30" width="222" height="30" as="geometry">
            <mxRectangle width="222" height="30" as="alternateBounds" />
          </mxGeometry>
        </mxCell>
        <mxCell id="-RAdWuRQX7kpM0FOr2N4-216" style="shape=tableRow;horizontal=0;startSize=0;swimlaneHead=0;swimlaneBody=0;fillColor=none;collapsible=0;dropTarget=0;points=[[0,0.5],[1,0.5]];portConstraint=eastwest;top=0;left=0;right=0;bottom=0;fontSize=20;fontStyle=1;whiteSpace=wrap;strokeWidth=2;" parent="-RAdWuRQX7kpM0FOr2N4-191" vertex="1">
          <mxGeometry y="120" width="252" height="30" as="geometry" />
        </mxCell>
        <mxCell id="-RAdWuRQX7kpM0FOr2N4-217" value="FK" style="shape=partialRectangle;connectable=0;fillColor=none;top=0;left=0;bottom=0;right=0;editable=1;overflow=hidden;whiteSpace=wrap;fontSize=20;fontStyle=1;strokeWidth=2;" parent="-RAdWuRQX7kpM0FOr2N4-216" vertex="1">
          <mxGeometry width="30" height="30" as="geometry">
            <mxRectangle width="30" height="30" as="alternateBounds" />
          </mxGeometry>
        </mxCell>
        <mxCell id="-RAdWuRQX7kpM0FOr2N4-218" value="handler_id" style="shape=partialRectangle;connectable=0;fillColor=none;top=0;left=0;bottom=0;right=0;align=left;spacingLeft=6;overflow=hidden;whiteSpace=wrap;fontSize=20;fontStyle=1;strokeWidth=2;" parent="-RAdWuRQX7kpM0FOr2N4-216" vertex="1">
          <mxGeometry x="30" width="222" height="30" as="geometry">
            <mxRectangle width="222" height="30" as="alternateBounds" />
          </mxGeometry>
        </mxCell>
        <mxCell id="-RAdWuRQX7kpM0FOr2N4-201" value="" style="shape=tableRow;horizontal=0;startSize=0;swimlaneHead=0;swimlaneBody=0;fillColor=none;collapsible=0;dropTarget=0;points=[[0,0.5],[1,0.5]];portConstraint=eastwest;top=0;left=0;right=0;bottom=0;fontSize=20;fontStyle=1;whiteSpace=wrap;strokeWidth=2;" parent="-RAdWuRQX7kpM0FOr2N4-191" vertex="1">
          <mxGeometry y="150" width="252" height="30" as="geometry" />
        </mxCell>
        <mxCell id="-RAdWuRQX7kpM0FOr2N4-202" value="" style="shape=partialRectangle;connectable=0;fillColor=none;top=0;left=0;bottom=0;right=0;editable=1;overflow=hidden;whiteSpace=wrap;fontSize=20;fontStyle=1;strokeWidth=2;" parent="-RAdWuRQX7kpM0FOr2N4-201" vertex="1">
          <mxGeometry width="30" height="30" as="geometry">
            <mxRectangle width="30" height="30" as="alternateBounds" />
          </mxGeometry>
        </mxCell>
        <mxCell id="-RAdWuRQX7kpM0FOr2N4-203" value="title" style="shape=partialRectangle;connectable=0;fillColor=none;top=0;left=0;bottom=0;right=0;align=left;spacingLeft=6;overflow=hidden;whiteSpace=wrap;fontSize=20;fontStyle=1;strokeWidth=2;" parent="-RAdWuRQX7kpM0FOr2N4-201" vertex="1">
          <mxGeometry x="30" width="222" height="30" as="geometry">
            <mxRectangle width="222" height="30" as="alternateBounds" />
          </mxGeometry>
        </mxCell>
        <mxCell id="-RAdWuRQX7kpM0FOr2N4-204" style="shape=tableRow;horizontal=0;startSize=0;swimlaneHead=0;swimlaneBody=0;fillColor=none;collapsible=0;dropTarget=0;points=[[0,0.5],[1,0.5]];portConstraint=eastwest;top=0;left=0;right=0;bottom=0;fontSize=20;fontStyle=1;whiteSpace=wrap;strokeWidth=2;" parent="-RAdWuRQX7kpM0FOr2N4-191" vertex="1">
          <mxGeometry y="180" width="252" height="30" as="geometry" />
        </mxCell>
        <mxCell id="-RAdWuRQX7kpM0FOr2N4-205" style="shape=partialRectangle;connectable=0;fillColor=none;top=0;left=0;bottom=0;right=0;editable=1;overflow=hidden;whiteSpace=wrap;fontSize=20;fontStyle=1;strokeWidth=2;" parent="-RAdWuRQX7kpM0FOr2N4-204" vertex="1">
          <mxGeometry width="30" height="30" as="geometry">
            <mxRectangle width="30" height="30" as="alternateBounds" />
          </mxGeometry>
        </mxCell>
        <mxCell id="-RAdWuRQX7kpM0FOr2N4-206" value="description" style="shape=partialRectangle;connectable=0;fillColor=none;top=0;left=0;bottom=0;right=0;align=left;spacingLeft=6;overflow=hidden;whiteSpace=wrap;fontSize=20;fontStyle=1;strokeWidth=2;" parent="-RAdWuRQX7kpM0FOr2N4-204" vertex="1">
          <mxGeometry x="30" width="222" height="30" as="geometry">
            <mxRectangle width="222" height="30" as="alternateBounds" />
          </mxGeometry>
        </mxCell>
        <mxCell id="-RAdWuRQX7kpM0FOr2N4-207" style="shape=tableRow;horizontal=0;startSize=0;swimlaneHead=0;swimlaneBody=0;fillColor=none;collapsible=0;dropTarget=0;points=[[0,0.5],[1,0.5]];portConstraint=eastwest;top=0;left=0;right=0;bottom=0;fontSize=20;fontStyle=1;whiteSpace=wrap;strokeWidth=2;" parent="-RAdWuRQX7kpM0FOr2N4-191" vertex="1">
          <mxGeometry y="210" width="252" height="30" as="geometry" />
        </mxCell>
        <mxCell id="-RAdWuRQX7kpM0FOr2N4-208" style="shape=partialRectangle;connectable=0;fillColor=none;top=0;left=0;bottom=0;right=0;editable=1;overflow=hidden;whiteSpace=wrap;fontSize=20;fontStyle=1;strokeWidth=2;" parent="-RAdWuRQX7kpM0FOr2N4-207" vertex="1">
          <mxGeometry width="30" height="30" as="geometry">
            <mxRectangle width="30" height="30" as="alternateBounds" />
          </mxGeometry>
        </mxCell>
        <mxCell id="-RAdWuRQX7kpM0FOr2N4-209" value="status" style="shape=partialRectangle;connectable=0;fillColor=none;top=0;left=0;bottom=0;right=0;align=left;spacingLeft=6;overflow=hidden;whiteSpace=wrap;fontSize=20;fontStyle=1;strokeWidth=2;" parent="-RAdWuRQX7kpM0FOr2N4-207" vertex="1">
          <mxGeometry x="30" width="222" height="30" as="geometry">
            <mxRectangle width="222" height="30" as="alternateBounds" />
          </mxGeometry>
        </mxCell>
        <mxCell id="-RAdWuRQX7kpM0FOr2N4-213" style="shape=tableRow;horizontal=0;startSize=0;swimlaneHead=0;swimlaneBody=0;fillColor=none;collapsible=0;dropTarget=0;points=[[0,0.5],[1,0.5]];portConstraint=eastwest;top=0;left=0;right=0;bottom=0;fontSize=20;fontStyle=1;whiteSpace=wrap;strokeWidth=2;" parent="-RAdWuRQX7kpM0FOr2N4-191" vertex="1">
          <mxGeometry y="240" width="252" height="30" as="geometry" />
        </mxCell>
        <mxCell id="-RAdWuRQX7kpM0FOr2N4-214" style="shape=partialRectangle;connectable=0;fillColor=none;top=0;left=0;bottom=0;right=0;editable=1;overflow=hidden;whiteSpace=wrap;fontSize=20;fontStyle=1;strokeWidth=2;" parent="-RAdWuRQX7kpM0FOr2N4-213" vertex="1">
          <mxGeometry width="30" height="30" as="geometry">
            <mxRectangle width="30" height="30" as="alternateBounds" />
          </mxGeometry>
        </mxCell>
        <mxCell id="-RAdWuRQX7kpM0FOr2N4-215" style="shape=partialRectangle;connectable=0;fillColor=none;top=0;left=0;bottom=0;right=0;align=left;spacingLeft=6;overflow=hidden;whiteSpace=wrap;fontSize=20;fontStyle=1;strokeWidth=2;" parent="-RAdWuRQX7kpM0FOr2N4-213" vertex="1">
          <mxGeometry x="30" width="222" height="30" as="geometry">
            <mxRectangle width="222" height="30" as="alternateBounds" />
          </mxGeometry>
        </mxCell>
        <mxCell id="-RAdWuRQX7kpM0FOr2N4-210" style="shape=tableRow;horizontal=0;startSize=0;swimlaneHead=0;swimlaneBody=0;fillColor=none;collapsible=0;dropTarget=0;points=[[0,0.5],[1,0.5]];portConstraint=eastwest;top=0;left=0;right=0;bottom=0;fontSize=20;fontStyle=1;whiteSpace=wrap;strokeWidth=2;" parent="-RAdWuRQX7kpM0FOr2N4-191" vertex="1">
          <mxGeometry y="270" width="252" height="30" as="geometry" />
        </mxCell>
        <mxCell id="-RAdWuRQX7kpM0FOr2N4-211" style="shape=partialRectangle;connectable=0;fillColor=none;top=0;left=0;bottom=0;right=0;editable=1;overflow=hidden;whiteSpace=wrap;fontSize=20;fontStyle=1;strokeWidth=2;" parent="-RAdWuRQX7kpM0FOr2N4-210" vertex="1">
          <mxGeometry width="30" height="30" as="geometry">
            <mxRectangle width="30" height="30" as="alternateBounds" />
          </mxGeometry>
        </mxCell>
        <mxCell id="-RAdWuRQX7kpM0FOr2N4-212" style="shape=partialRectangle;connectable=0;fillColor=none;top=0;left=0;bottom=0;right=0;align=left;spacingLeft=6;overflow=hidden;whiteSpace=wrap;fontSize=20;fontStyle=1;strokeWidth=2;" parent="-RAdWuRQX7kpM0FOr2N4-210" vertex="1">
          <mxGeometry x="30" width="222" height="30" as="geometry">
            <mxRectangle width="222" height="30" as="alternateBounds" />
          </mxGeometry>
        </mxCell>
        <mxCell id="Ffluy86TxCfnXTcbzehv-47" style="edgeStyle=orthogonalEdgeStyle;rounded=1;orthogonalLoop=1;jettySize=auto;html=1;entryX=1;entryY=0.5;entryDx=0;entryDy=0;exitX=0;exitY=0.5;exitDx=0;exitDy=0;strokeWidth=2;endArrow=none;endFill=0;curved=0;" edge="1" parent="1" source="-RAdWuRQX7kpM0FOr2N4-220" target="Ffluy86TxCfnXTcbzehv-46">
          <mxGeometry relative="1" as="geometry" />
        </mxCell>
        <mxCell id="-RAdWuRQX7kpM0FOr2N4-219" value="statistics" style="shape=table;startSize=30;container=1;collapsible=1;childLayout=tableLayout;fixedRows=1;rowLines=0;fontStyle=1;align=center;resizeLast=1;fontSize=20;whiteSpace=wrap;strokeWidth=2;" parent="1" vertex="1">
          <mxGeometry x="789" y="1000" width="252" height="210" as="geometry" />
        </mxCell>
        <mxCell id="-RAdWuRQX7kpM0FOr2N4-220" value="" style="shape=tableRow;horizontal=0;startSize=0;swimlaneHead=0;swimlaneBody=0;fillColor=none;collapsible=0;dropTarget=0;points=[[0,0.5],[1,0.5]];portConstraint=eastwest;top=0;left=0;right=0;bottom=1;fontSize=20;fontStyle=1;whiteSpace=wrap;strokeWidth=2;" parent="-RAdWuRQX7kpM0FOr2N4-219" vertex="1">
          <mxGeometry y="30" width="252" height="30" as="geometry" />
        </mxCell>
        <mxCell id="-RAdWuRQX7kpM0FOr2N4-221" value="PK" style="shape=partialRectangle;connectable=0;fillColor=none;top=0;left=0;bottom=0;right=0;fontStyle=1;overflow=hidden;whiteSpace=wrap;fontSize=20;strokeWidth=2;" parent="-RAdWuRQX7kpM0FOr2N4-220" vertex="1">
          <mxGeometry width="30" height="30" as="geometry">
            <mxRectangle width="30" height="30" as="alternateBounds" />
          </mxGeometry>
        </mxCell>
        <mxCell id="-RAdWuRQX7kpM0FOr2N4-222" value="stat_id" style="shape=partialRectangle;connectable=0;fillColor=none;top=0;left=0;bottom=0;right=0;align=left;spacingLeft=6;fontStyle=1;overflow=hidden;whiteSpace=wrap;fontSize=20;strokeWidth=2;" parent="-RAdWuRQX7kpM0FOr2N4-220" vertex="1">
          <mxGeometry x="30" width="222" height="30" as="geometry">
            <mxRectangle width="222" height="30" as="alternateBounds" />
          </mxGeometry>
        </mxCell>
        <mxCell id="-RAdWuRQX7kpM0FOr2N4-241" style="shape=tableRow;horizontal=0;startSize=0;swimlaneHead=0;swimlaneBody=0;fillColor=none;collapsible=0;dropTarget=0;points=[[0,0.5],[1,0.5]];portConstraint=eastwest;top=0;left=0;right=0;bottom=0;fontSize=20;fontStyle=1;whiteSpace=wrap;strokeWidth=2;" parent="-RAdWuRQX7kpM0FOr2N4-219" vertex="1">
          <mxGeometry y="60" width="252" height="30" as="geometry" />
        </mxCell>
        <mxCell id="-RAdWuRQX7kpM0FOr2N4-242" value="FK" style="shape=partialRectangle;connectable=0;fillColor=none;top=0;left=0;bottom=0;right=0;editable=1;overflow=hidden;whiteSpace=wrap;fontSize=20;fontStyle=1;strokeWidth=2;" parent="-RAdWuRQX7kpM0FOr2N4-241" vertex="1">
          <mxGeometry width="30" height="30" as="geometry">
            <mxRectangle width="30" height="30" as="alternateBounds" />
          </mxGeometry>
        </mxCell>
        <mxCell id="-RAdWuRQX7kpM0FOr2N4-243" value="representative_id" style="shape=partialRectangle;connectable=0;fillColor=none;top=0;left=0;bottom=0;right=0;align=left;spacingLeft=6;overflow=hidden;whiteSpace=wrap;fontSize=20;fontStyle=1;strokeWidth=2;" parent="-RAdWuRQX7kpM0FOr2N4-241" vertex="1">
          <mxGeometry x="30" width="222" height="30" as="geometry">
            <mxRectangle width="222" height="30" as="alternateBounds" />
          </mxGeometry>
        </mxCell>
        <mxCell id="-RAdWuRQX7kpM0FOr2N4-223" style="shape=tableRow;horizontal=0;startSize=0;swimlaneHead=0;swimlaneBody=0;fillColor=none;collapsible=0;dropTarget=0;points=[[0,0.5],[1,0.5]];portConstraint=eastwest;top=0;left=0;right=0;bottom=0;fontSize=20;fontStyle=1;whiteSpace=wrap;strokeWidth=2;" parent="-RAdWuRQX7kpM0FOr2N4-219" vertex="1">
          <mxGeometry y="90" width="252" height="30" as="geometry" />
        </mxCell>
        <mxCell id="-RAdWuRQX7kpM0FOr2N4-224" value="" style="shape=partialRectangle;connectable=0;fillColor=none;top=0;left=0;bottom=0;right=0;editable=1;overflow=hidden;whiteSpace=wrap;fontSize=20;fontStyle=1;strokeWidth=2;" parent="-RAdWuRQX7kpM0FOr2N4-223" vertex="1">
          <mxGeometry width="30" height="30" as="geometry">
            <mxRectangle width="30" height="30" as="alternateBounds" />
          </mxGeometry>
        </mxCell>
        <mxCell id="-RAdWuRQX7kpM0FOr2N4-225" value="datatype" style="shape=partialRectangle;connectable=0;fillColor=none;top=0;left=0;bottom=0;right=0;align=left;spacingLeft=6;overflow=hidden;whiteSpace=wrap;fontSize=20;fontStyle=1;strokeWidth=2;" parent="-RAdWuRQX7kpM0FOr2N4-223" vertex="1">
          <mxGeometry x="30" width="222" height="30" as="geometry">
            <mxRectangle width="222" height="30" as="alternateBounds" />
          </mxGeometry>
        </mxCell>
        <mxCell id="-RAdWuRQX7kpM0FOr2N4-226" value="" style="shape=tableRow;horizontal=0;startSize=0;swimlaneHead=0;swimlaneBody=0;fillColor=none;collapsible=0;dropTarget=0;points=[[0,0.5],[1,0.5]];portConstraint=eastwest;top=0;left=0;right=0;bottom=0;fontSize=20;fontStyle=1;whiteSpace=wrap;strokeWidth=2;" parent="-RAdWuRQX7kpM0FOr2N4-219" vertex="1">
          <mxGeometry y="120" width="252" height="30" as="geometry" />
        </mxCell>
        <mxCell id="-RAdWuRQX7kpM0FOr2N4-227" value="" style="shape=partialRectangle;connectable=0;fillColor=none;top=0;left=0;bottom=0;right=0;editable=1;overflow=hidden;whiteSpace=wrap;fontSize=20;fontStyle=1;strokeWidth=2;" parent="-RAdWuRQX7kpM0FOr2N4-226" vertex="1">
          <mxGeometry width="30" height="30" as="geometry">
            <mxRectangle width="30" height="30" as="alternateBounds" />
          </mxGeometry>
        </mxCell>
        <mxCell id="-RAdWuRQX7kpM0FOr2N4-228" value="value" style="shape=partialRectangle;connectable=0;fillColor=none;top=0;left=0;bottom=0;right=0;align=left;spacingLeft=6;overflow=hidden;whiteSpace=wrap;fontSize=20;fontStyle=1;strokeWidth=2;" parent="-RAdWuRQX7kpM0FOr2N4-226" vertex="1">
          <mxGeometry x="30" width="222" height="30" as="geometry">
            <mxRectangle width="222" height="30" as="alternateBounds" />
          </mxGeometry>
        </mxCell>
        <mxCell id="-RAdWuRQX7kpM0FOr2N4-229" value="" style="shape=tableRow;horizontal=0;startSize=0;swimlaneHead=0;swimlaneBody=0;fillColor=none;collapsible=0;dropTarget=0;points=[[0,0.5],[1,0.5]];portConstraint=eastwest;top=0;left=0;right=0;bottom=0;fontSize=20;fontStyle=1;whiteSpace=wrap;strokeWidth=2;" parent="-RAdWuRQX7kpM0FOr2N4-219" vertex="1">
          <mxGeometry y="150" width="252" height="30" as="geometry" />
        </mxCell>
        <mxCell id="-RAdWuRQX7kpM0FOr2N4-230" value="" style="shape=partialRectangle;connectable=0;fillColor=none;top=0;left=0;bottom=0;right=0;editable=1;overflow=hidden;whiteSpace=wrap;fontSize=20;fontStyle=1;strokeWidth=2;" parent="-RAdWuRQX7kpM0FOr2N4-229" vertex="1">
          <mxGeometry width="30" height="30" as="geometry">
            <mxRectangle width="30" height="30" as="alternateBounds" />
          </mxGeometry>
        </mxCell>
        <mxCell id="-RAdWuRQX7kpM0FOr2N4-231" value="report_date" style="shape=partialRectangle;connectable=0;fillColor=none;top=0;left=0;bottom=0;right=0;align=left;spacingLeft=6;overflow=hidden;whiteSpace=wrap;fontSize=20;fontStyle=1;strokeWidth=2;" parent="-RAdWuRQX7kpM0FOr2N4-229" vertex="1">
          <mxGeometry x="30" width="222" height="30" as="geometry">
            <mxRectangle width="222" height="30" as="alternateBounds" />
          </mxGeometry>
        </mxCell>
        <mxCell id="-RAdWuRQX7kpM0FOr2N4-235" style="shape=tableRow;horizontal=0;startSize=0;swimlaneHead=0;swimlaneBody=0;fillColor=none;collapsible=0;dropTarget=0;points=[[0,0.5],[1,0.5]];portConstraint=eastwest;top=0;left=0;right=0;bottom=0;fontSize=20;fontStyle=1;whiteSpace=wrap;strokeWidth=2;" parent="-RAdWuRQX7kpM0FOr2N4-219" vertex="1">
          <mxGeometry y="180" width="252" height="30" as="geometry" />
        </mxCell>
        <mxCell id="-RAdWuRQX7kpM0FOr2N4-236" style="shape=partialRectangle;connectable=0;fillColor=none;top=0;left=0;bottom=0;right=0;editable=1;overflow=hidden;whiteSpace=wrap;fontSize=20;fontStyle=1;strokeWidth=2;" parent="-RAdWuRQX7kpM0FOr2N4-235" vertex="1">
          <mxGeometry width="30" height="30" as="geometry">
            <mxRectangle width="30" height="30" as="alternateBounds" />
          </mxGeometry>
        </mxCell>
        <mxCell id="-RAdWuRQX7kpM0FOr2N4-237" style="shape=partialRectangle;connectable=0;fillColor=none;top=0;left=0;bottom=0;right=0;align=left;spacingLeft=6;overflow=hidden;whiteSpace=wrap;fontSize=20;fontStyle=1;strokeWidth=2;" parent="-RAdWuRQX7kpM0FOr2N4-235" vertex="1">
          <mxGeometry x="30" width="222" height="30" as="geometry">
            <mxRectangle width="222" height="30" as="alternateBounds" />
          </mxGeometry>
        </mxCell>
        <mxCell id="-RAdWuRQX7kpM0FOr2N4-244" value="department" style="shape=table;startSize=30;container=1;collapsible=1;childLayout=tableLayout;fixedRows=1;rowLines=0;fontStyle=1;align=center;resizeLast=1;fontSize=20;whiteSpace=wrap;strokeWidth=2;" parent="1" vertex="1">
          <mxGeometry x="796" y="427" width="356" height="150" as="geometry" />
        </mxCell>
        <mxCell id="-RAdWuRQX7kpM0FOr2N4-245" value="" style="shape=tableRow;horizontal=0;startSize=0;swimlaneHead=0;swimlaneBody=0;fillColor=none;collapsible=0;dropTarget=0;points=[[0,0.5],[1,0.5]];portConstraint=eastwest;top=0;left=0;right=0;bottom=1;fontSize=20;fontStyle=1;whiteSpace=wrap;strokeWidth=2;" parent="-RAdWuRQX7kpM0FOr2N4-244" vertex="1">
          <mxGeometry y="30" width="356" height="30" as="geometry" />
        </mxCell>
        <mxCell id="-RAdWuRQX7kpM0FOr2N4-246" value="PK" style="shape=partialRectangle;connectable=0;fillColor=none;top=0;left=0;bottom=0;right=0;fontStyle=1;overflow=hidden;whiteSpace=wrap;fontSize=20;strokeWidth=2;" parent="-RAdWuRQX7kpM0FOr2N4-245" vertex="1">
          <mxGeometry width="30" height="30" as="geometry">
            <mxRectangle width="30" height="30" as="alternateBounds" />
          </mxGeometry>
        </mxCell>
        <mxCell id="-RAdWuRQX7kpM0FOr2N4-247" value="department_id" style="shape=partialRectangle;connectable=0;fillColor=none;top=0;left=0;bottom=0;right=0;align=left;spacingLeft=6;fontStyle=1;overflow=hidden;whiteSpace=wrap;fontSize=20;strokeWidth=2;" parent="-RAdWuRQX7kpM0FOr2N4-245" vertex="1">
          <mxGeometry x="30" width="326" height="30" as="geometry">
            <mxRectangle width="326" height="30" as="alternateBounds" />
          </mxGeometry>
        </mxCell>
        <mxCell id="-RAdWuRQX7kpM0FOr2N4-248" value="" style="shape=tableRow;horizontal=0;startSize=0;swimlaneHead=0;swimlaneBody=0;fillColor=none;collapsible=0;dropTarget=0;points=[[0,0.5],[1,0.5]];portConstraint=eastwest;top=0;left=0;right=0;bottom=0;fontSize=20;fontStyle=1;whiteSpace=wrap;strokeWidth=2;" parent="-RAdWuRQX7kpM0FOr2N4-244" vertex="1">
          <mxGeometry y="60" width="356" height="30" as="geometry" />
        </mxCell>
        <mxCell id="-RAdWuRQX7kpM0FOr2N4-249" value="" style="shape=partialRectangle;connectable=0;fillColor=none;top=0;left=0;bottom=0;right=0;editable=1;overflow=hidden;whiteSpace=wrap;fontSize=20;fontStyle=1;strokeWidth=2;" parent="-RAdWuRQX7kpM0FOr2N4-248" vertex="1">
          <mxGeometry width="30" height="30" as="geometry">
            <mxRectangle width="30" height="30" as="alternateBounds" />
          </mxGeometry>
        </mxCell>
        <mxCell id="-RAdWuRQX7kpM0FOr2N4-250" value="department_name" style="shape=partialRectangle;connectable=0;fillColor=none;top=0;left=0;bottom=0;right=0;align=left;spacingLeft=6;overflow=hidden;whiteSpace=wrap;fontSize=20;fontStyle=1;strokeWidth=2;" parent="-RAdWuRQX7kpM0FOr2N4-248" vertex="1">
          <mxGeometry x="30" width="326" height="30" as="geometry">
            <mxRectangle width="326" height="30" as="alternateBounds" />
          </mxGeometry>
        </mxCell>
        <mxCell id="-RAdWuRQX7kpM0FOr2N4-251" style="shape=tableRow;horizontal=0;startSize=0;swimlaneHead=0;swimlaneBody=0;fillColor=none;collapsible=0;dropTarget=0;points=[[0,0.5],[1,0.5]];portConstraint=eastwest;top=0;left=0;right=0;bottom=0;fontSize=20;fontStyle=1;whiteSpace=wrap;strokeWidth=2;" parent="-RAdWuRQX7kpM0FOr2N4-244" vertex="1">
          <mxGeometry y="90" width="356" height="30" as="geometry" />
        </mxCell>
        <mxCell id="-RAdWuRQX7kpM0FOr2N4-252" style="shape=partialRectangle;connectable=0;fillColor=none;top=0;left=0;bottom=0;right=0;editable=1;overflow=hidden;whiteSpace=wrap;fontSize=20;fontStyle=1;strokeWidth=2;" parent="-RAdWuRQX7kpM0FOr2N4-251" vertex="1">
          <mxGeometry width="30" height="30" as="geometry">
            <mxRectangle width="30" height="30" as="alternateBounds" />
          </mxGeometry>
        </mxCell>
        <mxCell id="-RAdWuRQX7kpM0FOr2N4-253" value="description" style="shape=partialRectangle;connectable=0;fillColor=none;top=0;left=0;bottom=0;right=0;align=left;spacingLeft=6;overflow=hidden;whiteSpace=wrap;fontSize=20;fontStyle=1;strokeWidth=2;" parent="-RAdWuRQX7kpM0FOr2N4-251" vertex="1">
          <mxGeometry x="30" width="326" height="30" as="geometry">
            <mxRectangle width="326" height="30" as="alternateBounds" />
          </mxGeometry>
        </mxCell>
        <mxCell id="-RAdWuRQX7kpM0FOr2N4-254" style="shape=tableRow;horizontal=0;startSize=0;swimlaneHead=0;swimlaneBody=0;fillColor=none;collapsible=0;dropTarget=0;points=[[0,0.5],[1,0.5]];portConstraint=eastwest;top=0;left=0;right=0;bottom=0;fontSize=20;fontStyle=1;whiteSpace=wrap;strokeWidth=2;" parent="-RAdWuRQX7kpM0FOr2N4-244" vertex="1">
          <mxGeometry y="120" width="356" height="30" as="geometry" />
        </mxCell>
        <mxCell id="-RAdWuRQX7kpM0FOr2N4-255" style="shape=partialRectangle;connectable=0;fillColor=none;top=0;left=0;bottom=0;right=0;editable=1;overflow=hidden;whiteSpace=wrap;fontSize=20;fontStyle=1;strokeWidth=2;" parent="-RAdWuRQX7kpM0FOr2N4-254" vertex="1">
          <mxGeometry width="30" height="30" as="geometry">
            <mxRectangle width="30" height="30" as="alternateBounds" />
          </mxGeometry>
        </mxCell>
        <mxCell id="-RAdWuRQX7kpM0FOr2N4-256" style="shape=partialRectangle;connectable=0;fillColor=none;top=0;left=0;bottom=0;right=0;align=left;spacingLeft=6;overflow=hidden;whiteSpace=wrap;fontSize=20;fontStyle=1;strokeWidth=2;" parent="-RAdWuRQX7kpM0FOr2N4-254" vertex="1">
          <mxGeometry x="30" width="326" height="30" as="geometry">
            <mxRectangle width="326" height="30" as="alternateBounds" />
          </mxGeometry>
        </mxCell>
        <mxCell id="-RAdWuRQX7kpM0FOr2N4-257" value="notification" style="shape=table;startSize=30;container=1;collapsible=1;childLayout=tableLayout;fixedRows=1;rowLines=0;fontStyle=1;align=center;resizeLast=1;fontSize=20;whiteSpace=wrap;strokeWidth=2;" parent="1" vertex="1">
          <mxGeometry x="914" y="725" width="252" height="240" as="geometry" />
        </mxCell>
        <mxCell id="-RAdWuRQX7kpM0FOr2N4-258" value="" style="shape=tableRow;horizontal=0;startSize=0;swimlaneHead=0;swimlaneBody=0;fillColor=none;collapsible=0;dropTarget=0;points=[[0,0.5],[1,0.5]];portConstraint=eastwest;top=0;left=0;right=0;bottom=1;fontSize=20;fontStyle=1;whiteSpace=wrap;strokeWidth=2;" parent="-RAdWuRQX7kpM0FOr2N4-257" vertex="1">
          <mxGeometry y="30" width="252" height="30" as="geometry" />
        </mxCell>
        <mxCell id="-RAdWuRQX7kpM0FOr2N4-259" value="PK" style="shape=partialRectangle;connectable=0;fillColor=none;top=0;left=0;bottom=0;right=0;fontStyle=1;overflow=hidden;whiteSpace=wrap;fontSize=20;strokeWidth=2;" parent="-RAdWuRQX7kpM0FOr2N4-258" vertex="1">
          <mxGeometry width="30" height="30" as="geometry">
            <mxRectangle width="30" height="30" as="alternateBounds" />
          </mxGeometry>
        </mxCell>
        <mxCell id="-RAdWuRQX7kpM0FOr2N4-260" value="notification_id" style="shape=partialRectangle;connectable=0;fillColor=none;top=0;left=0;bottom=0;right=0;align=left;spacingLeft=6;fontStyle=1;overflow=hidden;whiteSpace=wrap;fontSize=20;strokeWidth=2;" parent="-RAdWuRQX7kpM0FOr2N4-258" vertex="1">
          <mxGeometry x="30" width="222" height="30" as="geometry">
            <mxRectangle width="222" height="30" as="alternateBounds" />
          </mxGeometry>
        </mxCell>
        <mxCell id="-RAdWuRQX7kpM0FOr2N4-261" style="shape=tableRow;horizontal=0;startSize=0;swimlaneHead=0;swimlaneBody=0;fillColor=none;collapsible=0;dropTarget=0;points=[[0,0.5],[1,0.5]];portConstraint=eastwest;top=0;left=0;right=0;bottom=0;fontSize=20;fontStyle=1;whiteSpace=wrap;strokeWidth=2;" parent="-RAdWuRQX7kpM0FOr2N4-257" vertex="1">
          <mxGeometry y="60" width="252" height="30" as="geometry" />
        </mxCell>
        <mxCell id="-RAdWuRQX7kpM0FOr2N4-262" value="FK" style="shape=partialRectangle;connectable=0;fillColor=none;top=0;left=0;bottom=0;right=0;editable=1;overflow=hidden;whiteSpace=wrap;fontSize=20;fontStyle=1;strokeWidth=2;" parent="-RAdWuRQX7kpM0FOr2N4-261" vertex="1">
          <mxGeometry width="30" height="30" as="geometry">
            <mxRectangle width="30" height="30" as="alternateBounds" />
          </mxGeometry>
        </mxCell>
        <mxCell id="-RAdWuRQX7kpM0FOr2N4-263" value="representative_id" style="shape=partialRectangle;connectable=0;fillColor=none;top=0;left=0;bottom=0;right=0;align=left;spacingLeft=6;overflow=hidden;whiteSpace=wrap;fontSize=20;fontStyle=1;strokeWidth=2;" parent="-RAdWuRQX7kpM0FOr2N4-261" vertex="1">
          <mxGeometry x="30" width="222" height="30" as="geometry">
            <mxRectangle width="222" height="30" as="alternateBounds" />
          </mxGeometry>
        </mxCell>
        <mxCell id="-RAdWuRQX7kpM0FOr2N4-279" style="shape=tableRow;horizontal=0;startSize=0;swimlaneHead=0;swimlaneBody=0;fillColor=none;collapsible=0;dropTarget=0;points=[[0,0.5],[1,0.5]];portConstraint=eastwest;top=0;left=0;right=0;bottom=0;fontSize=20;fontStyle=1;whiteSpace=wrap;strokeWidth=2;" parent="-RAdWuRQX7kpM0FOr2N4-257" vertex="1">
          <mxGeometry y="90" width="252" height="30" as="geometry" />
        </mxCell>
        <mxCell id="-RAdWuRQX7kpM0FOr2N4-280" value="FK" style="shape=partialRectangle;connectable=0;fillColor=none;top=0;left=0;bottom=0;right=0;editable=1;overflow=hidden;whiteSpace=wrap;fontSize=20;fontStyle=1;strokeWidth=2;" parent="-RAdWuRQX7kpM0FOr2N4-279" vertex="1">
          <mxGeometry width="30" height="30" as="geometry">
            <mxRectangle width="30" height="30" as="alternateBounds" />
          </mxGeometry>
        </mxCell>
        <mxCell id="-RAdWuRQX7kpM0FOr2N4-281" value="complaint_id" style="shape=partialRectangle;connectable=0;fillColor=none;top=0;left=0;bottom=0;right=0;align=left;spacingLeft=6;overflow=hidden;whiteSpace=wrap;fontSize=20;fontStyle=1;strokeWidth=2;" parent="-RAdWuRQX7kpM0FOr2N4-279" vertex="1">
          <mxGeometry x="30" width="222" height="30" as="geometry">
            <mxRectangle width="222" height="30" as="alternateBounds" />
          </mxGeometry>
        </mxCell>
        <mxCell id="-RAdWuRQX7kpM0FOr2N4-276" style="shape=tableRow;horizontal=0;startSize=0;swimlaneHead=0;swimlaneBody=0;fillColor=none;collapsible=0;dropTarget=0;points=[[0,0.5],[1,0.5]];portConstraint=eastwest;top=0;left=0;right=0;bottom=0;fontSize=20;fontStyle=1;whiteSpace=wrap;strokeWidth=2;" parent="-RAdWuRQX7kpM0FOr2N4-257" vertex="1">
          <mxGeometry y="120" width="252" height="30" as="geometry" />
        </mxCell>
        <mxCell id="-RAdWuRQX7kpM0FOr2N4-277" value="FK" style="shape=partialRectangle;connectable=0;fillColor=none;top=0;left=0;bottom=0;right=0;editable=1;overflow=hidden;whiteSpace=wrap;fontSize=20;fontStyle=1;strokeWidth=2;" parent="-RAdWuRQX7kpM0FOr2N4-276" vertex="1">
          <mxGeometry width="30" height="30" as="geometry">
            <mxRectangle width="30" height="30" as="alternateBounds" />
          </mxGeometry>
        </mxCell>
        <mxCell id="-RAdWuRQX7kpM0FOr2N4-278" value="constituent_id" style="shape=partialRectangle;connectable=0;fillColor=none;top=0;left=0;bottom=0;right=0;align=left;spacingLeft=6;overflow=hidden;whiteSpace=wrap;fontSize=20;fontStyle=1;strokeWidth=2;" parent="-RAdWuRQX7kpM0FOr2N4-276" vertex="1">
          <mxGeometry x="30" width="222" height="30" as="geometry">
            <mxRectangle width="222" height="30" as="alternateBounds" />
          </mxGeometry>
        </mxCell>
        <mxCell id="-RAdWuRQX7kpM0FOr2N4-267" value="" style="shape=tableRow;horizontal=0;startSize=0;swimlaneHead=0;swimlaneBody=0;fillColor=none;collapsible=0;dropTarget=0;points=[[0,0.5],[1,0.5]];portConstraint=eastwest;top=0;left=0;right=0;bottom=0;fontSize=20;fontStyle=1;whiteSpace=wrap;strokeWidth=2;" parent="-RAdWuRQX7kpM0FOr2N4-257" vertex="1">
          <mxGeometry y="150" width="252" height="30" as="geometry" />
        </mxCell>
        <mxCell id="-RAdWuRQX7kpM0FOr2N4-268" value="" style="shape=partialRectangle;connectable=0;fillColor=none;top=0;left=0;bottom=0;right=0;editable=1;overflow=hidden;whiteSpace=wrap;fontSize=20;fontStyle=1;strokeWidth=2;" parent="-RAdWuRQX7kpM0FOr2N4-267" vertex="1">
          <mxGeometry width="30" height="30" as="geometry">
            <mxRectangle width="30" height="30" as="alternateBounds" />
          </mxGeometry>
        </mxCell>
        <mxCell id="-RAdWuRQX7kpM0FOr2N4-269" value="message" style="shape=partialRectangle;connectable=0;fillColor=none;top=0;left=0;bottom=0;right=0;align=left;spacingLeft=6;overflow=hidden;whiteSpace=wrap;fontSize=20;fontStyle=1;strokeWidth=2;" parent="-RAdWuRQX7kpM0FOr2N4-267" vertex="1">
          <mxGeometry x="30" width="222" height="30" as="geometry">
            <mxRectangle width="222" height="30" as="alternateBounds" />
          </mxGeometry>
        </mxCell>
        <mxCell id="-RAdWuRQX7kpM0FOr2N4-270" style="shape=tableRow;horizontal=0;startSize=0;swimlaneHead=0;swimlaneBody=0;fillColor=none;collapsible=0;dropTarget=0;points=[[0,0.5],[1,0.5]];portConstraint=eastwest;top=0;left=0;right=0;bottom=0;fontSize=20;fontStyle=1;whiteSpace=wrap;strokeWidth=2;" parent="-RAdWuRQX7kpM0FOr2N4-257" vertex="1">
          <mxGeometry y="180" width="252" height="30" as="geometry" />
        </mxCell>
        <mxCell id="-RAdWuRQX7kpM0FOr2N4-271" style="shape=partialRectangle;connectable=0;fillColor=none;top=0;left=0;bottom=0;right=0;editable=1;overflow=hidden;whiteSpace=wrap;fontSize=20;fontStyle=1;strokeWidth=2;" parent="-RAdWuRQX7kpM0FOr2N4-270" vertex="1">
          <mxGeometry width="30" height="30" as="geometry">
            <mxRectangle width="30" height="30" as="alternateBounds" />
          </mxGeometry>
        </mxCell>
        <mxCell id="-RAdWuRQX7kpM0FOr2N4-272" value="is_read" style="shape=partialRectangle;connectable=0;fillColor=none;top=0;left=0;bottom=0;right=0;align=left;spacingLeft=6;overflow=hidden;whiteSpace=wrap;fontSize=20;fontStyle=1;strokeWidth=2;" parent="-RAdWuRQX7kpM0FOr2N4-270" vertex="1">
          <mxGeometry x="30" width="222" height="30" as="geometry">
            <mxRectangle width="222" height="30" as="alternateBounds" />
          </mxGeometry>
        </mxCell>
        <mxCell id="-RAdWuRQX7kpM0FOr2N4-273" style="shape=tableRow;horizontal=0;startSize=0;swimlaneHead=0;swimlaneBody=0;fillColor=none;collapsible=0;dropTarget=0;points=[[0,0.5],[1,0.5]];portConstraint=eastwest;top=0;left=0;right=0;bottom=0;fontSize=20;fontStyle=1;whiteSpace=wrap;strokeWidth=2;" parent="-RAdWuRQX7kpM0FOr2N4-257" vertex="1">
          <mxGeometry y="210" width="252" height="30" as="geometry" />
        </mxCell>
        <mxCell id="-RAdWuRQX7kpM0FOr2N4-274" style="shape=partialRectangle;connectable=0;fillColor=none;top=0;left=0;bottom=0;right=0;editable=1;overflow=hidden;whiteSpace=wrap;fontSize=20;fontStyle=1;strokeWidth=2;" parent="-RAdWuRQX7kpM0FOr2N4-273" vertex="1">
          <mxGeometry width="30" height="30" as="geometry">
            <mxRectangle width="30" height="30" as="alternateBounds" />
          </mxGeometry>
        </mxCell>
        <mxCell id="-RAdWuRQX7kpM0FOr2N4-275" value="" style="shape=partialRectangle;connectable=0;fillColor=none;top=0;left=0;bottom=0;right=0;align=left;spacingLeft=6;overflow=hidden;whiteSpace=wrap;fontSize=20;fontStyle=1;strokeWidth=2;" parent="-RAdWuRQX7kpM0FOr2N4-273" vertex="1">
          <mxGeometry x="30" width="222" height="30" as="geometry">
            <mxRectangle width="222" height="30" as="alternateBounds" />
          </mxGeometry>
        </mxCell>
        <mxCell id="Ffluy86TxCfnXTcbzehv-62" style="edgeStyle=orthogonalEdgeStyle;rounded=1;orthogonalLoop=1;jettySize=auto;html=1;strokeWidth=2;endArrow=none;endFill=0;curved=0;" edge="1" parent="1" source="-RAdWuRQX7kpM0FOr2N4-282" target="Ffluy86TxCfnXTcbzehv-61">
          <mxGeometry relative="1" as="geometry" />
        </mxCell>
        <mxCell id="-RAdWuRQX7kpM0FOr2N4-282" value="event" style="shape=table;startSize=30;container=1;collapsible=1;childLayout=tableLayout;fixedRows=1;rowLines=0;fontStyle=1;align=center;resizeLast=1;fontSize=20;whiteSpace=wrap;strokeWidth=2;" parent="1" vertex="1">
          <mxGeometry x="516" y="1565" width="252" height="210" as="geometry" />
        </mxCell>
        <mxCell id="-RAdWuRQX7kpM0FOr2N4-283" value="" style="shape=tableRow;horizontal=0;startSize=0;swimlaneHead=0;swimlaneBody=0;fillColor=none;collapsible=0;dropTarget=0;points=[[0,0.5],[1,0.5]];portConstraint=eastwest;top=0;left=0;right=0;bottom=1;fontSize=20;fontStyle=1;whiteSpace=wrap;strokeWidth=2;" parent="-RAdWuRQX7kpM0FOr2N4-282" vertex="1">
          <mxGeometry y="30" width="252" height="30" as="geometry" />
        </mxCell>
        <mxCell id="-RAdWuRQX7kpM0FOr2N4-284" value="PK" style="shape=partialRectangle;connectable=0;fillColor=none;top=0;left=0;bottom=0;right=0;fontStyle=1;overflow=hidden;whiteSpace=wrap;fontSize=20;strokeWidth=2;" parent="-RAdWuRQX7kpM0FOr2N4-283" vertex="1">
          <mxGeometry width="30" height="30" as="geometry">
            <mxRectangle width="30" height="30" as="alternateBounds" />
          </mxGeometry>
        </mxCell>
        <mxCell id="-RAdWuRQX7kpM0FOr2N4-285" value="event_id" style="shape=partialRectangle;connectable=0;fillColor=none;top=0;left=0;bottom=0;right=0;align=left;spacingLeft=6;fontStyle=1;overflow=hidden;whiteSpace=wrap;fontSize=20;strokeWidth=2;" parent="-RAdWuRQX7kpM0FOr2N4-283" vertex="1">
          <mxGeometry x="30" width="222" height="30" as="geometry">
            <mxRectangle width="222" height="30" as="alternateBounds" />
          </mxGeometry>
        </mxCell>
        <mxCell id="-RAdWuRQX7kpM0FOr2N4-286" value="" style="shape=tableRow;horizontal=0;startSize=0;swimlaneHead=0;swimlaneBody=0;fillColor=none;collapsible=0;dropTarget=0;points=[[0,0.5],[1,0.5]];portConstraint=eastwest;top=0;left=0;right=0;bottom=0;fontSize=20;fontStyle=1;whiteSpace=wrap;strokeWidth=2;" parent="-RAdWuRQX7kpM0FOr2N4-282" vertex="1">
          <mxGeometry y="60" width="252" height="30" as="geometry" />
        </mxCell>
        <mxCell id="-RAdWuRQX7kpM0FOr2N4-287" value="FK" style="shape=partialRectangle;connectable=0;fillColor=none;top=0;left=0;bottom=0;right=0;editable=1;overflow=hidden;whiteSpace=wrap;fontSize=20;fontStyle=1;strokeWidth=2;" parent="-RAdWuRQX7kpM0FOr2N4-286" vertex="1">
          <mxGeometry width="30" height="30" as="geometry">
            <mxRectangle width="30" height="30" as="alternateBounds" />
          </mxGeometry>
        </mxCell>
        <mxCell id="-RAdWuRQX7kpM0FOr2N4-288" value="representative_id" style="shape=partialRectangle;connectable=0;fillColor=none;top=0;left=0;bottom=0;right=0;align=left;spacingLeft=6;overflow=hidden;whiteSpace=wrap;fontSize=20;fontStyle=1;strokeWidth=2;" parent="-RAdWuRQX7kpM0FOr2N4-286" vertex="1">
          <mxGeometry x="30" width="222" height="30" as="geometry">
            <mxRectangle width="222" height="30" as="alternateBounds" />
          </mxGeometry>
        </mxCell>
        <mxCell id="-RAdWuRQX7kpM0FOr2N4-289" value="" style="shape=tableRow;horizontal=0;startSize=0;swimlaneHead=0;swimlaneBody=0;fillColor=none;collapsible=0;dropTarget=0;points=[[0,0.5],[1,0.5]];portConstraint=eastwest;top=0;left=0;right=0;bottom=0;fontSize=20;fontStyle=1;whiteSpace=wrap;strokeWidth=2;" parent="-RAdWuRQX7kpM0FOr2N4-282" vertex="1">
          <mxGeometry y="90" width="252" height="30" as="geometry" />
        </mxCell>
        <mxCell id="-RAdWuRQX7kpM0FOr2N4-290" value="" style="shape=partialRectangle;connectable=0;fillColor=none;top=0;left=0;bottom=0;right=0;editable=1;overflow=hidden;whiteSpace=wrap;fontSize=20;fontStyle=1;strokeWidth=2;" parent="-RAdWuRQX7kpM0FOr2N4-289" vertex="1">
          <mxGeometry width="30" height="30" as="geometry">
            <mxRectangle width="30" height="30" as="alternateBounds" />
          </mxGeometry>
        </mxCell>
        <mxCell id="-RAdWuRQX7kpM0FOr2N4-291" value="event_title" style="shape=partialRectangle;connectable=0;fillColor=none;top=0;left=0;bottom=0;right=0;align=left;spacingLeft=6;overflow=hidden;whiteSpace=wrap;fontSize=20;fontStyle=1;strokeWidth=2;" parent="-RAdWuRQX7kpM0FOr2N4-289" vertex="1">
          <mxGeometry x="30" width="222" height="30" as="geometry">
            <mxRectangle width="222" height="30" as="alternateBounds" />
          </mxGeometry>
        </mxCell>
        <mxCell id="-RAdWuRQX7kpM0FOr2N4-292" style="shape=tableRow;horizontal=0;startSize=0;swimlaneHead=0;swimlaneBody=0;fillColor=none;collapsible=0;dropTarget=0;points=[[0,0.5],[1,0.5]];portConstraint=eastwest;top=0;left=0;right=0;bottom=0;fontSize=20;fontStyle=1;whiteSpace=wrap;strokeWidth=2;" parent="-RAdWuRQX7kpM0FOr2N4-282" vertex="1">
          <mxGeometry y="120" width="252" height="30" as="geometry" />
        </mxCell>
        <mxCell id="-RAdWuRQX7kpM0FOr2N4-293" style="shape=partialRectangle;connectable=0;fillColor=none;top=0;left=0;bottom=0;right=0;editable=1;overflow=hidden;whiteSpace=wrap;fontSize=20;fontStyle=1;strokeWidth=2;" parent="-RAdWuRQX7kpM0FOr2N4-292" vertex="1">
          <mxGeometry width="30" height="30" as="geometry">
            <mxRectangle width="30" height="30" as="alternateBounds" />
          </mxGeometry>
        </mxCell>
        <mxCell id="-RAdWuRQX7kpM0FOr2N4-294" value="description" style="shape=partialRectangle;connectable=0;fillColor=none;top=0;left=0;bottom=0;right=0;align=left;spacingLeft=6;overflow=hidden;whiteSpace=wrap;fontSize=20;fontStyle=1;strokeWidth=2;" parent="-RAdWuRQX7kpM0FOr2N4-292" vertex="1">
          <mxGeometry x="30" width="222" height="30" as="geometry">
            <mxRectangle width="222" height="30" as="alternateBounds" />
          </mxGeometry>
        </mxCell>
        <mxCell id="-RAdWuRQX7kpM0FOr2N4-298" style="shape=tableRow;horizontal=0;startSize=0;swimlaneHead=0;swimlaneBody=0;fillColor=none;collapsible=0;dropTarget=0;points=[[0,0.5],[1,0.5]];portConstraint=eastwest;top=0;left=0;right=0;bottom=0;fontSize=20;fontStyle=1;whiteSpace=wrap;strokeWidth=2;" parent="-RAdWuRQX7kpM0FOr2N4-282" vertex="1">
          <mxGeometry y="150" width="252" height="30" as="geometry" />
        </mxCell>
        <mxCell id="-RAdWuRQX7kpM0FOr2N4-299" style="shape=partialRectangle;connectable=0;fillColor=none;top=0;left=0;bottom=0;right=0;editable=1;overflow=hidden;whiteSpace=wrap;fontSize=20;fontStyle=1;strokeWidth=2;" parent="-RAdWuRQX7kpM0FOr2N4-298" vertex="1">
          <mxGeometry width="30" height="30" as="geometry">
            <mxRectangle width="30" height="30" as="alternateBounds" />
          </mxGeometry>
        </mxCell>
        <mxCell id="-RAdWuRQX7kpM0FOr2N4-300" value="location" style="shape=partialRectangle;connectable=0;fillColor=none;top=0;left=0;bottom=0;right=0;align=left;spacingLeft=6;overflow=hidden;whiteSpace=wrap;fontSize=20;fontStyle=1;strokeWidth=2;" parent="-RAdWuRQX7kpM0FOr2N4-298" vertex="1">
          <mxGeometry x="30" width="222" height="30" as="geometry">
            <mxRectangle width="222" height="30" as="alternateBounds" />
          </mxGeometry>
        </mxCell>
        <mxCell id="-RAdWuRQX7kpM0FOr2N4-295" style="shape=tableRow;horizontal=0;startSize=0;swimlaneHead=0;swimlaneBody=0;fillColor=none;collapsible=0;dropTarget=0;points=[[0,0.5],[1,0.5]];portConstraint=eastwest;top=0;left=0;right=0;bottom=0;fontSize=20;fontStyle=1;whiteSpace=wrap;strokeWidth=2;" parent="-RAdWuRQX7kpM0FOr2N4-282" vertex="1">
          <mxGeometry y="180" width="252" height="30" as="geometry" />
        </mxCell>
        <mxCell id="-RAdWuRQX7kpM0FOr2N4-296" style="shape=partialRectangle;connectable=0;fillColor=none;top=0;left=0;bottom=0;right=0;editable=1;overflow=hidden;whiteSpace=wrap;fontSize=20;fontStyle=1;strokeWidth=2;" parent="-RAdWuRQX7kpM0FOr2N4-295" vertex="1">
          <mxGeometry width="30" height="30" as="geometry">
            <mxRectangle width="30" height="30" as="alternateBounds" />
          </mxGeometry>
        </mxCell>
        <mxCell id="-RAdWuRQX7kpM0FOr2N4-297" style="shape=partialRectangle;connectable=0;fillColor=none;top=0;left=0;bottom=0;right=0;align=left;spacingLeft=6;overflow=hidden;whiteSpace=wrap;fontSize=20;fontStyle=1;strokeWidth=2;" parent="-RAdWuRQX7kpM0FOr2N4-295" vertex="1">
          <mxGeometry x="30" width="222" height="30" as="geometry">
            <mxRectangle width="222" height="30" as="alternateBounds" />
          </mxGeometry>
        </mxCell>
        <mxCell id="Ffluy86TxCfnXTcbzehv-1" value="constituency" style="shape=table;startSize=30;container=1;collapsible=1;childLayout=tableLayout;fixedRows=1;rowLines=0;fontStyle=1;align=center;resizeLast=1;fontSize=20;whiteSpace=wrap;strokeWidth=2;" vertex="1" parent="1">
          <mxGeometry x="868" y="2290" width="296" height="150" as="geometry" />
        </mxCell>
        <mxCell id="Ffluy86TxCfnXTcbzehv-2" value="" style="shape=tableRow;horizontal=0;startSize=0;swimlaneHead=0;swimlaneBody=0;fillColor=none;collapsible=0;dropTarget=0;points=[[0,0.5],[1,0.5]];portConstraint=eastwest;top=0;left=0;right=0;bottom=1;fontSize=20;fontStyle=1;whiteSpace=wrap;strokeWidth=2;" vertex="1" parent="Ffluy86TxCfnXTcbzehv-1">
          <mxGeometry y="30" width="296" height="30" as="geometry" />
        </mxCell>
        <mxCell id="Ffluy86TxCfnXTcbzehv-3" value="PK" style="shape=partialRectangle;connectable=0;fillColor=none;top=0;left=0;bottom=0;right=0;fontStyle=1;overflow=hidden;whiteSpace=wrap;fontSize=20;strokeWidth=2;" vertex="1" parent="Ffluy86TxCfnXTcbzehv-2">
          <mxGeometry width="30" height="30" as="geometry">
            <mxRectangle width="30" height="30" as="alternateBounds" />
          </mxGeometry>
        </mxCell>
        <mxCell id="Ffluy86TxCfnXTcbzehv-4" value="constituency_id" style="shape=partialRectangle;connectable=0;fillColor=none;top=0;left=0;bottom=0;right=0;align=left;spacingLeft=6;fontStyle=1;overflow=hidden;whiteSpace=wrap;fontSize=20;strokeWidth=2;" vertex="1" parent="Ffluy86TxCfnXTcbzehv-2">
          <mxGeometry x="30" width="266" height="30" as="geometry">
            <mxRectangle width="266" height="30" as="alternateBounds" />
          </mxGeometry>
        </mxCell>
        <mxCell id="Ffluy86TxCfnXTcbzehv-5" value="" style="shape=tableRow;horizontal=0;startSize=0;swimlaneHead=0;swimlaneBody=0;fillColor=none;collapsible=0;dropTarget=0;points=[[0,0.5],[1,0.5]];portConstraint=eastwest;top=0;left=0;right=0;bottom=0;fontSize=20;fontStyle=1;whiteSpace=wrap;strokeWidth=2;" vertex="1" parent="Ffluy86TxCfnXTcbzehv-1">
          <mxGeometry y="60" width="296" height="30" as="geometry" />
        </mxCell>
        <mxCell id="Ffluy86TxCfnXTcbzehv-6" value="" style="shape=partialRectangle;connectable=0;fillColor=none;top=0;left=0;bottom=0;right=0;editable=1;overflow=hidden;whiteSpace=wrap;fontSize=20;fontStyle=1;strokeWidth=2;" vertex="1" parent="Ffluy86TxCfnXTcbzehv-5">
          <mxGeometry width="30" height="30" as="geometry">
            <mxRectangle width="30" height="30" as="alternateBounds" />
          </mxGeometry>
        </mxCell>
        <mxCell id="Ffluy86TxCfnXTcbzehv-7" value="constituency_number" style="shape=partialRectangle;connectable=0;fillColor=none;top=0;left=0;bottom=0;right=0;align=left;spacingLeft=6;overflow=hidden;whiteSpace=wrap;fontSize=20;fontStyle=1;strokeWidth=2;" vertex="1" parent="Ffluy86TxCfnXTcbzehv-5">
          <mxGeometry x="30" width="266" height="30" as="geometry">
            <mxRectangle width="266" height="30" as="alternateBounds" />
          </mxGeometry>
        </mxCell>
        <mxCell id="Ffluy86TxCfnXTcbzehv-8" value="" style="shape=tableRow;horizontal=0;startSize=0;swimlaneHead=0;swimlaneBody=0;fillColor=none;collapsible=0;dropTarget=0;points=[[0,0.5],[1,0.5]];portConstraint=eastwest;top=0;left=0;right=0;bottom=0;fontSize=20;fontStyle=1;whiteSpace=wrap;strokeWidth=2;" vertex="1" parent="Ffluy86TxCfnXTcbzehv-1">
          <mxGeometry y="90" width="296" height="30" as="geometry" />
        </mxCell>
        <mxCell id="Ffluy86TxCfnXTcbzehv-9" value="" style="shape=partialRectangle;connectable=0;fillColor=none;top=0;left=0;bottom=0;right=0;editable=1;overflow=hidden;whiteSpace=wrap;fontSize=20;fontStyle=1;strokeWidth=2;" vertex="1" parent="Ffluy86TxCfnXTcbzehv-8">
          <mxGeometry width="30" height="30" as="geometry">
            <mxRectangle width="30" height="30" as="alternateBounds" />
          </mxGeometry>
        </mxCell>
        <mxCell id="Ffluy86TxCfnXTcbzehv-10" value="" style="shape=partialRectangle;connectable=0;fillColor=none;top=0;left=0;bottom=0;right=0;align=left;spacingLeft=6;overflow=hidden;whiteSpace=wrap;fontSize=20;fontStyle=1;strokeWidth=2;" vertex="1" parent="Ffluy86TxCfnXTcbzehv-8">
          <mxGeometry x="30" width="266" height="30" as="geometry">
            <mxRectangle width="266" height="30" as="alternateBounds" />
          </mxGeometry>
        </mxCell>
        <mxCell id="Ffluy86TxCfnXTcbzehv-11" style="shape=tableRow;horizontal=0;startSize=0;swimlaneHead=0;swimlaneBody=0;fillColor=none;collapsible=0;dropTarget=0;points=[[0,0.5],[1,0.5]];portConstraint=eastwest;top=0;left=0;right=0;bottom=0;fontSize=20;fontStyle=1;whiteSpace=wrap;strokeWidth=2;" vertex="1" parent="Ffluy86TxCfnXTcbzehv-1">
          <mxGeometry y="120" width="296" height="30" as="geometry" />
        </mxCell>
        <mxCell id="Ffluy86TxCfnXTcbzehv-12" style="shape=partialRectangle;connectable=0;fillColor=none;top=0;left=0;bottom=0;right=0;editable=1;overflow=hidden;whiteSpace=wrap;fontSize=20;fontStyle=1;strokeWidth=2;" vertex="1" parent="Ffluy86TxCfnXTcbzehv-11">
          <mxGeometry width="30" height="30" as="geometry">
            <mxRectangle width="30" height="30" as="alternateBounds" />
          </mxGeometry>
        </mxCell>
        <mxCell id="Ffluy86TxCfnXTcbzehv-13" value="" style="shape=partialRectangle;connectable=0;fillColor=none;top=0;left=0;bottom=0;right=0;align=left;spacingLeft=6;overflow=hidden;whiteSpace=wrap;fontSize=20;fontStyle=1;strokeWidth=2;" vertex="1" parent="Ffluy86TxCfnXTcbzehv-11">
          <mxGeometry x="30" width="266" height="30" as="geometry">
            <mxRectangle width="266" height="30" as="alternateBounds" />
          </mxGeometry>
        </mxCell>
        <mxCell id="Ffluy86TxCfnXTcbzehv-23" style="edgeStyle=orthogonalEdgeStyle;rounded=1;orthogonalLoop=1;jettySize=auto;html=1;endArrow=none;endFill=0;strokeWidth=2;fontSize=20;fontStyle=1;curved=0;" edge="1" parent="1" source="Ffluy86TxCfnXTcbzehv-17" target="-RAdWuRQX7kpM0FOr2N4-248">
          <mxGeometry relative="1" as="geometry" />
        </mxCell>
        <mxCell id="Ffluy86TxCfnXTcbzehv-17" value="&lt;font style=&quot;font-size: 15px;&quot;&gt;belongs to&lt;/font&gt;" style="rhombus;whiteSpace=wrap;html=1;strokeWidth=2;fontSize=20;fontStyle=1" vertex="1" parent="1">
          <mxGeometry x="608" y="454" width="96" height="96" as="geometry" />
        </mxCell>
        <mxCell id="Ffluy86TxCfnXTcbzehv-28" style="edgeStyle=orthogonalEdgeStyle;rounded=1;orthogonalLoop=1;jettySize=auto;html=1;exitX=0.5;exitY=1;exitDx=0;exitDy=0;entryX=0.25;entryY=0;entryDx=0;entryDy=0;strokeWidth=2;endArrow=none;endFill=0;curved=0;" edge="1" parent="1" source="Ffluy86TxCfnXTcbzehv-25" target="-RAdWuRQX7kpM0FOr2N4-191">
          <mxGeometry relative="1" as="geometry" />
        </mxCell>
        <mxCell id="Ffluy86TxCfnXTcbzehv-25" value="&lt;font style=&quot;font-size: 15px;&quot;&gt;entertains&lt;/font&gt;" style="rhombus;whiteSpace=wrap;html=1;strokeWidth=2;fontSize=20;fontStyle=1" vertex="1" parent="1">
          <mxGeometry x="391" y="439" width="96" height="96" as="geometry" />
        </mxCell>
        <mxCell id="Ffluy86TxCfnXTcbzehv-30" style="edgeStyle=orthogonalEdgeStyle;rounded=1;orthogonalLoop=1;jettySize=auto;html=1;entryX=0;entryY=0.5;entryDx=0;entryDy=0;strokeWidth=2;endArrow=none;endFill=0;curved=0;" edge="1" parent="1" source="Ffluy86TxCfnXTcbzehv-26" target="-RAdWuRQX7kpM0FOr2N4-198">
          <mxGeometry relative="1" as="geometry" />
        </mxCell>
        <mxCell id="Ffluy86TxCfnXTcbzehv-26" value="&lt;font style=&quot;font-size: 15px;&quot;&gt;entertains&lt;/font&gt;" style="rhombus;whiteSpace=wrap;html=1;strokeWidth=2;fontSize=20;fontStyle=1" vertex="1" parent="1">
          <mxGeometry x="175" y="642" width="96" height="96" as="geometry" />
        </mxCell>
        <mxCell id="Ffluy86TxCfnXTcbzehv-27" style="edgeStyle=orthogonalEdgeStyle;rounded=1;orthogonalLoop=1;jettySize=auto;html=1;strokeWidth=2;endArrow=none;endFill=0;exitX=0.165;exitY=1.006;exitDx=0;exitDy=0;exitPerimeter=0;curved=0;" edge="1" parent="1" source="-RAdWuRQX7kpM0FOr2N4-74" target="Ffluy86TxCfnXTcbzehv-25">
          <mxGeometry relative="1" as="geometry">
            <mxPoint x="444" y="398" as="sourcePoint" />
            <Array as="points">
              <mxPoint x="439" y="394" />
              <mxPoint x="439" y="394" />
            </Array>
          </mxGeometry>
        </mxCell>
        <mxCell id="Ffluy86TxCfnXTcbzehv-33" style="edgeStyle=orthogonalEdgeStyle;rounded=1;orthogonalLoop=1;jettySize=auto;html=1;entryX=1;entryY=0.5;entryDx=0;entryDy=0;strokeWidth=2;endArrow=none;endFill=0;curved=0;" edge="1" parent="1" source="Ffluy86TxCfnXTcbzehv-31" target="-RAdWuRQX7kpM0FOr2N4-195">
          <mxGeometry relative="1" as="geometry" />
        </mxCell>
        <mxCell id="Ffluy86TxCfnXTcbzehv-31" value="&lt;font style=&quot;font-size: 15px;&quot;&gt;files&lt;/font&gt;" style="rhombus;whiteSpace=wrap;html=1;strokeWidth=2;fontSize=20;fontStyle=1" vertex="1" parent="1">
          <mxGeometry x="922" y="612" width="96" height="96" as="geometry" />
        </mxCell>
        <mxCell id="Ffluy86TxCfnXTcbzehv-37" style="edgeStyle=orthogonalEdgeStyle;rounded=1;orthogonalLoop=1;jettySize=auto;html=1;entryX=0;entryY=0.5;entryDx=0;entryDy=0;strokeWidth=2;endArrow=none;endFill=0;curved=0;" edge="1" parent="1" source="Ffluy86TxCfnXTcbzehv-35" target="-RAdWuRQX7kpM0FOr2N4-279">
          <mxGeometry relative="1" as="geometry">
            <Array as="points">
              <mxPoint x="773" y="830" />
            </Array>
          </mxGeometry>
        </mxCell>
        <mxCell id="Ffluy86TxCfnXTcbzehv-35" value="&lt;font style=&quot;font-size: 15px;&quot;&gt;triggers&lt;/font&gt;" style="rhombus;whiteSpace=wrap;html=1;strokeWidth=2;fontSize=20;fontStyle=1" vertex="1" parent="1">
          <mxGeometry x="725" y="715" width="96" height="96" as="geometry" />
        </mxCell>
        <mxCell id="Ffluy86TxCfnXTcbzehv-36" style="edgeStyle=orthogonalEdgeStyle;rounded=1;orthogonalLoop=1;jettySize=auto;html=1;entryX=0.5;entryY=0;entryDx=0;entryDy=0;exitX=1;exitY=0.5;exitDx=0;exitDy=0;strokeWidth=2;endArrow=none;endFill=0;curved=0;" edge="1" parent="1" source="-RAdWuRQX7kpM0FOr2N4-198" target="Ffluy86TxCfnXTcbzehv-35">
          <mxGeometry relative="1" as="geometry">
            <Array as="points">
              <mxPoint x="628" y="694" />
              <mxPoint x="773" y="694" />
            </Array>
          </mxGeometry>
        </mxCell>
        <mxCell id="Ffluy86TxCfnXTcbzehv-39" value="&lt;font style=&quot;font-size: 15px;&quot;&gt;recieves&lt;/font&gt;" style="rhombus;whiteSpace=wrap;html=1;strokeWidth=2;fontSize=20;fontStyle=1" vertex="1" parent="1">
          <mxGeometry x="1249" y="692" width="96" height="96" as="geometry" />
        </mxCell>
        <mxCell id="Ffluy86TxCfnXTcbzehv-41" style="edgeStyle=orthogonalEdgeStyle;rounded=1;orthogonalLoop=1;jettySize=auto;html=1;entryX=0.5;entryY=1;entryDx=0;entryDy=0;strokeWidth=2;endArrow=none;endFill=0;curved=0;" edge="1" parent="1" source="-RAdWuRQX7kpM0FOr2N4-276" target="Ffluy86TxCfnXTcbzehv-39">
          <mxGeometry relative="1" as="geometry" />
        </mxCell>
        <mxCell id="Ffluy86TxCfnXTcbzehv-42" style="edgeStyle=orthogonalEdgeStyle;rounded=1;orthogonalLoop=1;jettySize=auto;html=1;strokeWidth=2;endArrow=none;endFill=0;exitX=0.5;exitY=0;exitDx=0;exitDy=0;curved=0;" edge="1" parent="1" source="Ffluy86TxCfnXTcbzehv-39">
          <mxGeometry relative="1" as="geometry">
            <mxPoint x="1296" y="447" as="targetPoint" />
            <Array as="points">
              <mxPoint x="1297" y="447" />
            </Array>
          </mxGeometry>
        </mxCell>
        <mxCell id="Ffluy86TxCfnXTcbzehv-45" style="edgeStyle=orthogonalEdgeStyle;rounded=1;orthogonalLoop=1;jettySize=auto;html=1;entryX=1;entryY=0.5;entryDx=0;entryDy=0;strokeWidth=2;endArrow=none;endFill=0;curved=0;" edge="1" parent="1" source="Ffluy86TxCfnXTcbzehv-43" target="-RAdWuRQX7kpM0FOr2N4-241">
          <mxGeometry relative="1" as="geometry" />
        </mxCell>
        <mxCell id="Ffluy86TxCfnXTcbzehv-43" value="&lt;font style=&quot;font-size: 15px;&quot;&gt;views&lt;/font&gt;" style="rhombus;whiteSpace=wrap;html=1;strokeWidth=2;fontSize=20;fontStyle=1" vertex="1" parent="1">
          <mxGeometry x="1185" y="1027" width="96" height="96" as="geometry" />
        </mxCell>
        <mxCell id="Ffluy86TxCfnXTcbzehv-48" style="edgeStyle=orthogonalEdgeStyle;rounded=1;orthogonalLoop=1;jettySize=auto;html=1;endArrow=none;endFill=0;entryX=0.641;entryY=0.981;entryDx=0;entryDy=0;entryPerimeter=0;strokeWidth=2;curved=0;" edge="1" parent="1" source="Ffluy86TxCfnXTcbzehv-46" target="-RAdWuRQX7kpM0FOr2N4-210">
          <mxGeometry relative="1" as="geometry">
            <mxPoint x="537" y="888" as="targetPoint" />
          </mxGeometry>
        </mxCell>
        <mxCell id="Ffluy86TxCfnXTcbzehv-46" value="&lt;font style=&quot;font-size: 15px;&quot;&gt;use&lt;/font&gt;" style="rhombus;whiteSpace=wrap;html=1;strokeWidth=2;fontSize=20;fontStyle=1" vertex="1" parent="1">
          <mxGeometry x="489" y="997" width="96" height="96" as="geometry" />
        </mxCell>
        <mxCell id="Ffluy86TxCfnXTcbzehv-51" style="edgeStyle=orthogonalEdgeStyle;rounded=1;orthogonalLoop=1;jettySize=auto;html=1;entryX=0;entryY=0.5;entryDx=0;entryDy=0;endArrow=none;endFill=0;strokeWidth=2;curved=0;" edge="1" parent="1" source="Ffluy86TxCfnXTcbzehv-50" target="-RAdWuRQX7kpM0FOr2N4-81">
          <mxGeometry relative="1" as="geometry" />
        </mxCell>
        <mxCell id="Ffluy86TxCfnXTcbzehv-50" value="&lt;font style=&quot;font-size: 15px;&quot;&gt;organize&lt;/font&gt;" style="rhombus;whiteSpace=wrap;html=1;strokeWidth=2;fontSize=20;fontStyle=1" vertex="1" parent="1">
          <mxGeometry x="33" y="747" width="96" height="96" as="geometry" />
        </mxCell>
        <mxCell id="Ffluy86TxCfnXTcbzehv-56" style="edgeStyle=orthogonalEdgeStyle;rounded=0;orthogonalLoop=1;jettySize=auto;html=1;exitX=1;exitY=0.5;exitDx=0;exitDy=0;entryX=0;entryY=0.5;entryDx=0;entryDy=0;endArrow=none;endFill=0;strokeWidth=2;" edge="1" parent="1" source="Ffluy86TxCfnXTcbzehv-54" target="-RAdWuRQX7kpM0FOr2N4-283">
          <mxGeometry relative="1" as="geometry" />
        </mxCell>
        <mxCell id="Ffluy86TxCfnXTcbzehv-54" value="&lt;font style=&quot;font-size: 15px;&quot;&gt;contains&lt;/font&gt;" style="rhombus;whiteSpace=wrap;html=1;strokeWidth=2;fontSize=20;fontStyle=1" vertex="1" parent="1">
          <mxGeometry x="339" y="1563" width="96" height="96" as="geometry" />
        </mxCell>
        <mxCell id="Ffluy86TxCfnXTcbzehv-58" value="&lt;font style=&quot;font-size: 15px;&quot;&gt;access&lt;/font&gt;" style="rhombus;whiteSpace=wrap;html=1;strokeWidth=2;fontSize=20;fontStyle=1" vertex="1" parent="1">
          <mxGeometry x="1092" y="1453" width="96" height="96" as="geometry" />
        </mxCell>
        <mxCell id="Ffluy86TxCfnXTcbzehv-59" style="edgeStyle=orthogonalEdgeStyle;rounded=1;orthogonalLoop=1;jettySize=auto;html=1;entryX=0;entryY=0.5;entryDx=0;entryDy=0;strokeWidth=2;endArrow=none;endFill=0;curved=0;" edge="1" parent="1" source="-RAdWuRQX7kpM0FOr2N4-84" target="Ffluy86TxCfnXTcbzehv-58">
          <mxGeometry relative="1" as="geometry" />
        </mxCell>
        <mxCell id="Ffluy86TxCfnXTcbzehv-61" value="&lt;font style=&quot;font-size: 15px;&quot;&gt;participates in&lt;/font&gt;" style="rhombus;whiteSpace=wrap;html=1;strokeWidth=2;fontSize=20;fontStyle=1" vertex="1" parent="1">
          <mxGeometry x="1175" y="1608" width="126" height="126" as="geometry" />
        </mxCell>
        <mxCell id="Ffluy86TxCfnXTcbzehv-65" value="&lt;font style=&quot;font-size: 15px;&quot;&gt;organize&lt;/font&gt;" style="rhombus;whiteSpace=wrap;html=1;strokeWidth=2;fontSize=20;fontStyle=1" vertex="1" parent="1">
          <mxGeometry x="115" y="1633" width="96" height="96" as="geometry" />
        </mxCell>
        <mxCell id="Ffluy86TxCfnXTcbzehv-66" style="edgeStyle=orthogonalEdgeStyle;rounded=1;orthogonalLoop=1;jettySize=auto;html=1;entryX=-0.011;entryY=0.871;entryDx=0;entryDy=0;entryPerimeter=0;strokeWidth=2;endArrow=none;endFill=0;curved=0;" edge="1" parent="1" source="Ffluy86TxCfnXTcbzehv-65" target="-RAdWuRQX7kpM0FOr2N4-289">
          <mxGeometry relative="1" as="geometry" />
        </mxCell>
        <mxCell id="Ffluy86TxCfnXTcbzehv-73" style="edgeStyle=orthogonalEdgeStyle;rounded=1;orthogonalLoop=1;jettySize=auto;html=1;entryX=1;entryY=0.5;entryDx=0;entryDy=0;strokeWidth=2;endArrow=none;endFill=0;curved=0;" edge="1" parent="1" source="Ffluy86TxCfnXTcbzehv-68" target="-RAdWuRQX7kpM0FOr2N4-94">
          <mxGeometry relative="1" as="geometry" />
        </mxCell>
        <mxCell id="Ffluy86TxCfnXTcbzehv-68" value="&lt;font style=&quot;font-size: 15px;&quot;&gt;joins&lt;/font&gt;" style="rhombus;whiteSpace=wrap;html=1;strokeWidth=2;fontSize=20;fontStyle=1" vertex="1" parent="1">
          <mxGeometry x="1291" y="1761" width="69" height="69" as="geometry" />
        </mxCell>
        <mxCell id="Ffluy86TxCfnXTcbzehv-71" style="edgeStyle=orthogonalEdgeStyle;rounded=1;orthogonalLoop=1;jettySize=auto;html=1;entryX=0;entryY=0.5;entryDx=0;entryDy=0;strokeWidth=2;endArrow=none;endFill=0;curved=0;" edge="1" parent="1" source="Ffluy86TxCfnXTcbzehv-69" target="-RAdWuRQX7kpM0FOr2N4-94">
          <mxGeometry relative="1" as="geometry" />
        </mxCell>
        <mxCell id="Ffluy86TxCfnXTcbzehv-69" value="&lt;span style=&quot;font-size: 15px;&quot;&gt;schedule&lt;/span&gt;" style="rhombus;whiteSpace=wrap;html=1;strokeWidth=2;fontSize=20;fontStyle=1" vertex="1" parent="1">
          <mxGeometry x="305" y="1744" width="102" height="102" as="geometry" />
        </mxCell>
        <mxCell id="Ffluy86TxCfnXTcbzehv-74" value="feedback " style="shape=table;startSize=30;container=1;collapsible=1;childLayout=tableLayout;fixedRows=1;rowLines=0;fontStyle=1;align=center;resizeLast=1;fontSize=20;whiteSpace=wrap;strokeWidth=2;" vertex="1" parent="1">
          <mxGeometry x="282" y="1154" width="252" height="210" as="geometry" />
        </mxCell>
        <mxCell id="Ffluy86TxCfnXTcbzehv-75" value="" style="shape=tableRow;horizontal=0;startSize=0;swimlaneHead=0;swimlaneBody=0;fillColor=none;collapsible=0;dropTarget=0;points=[[0,0.5],[1,0.5]];portConstraint=eastwest;top=0;left=0;right=0;bottom=1;fontSize=20;fontStyle=1;whiteSpace=wrap;strokeWidth=2;" vertex="1" parent="Ffluy86TxCfnXTcbzehv-74">
          <mxGeometry y="30" width="252" height="30" as="geometry" />
        </mxCell>
        <mxCell id="Ffluy86TxCfnXTcbzehv-76" value="PK" style="shape=partialRectangle;connectable=0;fillColor=none;top=0;left=0;bottom=0;right=0;fontStyle=1;overflow=hidden;whiteSpace=wrap;fontSize=20;strokeWidth=2;" vertex="1" parent="Ffluy86TxCfnXTcbzehv-75">
          <mxGeometry width="30" height="30" as="geometry">
            <mxRectangle width="30" height="30" as="alternateBounds" />
          </mxGeometry>
        </mxCell>
        <mxCell id="Ffluy86TxCfnXTcbzehv-77" value="feedback_id" style="shape=partialRectangle;connectable=0;fillColor=none;top=0;left=0;bottom=0;right=0;align=left;spacingLeft=6;fontStyle=1;overflow=hidden;whiteSpace=wrap;fontSize=20;strokeWidth=2;" vertex="1" parent="Ffluy86TxCfnXTcbzehv-75">
          <mxGeometry x="30" width="222" height="30" as="geometry">
            <mxRectangle width="222" height="30" as="alternateBounds" />
          </mxGeometry>
        </mxCell>
        <mxCell id="Ffluy86TxCfnXTcbzehv-78" style="shape=tableRow;horizontal=0;startSize=0;swimlaneHead=0;swimlaneBody=0;fillColor=none;collapsible=0;dropTarget=0;points=[[0,0.5],[1,0.5]];portConstraint=eastwest;top=0;left=0;right=0;bottom=0;fontSize=20;fontStyle=1;whiteSpace=wrap;strokeWidth=2;" vertex="1" parent="Ffluy86TxCfnXTcbzehv-74">
          <mxGeometry y="60" width="252" height="30" as="geometry" />
        </mxCell>
        <mxCell id="Ffluy86TxCfnXTcbzehv-79" value="FK" style="shape=partialRectangle;connectable=0;fillColor=none;top=0;left=0;bottom=0;right=0;editable=1;overflow=hidden;whiteSpace=wrap;fontSize=20;fontStyle=1;strokeWidth=2;" vertex="1" parent="Ffluy86TxCfnXTcbzehv-78">
          <mxGeometry width="30" height="30" as="geometry">
            <mxRectangle width="30" height="30" as="alternateBounds" />
          </mxGeometry>
        </mxCell>
        <mxCell id="Ffluy86TxCfnXTcbzehv-80" value="constituent_id" style="shape=partialRectangle;connectable=0;fillColor=none;top=0;left=0;bottom=0;right=0;align=left;spacingLeft=6;overflow=hidden;whiteSpace=wrap;fontSize=20;fontStyle=1;strokeWidth=2;" vertex="1" parent="Ffluy86TxCfnXTcbzehv-78">
          <mxGeometry x="30" width="222" height="30" as="geometry">
            <mxRectangle width="222" height="30" as="alternateBounds" />
          </mxGeometry>
        </mxCell>
        <mxCell id="Ffluy86TxCfnXTcbzehv-81" value="" style="shape=tableRow;horizontal=0;startSize=0;swimlaneHead=0;swimlaneBody=0;fillColor=none;collapsible=0;dropTarget=0;points=[[0,0.5],[1,0.5]];portConstraint=eastwest;top=0;left=0;right=0;bottom=0;fontSize=20;fontStyle=1;whiteSpace=wrap;strokeWidth=2;" vertex="1" parent="Ffluy86TxCfnXTcbzehv-74">
          <mxGeometry y="90" width="252" height="30" as="geometry" />
        </mxCell>
        <mxCell id="Ffluy86TxCfnXTcbzehv-82" value="FK" style="shape=partialRectangle;connectable=0;fillColor=none;top=0;left=0;bottom=0;right=0;editable=1;overflow=hidden;whiteSpace=wrap;fontSize=20;fontStyle=1;strokeWidth=2;" vertex="1" parent="Ffluy86TxCfnXTcbzehv-81">
          <mxGeometry width="30" height="30" as="geometry">
            <mxRectangle width="30" height="30" as="alternateBounds" />
          </mxGeometry>
        </mxCell>
        <mxCell id="Ffluy86TxCfnXTcbzehv-83" value="complaint_id" style="shape=partialRectangle;connectable=0;fillColor=none;top=0;left=0;bottom=0;right=0;align=left;spacingLeft=6;overflow=hidden;whiteSpace=wrap;fontSize=20;fontStyle=1;strokeWidth=2;" vertex="1" parent="Ffluy86TxCfnXTcbzehv-81">
          <mxGeometry x="30" width="222" height="30" as="geometry">
            <mxRectangle width="222" height="30" as="alternateBounds" />
          </mxGeometry>
        </mxCell>
        <mxCell id="Ffluy86TxCfnXTcbzehv-84" value="" style="shape=tableRow;horizontal=0;startSize=0;swimlaneHead=0;swimlaneBody=0;fillColor=none;collapsible=0;dropTarget=0;points=[[0,0.5],[1,0.5]];portConstraint=eastwest;top=0;left=0;right=0;bottom=0;fontSize=20;fontStyle=1;whiteSpace=wrap;strokeWidth=2;" vertex="1" parent="Ffluy86TxCfnXTcbzehv-74">
          <mxGeometry y="120" width="252" height="30" as="geometry" />
        </mxCell>
        <mxCell id="Ffluy86TxCfnXTcbzehv-85" value="" style="shape=partialRectangle;connectable=0;fillColor=none;top=0;left=0;bottom=0;right=0;editable=1;overflow=hidden;whiteSpace=wrap;fontSize=20;fontStyle=1;strokeWidth=2;" vertex="1" parent="Ffluy86TxCfnXTcbzehv-84">
          <mxGeometry width="30" height="30" as="geometry">
            <mxRectangle width="30" height="30" as="alternateBounds" />
          </mxGeometry>
        </mxCell>
        <mxCell id="Ffluy86TxCfnXTcbzehv-86" value="rating" style="shape=partialRectangle;connectable=0;fillColor=none;top=0;left=0;bottom=0;right=0;align=left;spacingLeft=6;overflow=hidden;whiteSpace=wrap;fontSize=20;fontStyle=1;strokeWidth=2;" vertex="1" parent="Ffluy86TxCfnXTcbzehv-84">
          <mxGeometry x="30" width="222" height="30" as="geometry">
            <mxRectangle width="222" height="30" as="alternateBounds" />
          </mxGeometry>
        </mxCell>
        <mxCell id="Ffluy86TxCfnXTcbzehv-87" style="shape=tableRow;horizontal=0;startSize=0;swimlaneHead=0;swimlaneBody=0;fillColor=none;collapsible=0;dropTarget=0;points=[[0,0.5],[1,0.5]];portConstraint=eastwest;top=0;left=0;right=0;bottom=0;fontSize=20;fontStyle=1;whiteSpace=wrap;strokeWidth=2;" vertex="1" parent="Ffluy86TxCfnXTcbzehv-74">
          <mxGeometry y="150" width="252" height="30" as="geometry" />
        </mxCell>
        <mxCell id="Ffluy86TxCfnXTcbzehv-88" style="shape=partialRectangle;connectable=0;fillColor=none;top=0;left=0;bottom=0;right=0;editable=1;overflow=hidden;whiteSpace=wrap;fontSize=20;fontStyle=1;strokeWidth=2;" vertex="1" parent="Ffluy86TxCfnXTcbzehv-87">
          <mxGeometry width="30" height="30" as="geometry">
            <mxRectangle width="30" height="30" as="alternateBounds" />
          </mxGeometry>
        </mxCell>
        <mxCell id="Ffluy86TxCfnXTcbzehv-89" value="comment" style="shape=partialRectangle;connectable=0;fillColor=none;top=0;left=0;bottom=0;right=0;align=left;spacingLeft=6;overflow=hidden;whiteSpace=wrap;fontSize=20;fontStyle=1;strokeWidth=2;" vertex="1" parent="Ffluy86TxCfnXTcbzehv-87">
          <mxGeometry x="30" width="222" height="30" as="geometry">
            <mxRectangle width="222" height="30" as="alternateBounds" />
          </mxGeometry>
        </mxCell>
        <mxCell id="Ffluy86TxCfnXTcbzehv-90" style="shape=tableRow;horizontal=0;startSize=0;swimlaneHead=0;swimlaneBody=0;fillColor=none;collapsible=0;dropTarget=0;points=[[0,0.5],[1,0.5]];portConstraint=eastwest;top=0;left=0;right=0;bottom=0;fontSize=20;fontStyle=1;whiteSpace=wrap;strokeWidth=2;" vertex="1" parent="Ffluy86TxCfnXTcbzehv-74">
          <mxGeometry y="180" width="252" height="30" as="geometry" />
        </mxCell>
        <mxCell id="Ffluy86TxCfnXTcbzehv-91" style="shape=partialRectangle;connectable=0;fillColor=none;top=0;left=0;bottom=0;right=0;editable=1;overflow=hidden;whiteSpace=wrap;fontSize=20;fontStyle=1;strokeWidth=2;" vertex="1" parent="Ffluy86TxCfnXTcbzehv-90">
          <mxGeometry width="30" height="30" as="geometry">
            <mxRectangle width="30" height="30" as="alternateBounds" />
          </mxGeometry>
        </mxCell>
        <mxCell id="Ffluy86TxCfnXTcbzehv-92" style="shape=partialRectangle;connectable=0;fillColor=none;top=0;left=0;bottom=0;right=0;align=left;spacingLeft=6;overflow=hidden;whiteSpace=wrap;fontSize=20;fontStyle=1;strokeWidth=2;" vertex="1" parent="Ffluy86TxCfnXTcbzehv-90">
          <mxGeometry x="30" width="222" height="30" as="geometry">
            <mxRectangle width="222" height="30" as="alternateBounds" />
          </mxGeometry>
        </mxCell>
        <mxCell id="Ffluy86TxCfnXTcbzehv-95" style="edgeStyle=orthogonalEdgeStyle;rounded=1;orthogonalLoop=1;jettySize=auto;html=1;entryX=0.5;entryY=0;entryDx=0;entryDy=0;strokeWidth=2;endArrow=none;endFill=0;curved=0;" edge="1" parent="1" source="Ffluy86TxCfnXTcbzehv-94" target="Ffluy86TxCfnXTcbzehv-74">
          <mxGeometry relative="1" as="geometry" />
        </mxCell>
        <mxCell id="Ffluy86TxCfnXTcbzehv-94" value="&lt;font style=&quot;font-size: 15px;&quot;&gt;refers to&lt;/font&gt;" style="rhombus;whiteSpace=wrap;html=1;strokeWidth=2;fontSize=20;fontStyle=1" vertex="1" parent="1">
          <mxGeometry x="360" y="983" width="96" height="96" as="geometry" />
        </mxCell>
        <mxCell id="Ffluy86TxCfnXTcbzehv-98" style="edgeStyle=orthogonalEdgeStyle;rounded=1;orthogonalLoop=1;jettySize=auto;html=1;entryX=1;entryY=0.5;entryDx=0;entryDy=0;strokeWidth=2;endArrow=none;endFill=0;curved=0;" edge="1" parent="1" source="Ffluy86TxCfnXTcbzehv-97" target="Ffluy86TxCfnXTcbzehv-81">
          <mxGeometry relative="1" as="geometry" />
        </mxCell>
        <mxCell id="Ffluy86TxCfnXTcbzehv-97" value="&lt;font style=&quot;font-size: 15px;&quot;&gt;submits&lt;/font&gt;" style="rhombus;whiteSpace=wrap;html=1;strokeWidth=2;fontSize=20;fontStyle=1" vertex="1" parent="1">
          <mxGeometry x="713" y="1211" width="96" height="96" as="geometry" />
        </mxCell>
        <mxCell id="Ffluy86TxCfnXTcbzehv-127" style="edgeStyle=orthogonalEdgeStyle;rounded=1;orthogonalLoop=1;jettySize=auto;html=1;entryX=0;entryY=0.5;entryDx=0;entryDy=0;strokeWidth=2;endArrow=none;endFill=0;curved=0;" edge="1" parent="1" source="Ffluy86TxCfnXTcbzehv-101" target="-RAdWuRQX7kpM0FOr2N4-113">
          <mxGeometry relative="1" as="geometry" />
        </mxCell>
        <mxCell id="Ffluy86TxCfnXTcbzehv-101" value="&lt;span style=&quot;font-size: 15px;&quot;&gt;post&lt;/span&gt;" style="rhombus;whiteSpace=wrap;html=1;strokeWidth=2;fontSize=20;fontStyle=1" vertex="1" parent="1">
          <mxGeometry x="-40" y="1853" width="102" height="102" as="geometry" />
        </mxCell>
        <mxCell id="Ffluy86TxCfnXTcbzehv-102" value="&lt;font style=&quot;font-size: 15px;&quot;&gt;participates in&lt;/font&gt;" style="rhombus;whiteSpace=wrap;html=1;strokeWidth=2;fontSize=20;fontStyle=1" vertex="1" parent="1">
          <mxGeometry x="1118" y="1870" width="126" height="126" as="geometry" />
        </mxCell>
        <mxCell id="Ffluy86TxCfnXTcbzehv-104" value="survey_response" style="shape=table;startSize=30;container=1;collapsible=1;childLayout=tableLayout;fixedRows=1;rowLines=0;fontStyle=1;align=center;resizeLast=1;fontSize=20;whiteSpace=wrap;strokeWidth=2;" vertex="1" parent="1">
          <mxGeometry x="820" y="1978" width="252" height="180" as="geometry" />
        </mxCell>
        <mxCell id="Ffluy86TxCfnXTcbzehv-105" value="" style="shape=tableRow;horizontal=0;startSize=0;swimlaneHead=0;swimlaneBody=0;fillColor=none;collapsible=0;dropTarget=0;points=[[0,0.5],[1,0.5]];portConstraint=eastwest;top=0;left=0;right=0;bottom=1;fontSize=20;fontStyle=1;whiteSpace=wrap;strokeWidth=2;" vertex="1" parent="Ffluy86TxCfnXTcbzehv-104">
          <mxGeometry y="30" width="252" height="30" as="geometry" />
        </mxCell>
        <mxCell id="Ffluy86TxCfnXTcbzehv-106" value="PK" style="shape=partialRectangle;connectable=0;fillColor=none;top=0;left=0;bottom=0;right=0;fontStyle=1;overflow=hidden;whiteSpace=wrap;fontSize=20;strokeWidth=2;" vertex="1" parent="Ffluy86TxCfnXTcbzehv-105">
          <mxGeometry width="30" height="30" as="geometry">
            <mxRectangle width="30" height="30" as="alternateBounds" />
          </mxGeometry>
        </mxCell>
        <mxCell id="Ffluy86TxCfnXTcbzehv-107" value="response_id" style="shape=partialRectangle;connectable=0;fillColor=none;top=0;left=0;bottom=0;right=0;align=left;spacingLeft=6;fontStyle=1;overflow=hidden;whiteSpace=wrap;fontSize=20;strokeWidth=2;" vertex="1" parent="Ffluy86TxCfnXTcbzehv-105">
          <mxGeometry x="30" width="222" height="30" as="geometry">
            <mxRectangle width="222" height="30" as="alternateBounds" />
          </mxGeometry>
        </mxCell>
        <mxCell id="Ffluy86TxCfnXTcbzehv-108" style="shape=tableRow;horizontal=0;startSize=0;swimlaneHead=0;swimlaneBody=0;fillColor=none;collapsible=0;dropTarget=0;points=[[0,0.5],[1,0.5]];portConstraint=eastwest;top=0;left=0;right=0;bottom=0;fontSize=20;fontStyle=1;whiteSpace=wrap;strokeWidth=2;" vertex="1" parent="Ffluy86TxCfnXTcbzehv-104">
          <mxGeometry y="60" width="252" height="30" as="geometry" />
        </mxCell>
        <mxCell id="Ffluy86TxCfnXTcbzehv-109" value="FK" style="shape=partialRectangle;connectable=0;fillColor=none;top=0;left=0;bottom=0;right=0;editable=1;overflow=hidden;whiteSpace=wrap;fontSize=20;fontStyle=1;strokeWidth=2;" vertex="1" parent="Ffluy86TxCfnXTcbzehv-108">
          <mxGeometry width="30" height="30" as="geometry">
            <mxRectangle width="30" height="30" as="alternateBounds" />
          </mxGeometry>
        </mxCell>
        <mxCell id="Ffluy86TxCfnXTcbzehv-110" value="survey_id" style="shape=partialRectangle;connectable=0;fillColor=none;top=0;left=0;bottom=0;right=0;align=left;spacingLeft=6;overflow=hidden;whiteSpace=wrap;fontSize=20;fontStyle=1;strokeWidth=2;" vertex="1" parent="Ffluy86TxCfnXTcbzehv-108">
          <mxGeometry x="30" width="222" height="30" as="geometry">
            <mxRectangle width="222" height="30" as="alternateBounds" />
          </mxGeometry>
        </mxCell>
        <mxCell id="Ffluy86TxCfnXTcbzehv-111" value="" style="shape=tableRow;horizontal=0;startSize=0;swimlaneHead=0;swimlaneBody=0;fillColor=none;collapsible=0;dropTarget=0;points=[[0,0.5],[1,0.5]];portConstraint=eastwest;top=0;left=0;right=0;bottom=0;fontSize=20;fontStyle=1;whiteSpace=wrap;strokeWidth=2;" vertex="1" parent="Ffluy86TxCfnXTcbzehv-104">
          <mxGeometry y="90" width="252" height="30" as="geometry" />
        </mxCell>
        <mxCell id="Ffluy86TxCfnXTcbzehv-112" value="FK" style="shape=partialRectangle;connectable=0;fillColor=none;top=0;left=0;bottom=0;right=0;editable=1;overflow=hidden;whiteSpace=wrap;fontSize=20;fontStyle=1;strokeWidth=2;" vertex="1" parent="Ffluy86TxCfnXTcbzehv-111">
          <mxGeometry width="30" height="30" as="geometry">
            <mxRectangle width="30" height="30" as="alternateBounds" />
          </mxGeometry>
        </mxCell>
        <mxCell id="Ffluy86TxCfnXTcbzehv-113" value="constituent_id" style="shape=partialRectangle;connectable=0;fillColor=none;top=0;left=0;bottom=0;right=0;align=left;spacingLeft=6;overflow=hidden;whiteSpace=wrap;fontSize=20;fontStyle=1;strokeWidth=2;" vertex="1" parent="Ffluy86TxCfnXTcbzehv-111">
          <mxGeometry x="30" width="222" height="30" as="geometry">
            <mxRectangle width="222" height="30" as="alternateBounds" />
          </mxGeometry>
        </mxCell>
        <mxCell id="Ffluy86TxCfnXTcbzehv-114" value="" style="shape=tableRow;horizontal=0;startSize=0;swimlaneHead=0;swimlaneBody=0;fillColor=none;collapsible=0;dropTarget=0;points=[[0,0.5],[1,0.5]];portConstraint=eastwest;top=0;left=0;right=0;bottom=0;fontSize=20;fontStyle=1;whiteSpace=wrap;strokeWidth=2;" vertex="1" parent="Ffluy86TxCfnXTcbzehv-104">
          <mxGeometry y="120" width="252" height="30" as="geometry" />
        </mxCell>
        <mxCell id="Ffluy86TxCfnXTcbzehv-115" value="" style="shape=partialRectangle;connectable=0;fillColor=none;top=0;left=0;bottom=0;right=0;editable=1;overflow=hidden;whiteSpace=wrap;fontSize=20;fontStyle=1;strokeWidth=2;" vertex="1" parent="Ffluy86TxCfnXTcbzehv-114">
          <mxGeometry width="30" height="30" as="geometry">
            <mxRectangle width="30" height="30" as="alternateBounds" />
          </mxGeometry>
        </mxCell>
        <mxCell id="Ffluy86TxCfnXTcbzehv-116" value="survey_response" style="shape=partialRectangle;connectable=0;fillColor=none;top=0;left=0;bottom=0;right=0;align=left;spacingLeft=6;overflow=hidden;whiteSpace=wrap;fontSize=20;fontStyle=1;strokeWidth=2;" vertex="1" parent="Ffluy86TxCfnXTcbzehv-114">
          <mxGeometry x="30" width="222" height="30" as="geometry">
            <mxRectangle width="222" height="30" as="alternateBounds" />
          </mxGeometry>
        </mxCell>
        <mxCell id="Ffluy86TxCfnXTcbzehv-120" style="shape=tableRow;horizontal=0;startSize=0;swimlaneHead=0;swimlaneBody=0;fillColor=none;collapsible=0;dropTarget=0;points=[[0,0.5],[1,0.5]];portConstraint=eastwest;top=0;left=0;right=0;bottom=0;fontSize=20;fontStyle=1;whiteSpace=wrap;strokeWidth=2;" vertex="1" parent="Ffluy86TxCfnXTcbzehv-104">
          <mxGeometry y="150" width="252" height="30" as="geometry" />
        </mxCell>
        <mxCell id="Ffluy86TxCfnXTcbzehv-121" style="shape=partialRectangle;connectable=0;fillColor=none;top=0;left=0;bottom=0;right=0;editable=1;overflow=hidden;whiteSpace=wrap;fontSize=20;fontStyle=1;strokeWidth=2;" vertex="1" parent="Ffluy86TxCfnXTcbzehv-120">
          <mxGeometry width="30" height="30" as="geometry">
            <mxRectangle width="30" height="30" as="alternateBounds" />
          </mxGeometry>
        </mxCell>
        <mxCell id="Ffluy86TxCfnXTcbzehv-122" value="" style="shape=partialRectangle;connectable=0;fillColor=none;top=0;left=0;bottom=0;right=0;align=left;spacingLeft=6;overflow=hidden;whiteSpace=wrap;fontSize=20;fontStyle=1;strokeWidth=2;" vertex="1" parent="Ffluy86TxCfnXTcbzehv-120">
          <mxGeometry x="30" width="222" height="30" as="geometry">
            <mxRectangle width="222" height="30" as="alternateBounds" />
          </mxGeometry>
        </mxCell>
        <mxCell id="Ffluy86TxCfnXTcbzehv-125" style="edgeStyle=orthogonalEdgeStyle;rounded=1;orthogonalLoop=1;jettySize=auto;html=1;entryX=0;entryY=0.5;entryDx=0;entryDy=0;strokeWidth=2;endArrow=none;endFill=0;curved=0;" edge="1" parent="1" source="Ffluy86TxCfnXTcbzehv-123" target="Ffluy86TxCfnXTcbzehv-108">
          <mxGeometry relative="1" as="geometry" />
        </mxCell>
        <mxCell id="Ffluy86TxCfnXTcbzehv-123" value="&lt;span style=&quot;font-size: 15px;&quot;&gt;has&lt;/span&gt;" style="rhombus;whiteSpace=wrap;html=1;strokeWidth=2;fontSize=20;fontStyle=1" vertex="1" parent="1">
          <mxGeometry x="635" y="2002" width="102" height="102" as="geometry" />
        </mxCell>
        <mxCell id="Ffluy86TxCfnXTcbzehv-128" style="edgeStyle=orthogonalEdgeStyle;rounded=1;orthogonalLoop=1;jettySize=auto;html=1;entryX=0;entryY=0.5;entryDx=0;entryDy=0;strokeWidth=2;endArrow=none;endFill=0;curved=0;" edge="1" parent="1" source="-RAdWuRQX7kpM0FOr2N4-128" target="Ffluy86TxCfnXTcbzehv-102">
          <mxGeometry relative="1" as="geometry" />
        </mxCell>
        <mxCell id="Ffluy86TxCfnXTcbzehv-131" value="&lt;font style=&quot;font-size: 15px;&quot;&gt;provides&lt;/font&gt;" style="rhombus;whiteSpace=wrap;html=1;strokeWidth=2;fontSize=20;fontStyle=1" vertex="1" parent="1">
          <mxGeometry x="1262.5" y="2031" width="102" height="102" as="geometry" />
        </mxCell>
        <mxCell id="Ffluy86TxCfnXTcbzehv-133" style="edgeStyle=orthogonalEdgeStyle;rounded=1;orthogonalLoop=1;jettySize=auto;html=1;entryX=0;entryY=0.5;entryDx=0;entryDy=0;strokeWidth=2;endArrow=none;endFill=0;curved=0;" edge="1" parent="1" source="Ffluy86TxCfnXTcbzehv-111" target="Ffluy86TxCfnXTcbzehv-131">
          <mxGeometry relative="1" as="geometry" />
        </mxCell>
        <mxCell id="Ffluy86TxCfnXTcbzehv-136" value="&lt;span style=&quot;font-size: 15px;&quot;&gt;organize&lt;/span&gt;" style="rhombus;whiteSpace=wrap;html=1;strokeWidth=2;fontSize=20;fontStyle=1" vertex="1" parent="1">
          <mxGeometry x="-50" y="2109" width="102" height="102" as="geometry" />
        </mxCell>
        <mxCell id="Ffluy86TxCfnXTcbzehv-137" style="edgeStyle=orthogonalEdgeStyle;rounded=1;orthogonalLoop=1;jettySize=auto;html=1;entryX=1;entryY=0.5;entryDx=0;entryDy=0;strokeWidth=2;endArrow=none;endFill=0;curved=0;" edge="1" parent="1" source="-RAdWuRQX7kpM0FOr2N4-151" target="Ffluy86TxCfnXTcbzehv-136">
          <mxGeometry relative="1" as="geometry" />
        </mxCell>
        <mxCell id="Ffluy86TxCfnXTcbzehv-139" value="&lt;font style=&quot;font-size: 15px;&quot;&gt;views&lt;/font&gt;" style="rhombus;whiteSpace=wrap;html=1;strokeWidth=2;fontSize=20;fontStyle=1" vertex="1" parent="1">
          <mxGeometry x="1162" y="2143" width="93" height="93" as="geometry" />
        </mxCell>
        <mxCell id="Ffluy86TxCfnXTcbzehv-140" style="edgeStyle=orthogonalEdgeStyle;rounded=1;orthogonalLoop=1;jettySize=auto;html=1;entryX=0;entryY=0.5;entryDx=0;entryDy=0;strokeWidth=2;endArrow=none;endFill=0;curved=0;" edge="1" parent="1" source="-RAdWuRQX7kpM0FOr2N4-154" target="Ffluy86TxCfnXTcbzehv-139">
          <mxGeometry relative="1" as="geometry" />
        </mxCell>
        <mxCell id="Ffluy86TxCfnXTcbzehv-143" value="&lt;font style=&quot;font-size: 15px;&quot;&gt;belongs to&lt;/font&gt;" style="rhombus;whiteSpace=wrap;html=1;strokeWidth=2;fontSize=20;fontStyle=1" vertex="1" parent="1">
          <mxGeometry x="44" y="2287" width="96" height="96" as="geometry" />
        </mxCell>
        <mxCell id="Ffluy86TxCfnXTcbzehv-145" style="edgeStyle=orthogonalEdgeStyle;rounded=1;orthogonalLoop=1;jettySize=auto;html=1;entryX=1;entryY=0.5;entryDx=0;entryDy=0;strokeWidth=2;endArrow=none;endFill=0;curved=0;" edge="1" parent="1" source="Ffluy86TxCfnXTcbzehv-2" target="Ffluy86TxCfnXTcbzehv-143">
          <mxGeometry relative="1" as="geometry" />
        </mxCell>
        <mxCell id="Ffluy86TxCfnXTcbzehv-146" value="&lt;font style=&quot;font-size: 15px;&quot;&gt;belongs to&lt;/font&gt;" style="rhombus;whiteSpace=wrap;html=1;strokeWidth=2;fontSize=20;fontStyle=1" vertex="1" parent="1">
          <mxGeometry x="1486" y="2286" width="96" height="96" as="geometry" />
        </mxCell>
        <mxCell id="Ffluy86TxCfnXTcbzehv-147" style="edgeStyle=orthogonalEdgeStyle;rounded=1;orthogonalLoop=1;jettySize=auto;html=1;strokeWidth=2;endArrow=none;endFill=0;curved=0;" edge="1" parent="1" source="Ffluy86TxCfnXTcbzehv-2" target="Ffluy86TxCfnXTcbzehv-146">
          <mxGeometry relative="1" as="geometry" />
        </mxCell>
        <mxCell id="Ffluy86TxCfnXTcbzehv-149" value="&lt;b&gt;&lt;font style=&quot;font-size: 18px;&quot;&gt;1&lt;/font&gt;&lt;/b&gt;" style="text;html=1;align=center;verticalAlign=middle;resizable=0;points=[];autosize=1;strokeColor=none;fillColor=none;" vertex="1" parent="1">
          <mxGeometry x="411" y="386" width="28" height="34" as="geometry" />
        </mxCell>
        <mxCell id="Ffluy86TxCfnXTcbzehv-150" value="&lt;b&gt;&lt;font style=&quot;font-size: 18px;&quot;&gt;1&lt;/font&gt;&lt;/b&gt;" style="text;html=1;align=center;verticalAlign=middle;resizable=0;points=[];autosize=1;strokeColor=none;fillColor=none;" vertex="1" parent="1">
          <mxGeometry x="768" y="470" width="28" height="34" as="geometry" />
        </mxCell>
        <mxCell id="Ffluy86TxCfnXTcbzehv-151" value="&lt;b&gt;&lt;font style=&quot;font-size: 18px;&quot;&gt;1..*&lt;/font&gt;&lt;/b&gt;" style="text;html=1;align=center;verticalAlign=middle;resizable=0;points=[];autosize=1;strokeColor=none;fillColor=none;" vertex="1" parent="1">
          <mxGeometry x="396" y="548" width="45" height="34" as="geometry" />
        </mxCell>
        <mxCell id="Ffluy86TxCfnXTcbzehv-152" value="&lt;b&gt;&lt;font style=&quot;font-size: 18px;&quot;&gt;1&lt;/font&gt;&lt;/b&gt;" style="text;html=1;align=center;verticalAlign=middle;resizable=0;points=[];autosize=1;strokeColor=none;fillColor=none;" vertex="1" parent="1">
          <mxGeometry x="1233" y="446" width="28" height="34" as="geometry" />
        </mxCell>
        <mxCell id="Ffluy86TxCfnXTcbzehv-153" value="&lt;b&gt;&lt;font style=&quot;font-size: 18px;&quot;&gt;1&lt;/font&gt;&lt;/b&gt;" style="text;html=1;align=center;verticalAlign=middle;resizable=0;points=[];autosize=1;strokeColor=none;fillColor=none;" vertex="1" parent="1">
          <mxGeometry x="1270" y="448" width="28" height="34" as="geometry" />
        </mxCell>
        <mxCell id="Ffluy86TxCfnXTcbzehv-154" value="&lt;b&gt;&lt;font style=&quot;font-size: 18px;&quot;&gt;1&lt;/font&gt;&lt;/b&gt;" style="text;html=1;align=center;verticalAlign=middle;resizable=0;points=[];autosize=1;strokeColor=none;fillColor=none;" vertex="1" parent="1">
          <mxGeometry x="1321" y="446" width="28" height="34" as="geometry" />
        </mxCell>
        <mxCell id="Ffluy86TxCfnXTcbzehv-155" value="&lt;b&gt;&lt;font style=&quot;font-size: 18px;&quot;&gt;1&lt;/font&gt;&lt;/b&gt;" style="text;html=1;align=center;verticalAlign=middle;resizable=0;points=[];autosize=1;strokeColor=none;fillColor=none;" vertex="1" parent="1">
          <mxGeometry x="1376" y="447" width="28" height="34" as="geometry" />
        </mxCell>
        <mxCell id="Ffluy86TxCfnXTcbzehv-156" value="&lt;b&gt;&lt;font style=&quot;font-size: 18px;&quot;&gt;1&lt;/font&gt;&lt;/b&gt;" style="text;html=1;align=center;verticalAlign=middle;resizable=0;points=[];autosize=1;strokeColor=none;fillColor=none;" vertex="1" parent="1">
          <mxGeometry x="1421" y="446" width="28" height="34" as="geometry" />
        </mxCell>
        <mxCell id="Ffluy86TxCfnXTcbzehv-157" value="&lt;b&gt;&lt;font style=&quot;font-size: 18px;&quot;&gt;1&lt;/font&gt;&lt;/b&gt;" style="text;html=1;align=center;verticalAlign=middle;resizable=0;points=[];autosize=1;strokeColor=none;fillColor=none;" vertex="1" parent="1">
          <mxGeometry x="1466" y="446" width="28" height="34" as="geometry" />
        </mxCell>
        <mxCell id="Ffluy86TxCfnXTcbzehv-158" value="&lt;b&gt;&lt;font style=&quot;font-size: 18px;&quot;&gt;1&lt;/font&gt;&lt;/b&gt;" style="text;html=1;align=center;verticalAlign=middle;resizable=0;points=[];autosize=1;strokeColor=none;fillColor=none;" vertex="1" parent="1">
          <mxGeometry x="1507" y="446" width="28" height="34" as="geometry" />
        </mxCell>
        <mxCell id="Ffluy86TxCfnXTcbzehv-159" value="&lt;b&gt;&lt;font style=&quot;font-size: 18px;&quot;&gt;1&lt;/font&gt;&lt;/b&gt;" style="text;html=1;align=center;verticalAlign=middle;resizable=0;points=[];autosize=1;strokeColor=none;fillColor=none;" vertex="1" parent="1">
          <mxGeometry x="1560" y="446" width="28" height="34" as="geometry" />
        </mxCell>
        <mxCell id="Ffluy86TxCfnXTcbzehv-160" value="&lt;b&gt;&lt;font style=&quot;font-size: 18px;&quot;&gt;1&lt;/font&gt;&lt;/b&gt;" style="text;html=1;align=center;verticalAlign=middle;resizable=0;points=[];autosize=1;strokeColor=none;fillColor=none;" vertex="1" parent="1">
          <mxGeometry x="1622" y="445" width="28" height="34" as="geometry" />
        </mxCell>
        <mxCell id="Ffluy86TxCfnXTcbzehv-161" value="&lt;b&gt;&lt;font style=&quot;font-size: 18px;&quot;&gt;1&lt;/font&gt;&lt;/b&gt;" style="text;html=1;align=center;verticalAlign=middle;resizable=0;points=[];autosize=1;strokeColor=none;fillColor=none;" vertex="1" parent="1">
          <mxGeometry x="1681" y="447" width="28" height="34" as="geometry" />
        </mxCell>
        <mxCell id="Ffluy86TxCfnXTcbzehv-162" value="&lt;b&gt;&lt;font style=&quot;font-size: 18px;&quot;&gt;1&lt;/font&gt;&lt;/b&gt;" style="text;html=1;align=center;verticalAlign=middle;resizable=0;points=[];autosize=1;strokeColor=none;fillColor=none;" vertex="1" parent="1">
          <mxGeometry x="1746" y="448" width="28" height="34" as="geometry" />
        </mxCell>
        <mxCell id="Ffluy86TxCfnXTcbzehv-163" value="&lt;b&gt;&lt;font style=&quot;font-size: 18px;&quot;&gt;1&lt;/font&gt;&lt;/b&gt;" style="text;html=1;align=center;verticalAlign=middle;resizable=0;points=[];autosize=1;strokeColor=none;fillColor=none;" vertex="1" parent="1">
          <mxGeometry x="-165" y="421" width="28" height="34" as="geometry" />
        </mxCell>
        <mxCell id="Ffluy86TxCfnXTcbzehv-164" value="&lt;b&gt;&lt;font style=&quot;font-size: 18px;&quot;&gt;1&lt;/font&gt;&lt;/b&gt;" style="text;html=1;align=center;verticalAlign=middle;resizable=0;points=[];autosize=1;strokeColor=none;fillColor=none;" vertex="1" parent="1">
          <mxGeometry x="-130" y="419" width="28" height="34" as="geometry" />
        </mxCell>
        <mxCell id="Ffluy86TxCfnXTcbzehv-165" value="&lt;b&gt;&lt;font style=&quot;font-size: 18px;&quot;&gt;1&lt;/font&gt;&lt;/b&gt;" style="text;html=1;align=center;verticalAlign=middle;resizable=0;points=[];autosize=1;strokeColor=none;fillColor=none;" vertex="1" parent="1">
          <mxGeometry x="-83" y="421" width="28" height="34" as="geometry" />
        </mxCell>
        <mxCell id="Ffluy86TxCfnXTcbzehv-166" value="&lt;b&gt;&lt;font style=&quot;font-size: 18px;&quot;&gt;1&lt;/font&gt;&lt;/b&gt;" style="text;html=1;align=center;verticalAlign=middle;resizable=0;points=[];autosize=1;strokeColor=none;fillColor=none;" vertex="1" parent="1">
          <mxGeometry x="-29" y="419" width="28" height="34" as="geometry" />
        </mxCell>
        <mxCell id="Ffluy86TxCfnXTcbzehv-167" value="&lt;b&gt;&lt;font style=&quot;font-size: 18px;&quot;&gt;1&lt;/font&gt;&lt;/b&gt;" style="text;html=1;align=center;verticalAlign=middle;resizable=0;points=[];autosize=1;strokeColor=none;fillColor=none;" vertex="1" parent="1">
          <mxGeometry x="22" y="421" width="28" height="34" as="geometry" />
        </mxCell>
        <mxCell id="Ffluy86TxCfnXTcbzehv-168" value="&lt;b&gt;&lt;font style=&quot;font-size: 18px;&quot;&gt;1&lt;/font&gt;&lt;/b&gt;" style="text;html=1;align=center;verticalAlign=middle;resizable=0;points=[];autosize=1;strokeColor=none;fillColor=none;" vertex="1" parent="1">
          <mxGeometry x="81" y="421" width="28" height="34" as="geometry" />
        </mxCell>
        <mxCell id="Ffluy86TxCfnXTcbzehv-169" value="&lt;b&gt;&lt;font style=&quot;font-size: 18px;&quot;&gt;1&lt;/font&gt;&lt;/b&gt;" style="text;html=1;align=center;verticalAlign=middle;resizable=0;points=[];autosize=1;strokeColor=none;fillColor=none;" vertex="1" parent="1">
          <mxGeometry x="115" y="420" width="28" height="34" as="geometry" />
        </mxCell>
        <mxCell id="Ffluy86TxCfnXTcbzehv-174" value="&lt;b&gt;&lt;font style=&quot;font-size: 18px;&quot;&gt;1&lt;/font&gt;&lt;/b&gt;" style="text;html=1;align=center;verticalAlign=middle;resizable=0;points=[];autosize=1;strokeColor=none;fillColor=none;" vertex="1" parent="1">
          <mxGeometry x="557" y="386" width="28" height="34" as="geometry" />
        </mxCell>
        <mxCell id="Ffluy86TxCfnXTcbzehv-175" value="&lt;b&gt;&lt;font style=&quot;font-size: 18px;&quot;&gt;1..*&lt;/font&gt;&lt;/b&gt;" style="text;html=1;align=center;verticalAlign=middle;resizable=0;points=[];autosize=1;strokeColor=none;fillColor=none;" vertex="1" parent="1">
          <mxGeometry x="629" y="625" width="45" height="34" as="geometry" />
        </mxCell>
        <mxCell id="Ffluy86TxCfnXTcbzehv-176" value="&lt;b&gt;&lt;font style=&quot;font-size: 18px;&quot;&gt;1..*&lt;/font&gt;&lt;/b&gt;" style="text;html=1;align=center;verticalAlign=middle;resizable=0;points=[];autosize=1;strokeColor=none;fillColor=none;" vertex="1" parent="1">
          <mxGeometry x="1166" y="825" width="45" height="34" as="geometry" />
        </mxCell>
        <mxCell id="Ffluy86TxCfnXTcbzehv-177" value="&lt;b&gt;&lt;font style=&quot;font-size: 18px;&quot;&gt;1&lt;/font&gt;&lt;/b&gt;" style="text;html=1;align=center;verticalAlign=middle;resizable=0;points=[];autosize=1;strokeColor=none;fillColor=none;" vertex="1" parent="1">
          <mxGeometry x="629" y="659" width="28" height="34" as="geometry" />
        </mxCell>
        <mxCell id="Ffluy86TxCfnXTcbzehv-178" value="&lt;b&gt;&lt;font style=&quot;font-size: 18px;&quot;&gt;1..*&lt;/font&gt;&lt;/b&gt;" style="text;html=1;align=center;verticalAlign=middle;resizable=0;points=[];autosize=1;strokeColor=none;fillColor=none;" vertex="1" parent="1">
          <mxGeometry x="868" y="795" width="45" height="34" as="geometry" />
        </mxCell>
        <mxCell id="Ffluy86TxCfnXTcbzehv-180" value="&lt;b&gt;&lt;font style=&quot;font-size: 18px;&quot;&gt;1&lt;/font&gt;&lt;/b&gt;" style="text;html=1;align=center;verticalAlign=middle;resizable=0;points=[];autosize=1;strokeColor=none;fillColor=none;" vertex="1" parent="1">
          <mxGeometry x="762" y="1010" width="28" height="34" as="geometry" />
        </mxCell>
        <mxCell id="Ffluy86TxCfnXTcbzehv-181" value="&lt;b&gt;&lt;font style=&quot;font-size: 18px;&quot;&gt;1..*&lt;/font&gt;&lt;/b&gt;" style="text;html=1;align=center;verticalAlign=middle;resizable=0;points=[];autosize=1;strokeColor=none;fillColor=none;" vertex="1" parent="1">
          <mxGeometry x="539" y="885" width="45" height="34" as="geometry" />
        </mxCell>
        <mxCell id="Ffluy86TxCfnXTcbzehv-182" value="&lt;b&gt;&lt;font style=&quot;font-size: 18px;&quot;&gt;1..*&lt;/font&gt;&lt;/b&gt;" style="text;html=1;align=center;verticalAlign=middle;resizable=0;points=[];autosize=1;strokeColor=none;fillColor=none;" vertex="1" parent="1">
          <mxGeometry x="1042" y="1041" width="45" height="34" as="geometry" />
        </mxCell>
        <mxCell id="Ffluy86TxCfnXTcbzehv-183" value="&lt;b&gt;&lt;font style=&quot;font-size: 18px;&quot;&gt;1&lt;/font&gt;&lt;/b&gt;" style="text;html=1;align=center;verticalAlign=middle;resizable=0;points=[];autosize=1;strokeColor=none;fillColor=none;" vertex="1" parent="1">
          <mxGeometry x="380" y="1120" width="28" height="34" as="geometry" />
        </mxCell>
        <mxCell id="Ffluy86TxCfnXTcbzehv-184" value="&lt;b&gt;&lt;font style=&quot;font-size: 18px;&quot;&gt;1&lt;/font&gt;&lt;/b&gt;" style="text;html=1;align=center;verticalAlign=middle;resizable=0;points=[];autosize=1;strokeColor=none;fillColor=none;" vertex="1" parent="1">
          <mxGeometry x="379" y="884" width="28" height="34" as="geometry" />
        </mxCell>
        <mxCell id="Ffluy86TxCfnXTcbzehv-185" value="&lt;b&gt;&lt;font style=&quot;font-size: 18px;&quot;&gt;1..*&lt;/font&gt;&lt;/b&gt;" style="text;html=1;align=center;verticalAlign=middle;resizable=0;points=[];autosize=1;strokeColor=none;fillColor=none;" vertex="1" parent="1">
          <mxGeometry x="536" y="1223" width="45" height="34" as="geometry" />
        </mxCell>
        <mxCell id="Ffluy86TxCfnXTcbzehv-186" value="&lt;b&gt;&lt;font style=&quot;font-size: 18px;&quot;&gt;1&lt;/font&gt;&lt;/b&gt;" style="text;html=1;align=center;verticalAlign=middle;resizable=0;points=[];autosize=1;strokeColor=none;fillColor=none;" vertex="1" parent="1">
          <mxGeometry x="141" y="1435" width="28" height="34" as="geometry" />
        </mxCell>
        <mxCell id="Ffluy86TxCfnXTcbzehv-187" value="&lt;b&gt;&lt;font style=&quot;font-size: 18px;&quot;&gt;1&lt;/font&gt;&lt;/b&gt;" style="text;html=1;align=center;verticalAlign=middle;resizable=0;points=[];autosize=1;strokeColor=none;fillColor=none;" vertex="1" parent="1">
          <mxGeometry x="423" y="1467" width="28" height="34" as="geometry" />
        </mxCell>
        <mxCell id="Ffluy86TxCfnXTcbzehv-188" value="&lt;b&gt;&lt;font style=&quot;font-size: 18px;&quot;&gt;1&lt;/font&gt;&lt;/b&gt;" style="text;html=1;align=center;verticalAlign=middle;resizable=0;points=[];autosize=1;strokeColor=none;fillColor=none;" vertex="1" parent="1">
          <mxGeometry x="295" y="1545" width="28" height="34" as="geometry" />
        </mxCell>
        <mxCell id="Ffluy86TxCfnXTcbzehv-189" value="&lt;b&gt;&lt;font style=&quot;font-size: 18px;&quot;&gt;1..*&lt;/font&gt;&lt;/b&gt;" style="text;html=1;align=center;verticalAlign=middle;resizable=0;points=[];autosize=1;strokeColor=none;fillColor=none;" vertex="1" parent="1">
          <mxGeometry x="471" y="1578" width="45" height="34" as="geometry" />
        </mxCell>
        <mxCell id="Ffluy86TxCfnXTcbzehv-190" value="&lt;b&gt;&lt;font style=&quot;font-size: 18px;&quot;&gt;1..*&lt;/font&gt;&lt;/b&gt;" style="text;html=1;align=center;verticalAlign=middle;resizable=0;points=[];autosize=1;strokeColor=none;fillColor=none;" vertex="1" parent="1">
          <mxGeometry x="769" y="1635" width="45" height="34" as="geometry" />
        </mxCell>
        <mxCell id="Ffluy86TxCfnXTcbzehv-191" value="&lt;b&gt;&lt;font style=&quot;font-size: 18px;&quot;&gt;1..*&lt;/font&gt;&lt;/b&gt;" style="text;html=1;align=center;verticalAlign=middle;resizable=0;points=[];autosize=1;strokeColor=none;fillColor=none;" vertex="1" parent="1">
          <mxGeometry x="466" y="1647" width="45" height="34" as="geometry" />
        </mxCell>
        <mxCell id="Ffluy86TxCfnXTcbzehv-193" value="&lt;b&gt;&lt;font style=&quot;font-size: 18px;&quot;&gt;1..*&lt;/font&gt;&lt;/b&gt;" style="text;html=1;align=center;verticalAlign=middle;resizable=0;points=[];autosize=1;strokeColor=none;fillColor=none;" vertex="1" parent="1">
          <mxGeometry x="808" y="1761" width="45" height="34" as="geometry" />
        </mxCell>
        <mxCell id="Ffluy86TxCfnXTcbzehv-194" value="&lt;b&gt;&lt;font style=&quot;font-size: 18px;&quot;&gt;1..*&lt;/font&gt;&lt;/b&gt;" style="text;html=1;align=center;verticalAlign=middle;resizable=0;points=[];autosize=1;strokeColor=none;fillColor=none;" vertex="1" parent="1">
          <mxGeometry x="1107" y="1761" width="45" height="34" as="geometry" />
        </mxCell>
        <mxCell id="Ffluy86TxCfnXTcbzehv-195" value="&lt;b&gt;&lt;font style=&quot;font-size: 18px;&quot;&gt;1..*&lt;/font&gt;&lt;/b&gt;" style="text;html=1;align=center;verticalAlign=middle;resizable=0;points=[];autosize=1;strokeColor=none;fillColor=none;" vertex="1" parent="1">
          <mxGeometry x="119" y="1868" width="45" height="34" as="geometry" />
        </mxCell>
        <mxCell id="Ffluy86TxCfnXTcbzehv-196" value="&lt;b&gt;&lt;font style=&quot;font-size: 18px;&quot;&gt;1..*&lt;/font&gt;&lt;/b&gt;" style="text;html=1;align=center;verticalAlign=middle;resizable=0;points=[];autosize=1;strokeColor=none;fillColor=none;" vertex="1" parent="1">
          <mxGeometry x="417" y="1900" width="45" height="34" as="geometry" />
        </mxCell>
        <mxCell id="Ffluy86TxCfnXTcbzehv-197" value="&lt;b&gt;&lt;font style=&quot;font-size: 18px;&quot;&gt;0..*&lt;/font&gt;&lt;/b&gt;" style="text;html=1;align=center;verticalAlign=middle;resizable=0;points=[];autosize=1;strokeColor=none;fillColor=none;" vertex="1" parent="1">
          <mxGeometry x="773" y="2017" width="45" height="34" as="geometry" />
        </mxCell>
        <mxCell id="Ffluy86TxCfnXTcbzehv-198" value="&lt;b&gt;&lt;font style=&quot;font-size: 18px;&quot;&gt;1&lt;/font&gt;&lt;/b&gt;" style="text;html=1;align=center;verticalAlign=middle;resizable=0;points=[];autosize=1;strokeColor=none;fillColor=none;" vertex="1" parent="1">
          <mxGeometry x="415" y="2018" width="28" height="34" as="geometry" />
        </mxCell>
        <mxCell id="Ffluy86TxCfnXTcbzehv-199" value="&lt;b&gt;&lt;font style=&quot;font-size: 18px;&quot;&gt;1&lt;/font&gt;&lt;/b&gt;" style="text;html=1;align=center;verticalAlign=middle;resizable=0;points=[];autosize=1;strokeColor=none;fillColor=none;" vertex="1" parent="1">
          <mxGeometry x="1070" y="2048" width="28" height="34" as="geometry" />
        </mxCell>
        <mxCell id="Ffluy86TxCfnXTcbzehv-200" value="&lt;b&gt;&lt;font style=&quot;font-size: 18px;&quot;&gt;1..*&lt;/font&gt;&lt;/b&gt;" style="text;html=1;align=center;verticalAlign=middle;resizable=0;points=[];autosize=1;strokeColor=none;fillColor=none;" vertex="1" parent="1">
          <mxGeometry x="152" y="2126" width="45" height="34" as="geometry" />
        </mxCell>
        <mxCell id="Ffluy86TxCfnXTcbzehv-201" value="&lt;b&gt;&lt;font style=&quot;font-size: 18px;&quot;&gt;1..*&lt;/font&gt;&lt;/b&gt;" style="text;html=1;align=center;verticalAlign=middle;resizable=0;points=[];autosize=1;strokeColor=none;fillColor=none;" vertex="1" parent="1">
          <mxGeometry x="451" y="2158" width="45" height="34" as="geometry" />
        </mxCell>
        <mxCell id="Ffluy86TxCfnXTcbzehv-202" value="&lt;b&gt;&lt;font style=&quot;font-size: 18px;&quot;&gt;1&lt;/font&gt;&lt;/b&gt;" style="text;html=1;align=center;verticalAlign=middle;resizable=0;points=[];autosize=1;strokeColor=none;fillColor=none;" vertex="1" parent="1">
          <mxGeometry x="840" y="2303" width="28" height="34" as="geometry" />
        </mxCell>
        <mxCell id="Ffluy86TxCfnXTcbzehv-203" value="&lt;b&gt;&lt;font style=&quot;font-size: 18px;&quot;&gt;1&lt;/font&gt;&lt;/b&gt;" style="text;html=1;align=center;verticalAlign=middle;resizable=0;points=[];autosize=1;strokeColor=none;fillColor=none;" vertex="1" parent="1">
          <mxGeometry x="1165" y="2300" width="28" height="34" as="geometry" />
        </mxCell>
        <mxCell id="Ffluy86TxCfnXTcbzehv-204" value="&lt;b&gt;&lt;font style=&quot;font-size: 18px;&quot;&gt;1..*&lt;/font&gt;&lt;/b&gt;" style="text;html=1;align=center;verticalAlign=middle;resizable=0;points=[];autosize=1;strokeColor=none;fillColor=none;" vertex="1" parent="1">
          <mxGeometry x="329" y="657" width="45" height="34" as="geometry" />
        </mxCell>
      </root>
    </mxGraphModel>
  </diagram>
</mxfile>
